<?xml version="1.0" standalone="no"?>
<!DOCTYPE svg PUBLIC "-//W3C//DTD SVG 1.1//EN" "http://www.w3.org/Graphics/SVG/1.1/DTD/svg11.dtd" >
<svg>
<metadata>
Created by FontForge 20090914 at Mon Sep 13 20:01:22 2021
 By www-data
Copyright &#194;&#169; 2020 by Denis Serebryakov. All rights reserved.
</metadata>
<defs>
<font id="Nekst-Regular" horiz-adv-x="650" >
  <font-face 
    font-family="Nekst-Regular"
    font-weight="400"
    font-stretch="normal"
    units-per-em="1000"
    panose-1="1 0 0 0 0 0 0 0 0 0"
    ascent="800"
    descent="-200"
    x-height="493"
    cap-height="670"
    bbox="-392 -210 1154 917"
    underline-thickness="50"
    underline-position="-125"
    unicode-range="U+0020-U+277E"
  />
<missing-glyph horiz-adv-x="500" 
d="M93 800h317v-1000h-317v1000zM333 700v33h-165v-33h65v-37h-66v-33h166v33h-66v37h66zM267 534v70h-100v-104h166v34h-66zM200 570h33v-36h-33v36zM333 440v33h-166v-33h66v-37h-66v-33h100v70h66zM333 313v100h-33v-66h-133v-34h166zM333 178v113h-100v-56h34v23h33v-47
h-100v80h-33v-113h166zM333 5v113h-166v-113h166zM200 85h100v-47h-100v47zM333 -51v33h-166v-33h70l-70 -47v-33h166v33h-102l70 47h32z" />
    <glyph glyph-name="f_f" unicode="ff" horiz-adv-x="838" 
d="M811 648l-179.998 0.00195312c-36.667 0 -55 -18.333 -55 -55v-100h235v-72h-235v-421h-75v421h-309v-421h-75v421h-90v72h90v110c0 35.333 10.667 63.666 32 84.999s49.666 32 84.999 32h189v-72h-176c-36.667 0 -55 -18.333 -55 -55v-100h309v110
c0 35.333 10.667 63.666 32 84.999s49.666 32 84.999 32h193v-72z" />
    <glyph glyph-name=".notdef" horiz-adv-x="500" 
d="M93 800h317v-1000h-317v1000zM333 700v33h-165v-33h65v-37h-66v-33h166v33h-66v37h66zM267 534v70h-100v-104h166v34h-66zM200 570h33v-36h-33v36zM333 440v33h-166v-33h66v-37h-66v-33h100v70h66zM333 313v100h-33v-66h-133v-34h166zM333 178v113h-100v-56h34v23h33v-47
h-100v80h-33v-113h166zM333 5v113h-166v-113h166zM200 85h100v-47h-100v47zM333 -51v33h-166v-33h70l-70 -47v-33h166v33h-102l70 47h32z" />
    <glyph glyph-name="space" unicode=" " horiz-adv-x="257" 
 />
    <glyph glyph-name="exclam" unicode="!" horiz-adv-x="316" 
d="M112 210l-4 460h81l-5 -460h-72zM101 100h95v-100h-95v100z" />
    <glyph glyph-name="quotedbl" unicode="&#x22;" horiz-adv-x="429" 
d="M96 720h78l-26 -251h-52v251zM268 720h79l-27 -251h-52v251z" />
    <glyph glyph-name="numbersign" unicode="#" horiz-adv-x="778" 
d="M724 493l-20 -65h-135l-56 -186h136l-19 -65h-136l-53 -177h-70l53 177h-167l-53 -177h-71l53 177h-132l20 65h131l56 186h-132l19 65h132l53 177h71l-53 -177h167l53 177h70l-53 -177h136zM276 242h167l56 186h-167z" />
    <glyph glyph-name="dollar" unicode="$" horiz-adv-x="665" 
d="M234 412l215.999 -57c46 -12.667 80.833 -34.667 104.5 -66s34.834 -65.333 33.501 -102c-2 -42 -19.667 -78.667 -53 -110s-77 -47 -131 -47h-31v-96h-76v96h-196v75h303c30.667 0 55.334 8.33301 74.001 25s28.667 36.667 30 60c0.666992 20 -5.83301 38.667 -19.5 56
s-33.5 29.666 -59.5 36.999l-217 57c-43.333 12 -76.333 32.333 -99 61s-33.334 60.334 -32.001 95.001c1.33301 41.333 18.166 77.333 50.499 108s75.166 46 128.499 46h37v97h76v-97h174v-73h-287c-28.667 0 -52.167 -7.5 -70.5 -22.5s-28.166 -34.167 -29.499 -57.5
c-0.666992 -19.333 5.33301 -36.833 18 -52.5s31.334 -26.5 56.001 -32.5z" />
    <glyph glyph-name="percent" unicode="%" horiz-adv-x="849" 
d="M232 362c-46 0 -84.499 15.5 -115.499 46.5s-46.5 69.5 -46.5 115.5c0 44.667 15.667 82.667 47 114s69.666 47 114.999 47s83.5 -15.667 114.5 -47s46.5 -69.333 46.5 -114c0 -46 -15.5 -84.5 -46.5 -115.5s-69.167 -46.5 -114.5 -46.5zM155.001 0l470 670h72l-470 -670
h-72zM232.001 425c27.333 0 50.5 9.66699 69.5 29s28.5 42.666 28.5 69.999c0 26 -9.66699 48.667 -29 68s-42.333 29 -69 29s-49.5 -9.66699 -68.5 -29s-28.5 -42 -28.5 -68c0 -27.333 9.5 -50.666 28.5 -69.999s41.833 -29 68.5 -29zM618.001 -15
c-46 0 -84.5 15.667 -115.5 47s-46.5 69.666 -46.5 114.999c0 44.667 15.5 82.667 46.5 114s69.5 47 115.5 47c45.333 0 83.5 -15.667 114.5 -47s46.5 -69.333 46.5 -114c0 -45.333 -15.5 -83.666 -46.5 -114.999s-69.167 -47 -114.5 -47zM618.001 49
c27.333 0 50.668 9.5 70.001 28.5s29 42.167 29 69.5c0 26.667 -9.83301 49.667 -29.5 69s-42.834 29 -69.501 29s-49.5 -9.66699 -68.5 -29s-28.5 -42.333 -28.5 -69c0 -27.333 9.33301 -50.5 28 -69.5s41.667 -28.5 69 -28.5z" />
    <glyph glyph-name="ampersand" unicode="&#x26;" horiz-adv-x="810" 
d="M570 186l179 -186h-100l-138 142l-161 -117c-44.667 -31.333 -90.667 -43.5 -138 -36.5s-84.666 29.5 -111.999 67.5c-26 36 -35 77.167 -27 123.5s32 84.166 72 113.499l129 93l-88 90c-24 28 -36.167 56.5 -36.5 85.5s11.167 54.333 34.5 76s52.666 32.5 87.999 32.5
h270v-72h-274c-20 0 -33.5 -8.16699 -40.5 -24.5s-3.5 -31.166 10.5 -44.499l281 -291l187 136v-89zM308 83l152 111l-137 141l-131 -95c-23.333 -18 -37.5 -40.333 -42.5 -67s-0.166992 -50.334 14.5 -71.001c15.333 -22.667 36.333 -36.167 63 -40.5
s53.667 2.83398 81 21.501z" />
    <glyph glyph-name="quotesingle" unicode="'" horiz-adv-x="257" 
d="M96 720h78l-26 -251h-52v251z" />
    <glyph glyph-name="parenleft" unicode="(" horiz-adv-x="276" 
d="M261 -200l-71 -0.000976562c-91.333 144.667 -137 298 -137 460s45.667 315.333 137 460h71c-90.667 -149.333 -136 -302.666 -136 -459.999c0 -156.667 45.333 -310 136 -460z" />
    <glyph glyph-name="parenright" unicode=")" horiz-adv-x="276" 
d="M86 -200l-71 0.00195312c91.333 149.333 137 302.666 137 459.999c0 159.333 -45.667 312.666 -137 459.999h71c91.333 -142.667 137 -296 137 -460s-45.667 -317.333 -137 -460z" />
    <glyph glyph-name="asterisk" unicode="*" horiz-adv-x="477" 
d="M372 609l27 -48l-118 -61l118 -61l-27 -48l-111 71l5 -132h-55l5 133l-111 -72l-27 48l117 61l-117 61l27 48l111 -72l-5 133h55l-5 -132z" />
    <glyph glyph-name="plus" unicode="+" horiz-adv-x="609" 
d="M340 356h198v-71h-198v-198h-71v198h-197v71h197v197h71v-197z" />
    <glyph glyph-name="comma" unicode="," horiz-adv-x="309" 
d="M149 120h89l-90 -251h-73z" />
    <glyph glyph-name="hyphen" unicode="-" horiz-adv-x="499" 
d="M79 241v69h340v-69h-340z" />
    <glyph glyph-name="period" unicode="." horiz-adv-x="288" 
d="M97 100h95v-100h-95v100z" />
    <glyph glyph-name="slash" unicode="/" horiz-adv-x="492" 
d="M18 -200l388 1000h68l-388 -1000h-68z" />
    <glyph glyph-name="zero" unicode="0" horiz-adv-x="655" 
d="M71 245l0.000976562 180.001c0 73.333 24.333 134.666 73 183.999s109.667 74 183 74s134.666 -24.833 183.999 -74.5s74 -111.167 74 -184.5v-179c0 -73.333 -24.667 -134.666 -74 -183.999s-110.333 -74 -183 -74c-73.333 0 -134.5 24.667 -183.5 74
s-73.5 110.666 -73.5 183.999zM148.001 425.001v-180.001c0 -52 17 -95.5 51 -130.5s77 -52.5 129 -52.5s95 17.333 129 52s51 78.334 51 131.001v179c0 53.333 -17 97.5 -51 132.5s-77.333 52.5 -130 52.5c-52 0 -94.833 -17.5 -128.5 -52.5s-50.5 -78.833 -50.5 -131.5z
" />
    <glyph glyph-name="one" unicode="1" horiz-adv-x="381" 
d="M286 670v-670h-77v595h-170v75h247z" />
    <glyph glyph-name="two" unicode="2" horiz-adv-x="554" 
d="M429 365l-270 -290h341v-75h-453v58l329 356c25.333 25.333 38 55 38 89c0 27.333 -9.83301 49.5 -29.5 66.5s-45.5 25.5 -77.5 25.5h-250v75h252c53.333 0 97 -15.333 131 -46s51 -70 51 -118c0 -50.667 -20.667 -97.667 -62 -141z" />
    <glyph glyph-name="three" unicode="3" horiz-adv-x="571" 
d="M285 384l38.001 0.000976562c55.333 0 101.833 -18.167 139.5 -54.5s56.5 -81.5 56.5 -135.5s-18.833 -99.833 -56.5 -137.5s-84.167 -56.5 -139.5 -56.5h-273v75h270c33.333 0 61.666 11.5 84.999 34.5s35 51.167 35 84.5s-11.5 61.666 -34.5 84.999s-51.5 35 -85.5 35
h-143v55l203 226h-330v75h437v-57z" />
    <glyph glyph-name="four" unicode="4" horiz-adv-x="627" 
d="M487 245h100v-71h-100v-174h-76v174h-370v54l343 442h103v-425zM411 589l-267 -344h267v344z" />
    <glyph glyph-name="five" unicode="5" horiz-adv-x="580" 
d="M147 391h181.999c61.333 0 110 -19 146 -57s54 -84 54 -138c0 -53.333 -18.167 -99.333 -54.5 -138s-84.833 -58 -145.5 -58h-258v75h256c36.667 0 66.167 11.667 88.5 35s33.833 52 34.5 86c0 33.333 -11.167 62 -33.5 86s-52.166 36 -89.499 36h-261l40 352h373v-75
h-309z" />
    <glyph glyph-name="six" unicode="6" horiz-adv-x="621" 
d="M57 207c0 17.333 1.99902 34 5.99902 50l67 306c14 71.333 62 107 144 107h220v-75h-219c-41.333 0 -65.666 -18 -72.999 -54l-39 -168h3c46 35.333 99.667 53 161 53c73.333 0.666992 132.5 -18.833 177.5 -58.5s67.5 -92.5 67.5 -158.5s-24 -119.333 -72 -160
s-109.333 -61 -184 -61c-78 0 -140.667 20 -188 60s-71 93 -71 159zM132.999 207c0 -45.333 15.999 -80.835 47.999 -106.502s77 -38.5 135 -38.5c54 0 97.333 13.333 130 40s49 62.334 49 107.001s-16.5 80 -49.5 106s-76.167 39 -129.5 39
c-55.333 0 -99.666 -13.167 -132.999 -39.5s-50 -62.166 -50 -107.499z" />
    <glyph glyph-name="seven" unicode="7" horiz-adv-x="533" 
d="M39 595v75h452v-58l-282 -612h-85l278 595h-363z" />
    <glyph glyph-name="eight" unicode="8" horiz-adv-x="645" 
d="M60 186c0 38.667 11.333 72.499 34 101.499s54.334 50.167 95.001 63.5v2c-35.333 13.333 -62.833 33 -82.5 59s-29.5 56.333 -29.5 91c0 56 23 100 69 132s104.667 48 176 48s130.166 -16 176.499 -48s69.5 -76 69.5 -132c0 -34 -9.83301 -64.167 -29.5 -90.5
s-47.5 -46.166 -83.5 -59.499v-2c40.667 -13.333 72.5 -34.5 95.5 -63.5s34.5 -62.833 34.5 -101.5c0 -60.667 -25 -108.834 -75 -144.501s-112.667 -53.5 -188 -53.5c-74.667 0 -137 17.833 -187 53.5s-75 83.834 -75 144.501zM154 497.999
c0 -34.667 15.668 -61.5 47.001 -80.5s71.666 -28.833 120.999 -29.5c49.333 0 89.833 9.66699 121.5 29s47.5 46.333 47.5 81c0 35.333 -15.667 62.666 -47 81.999s-72 29 -122 29s-90.5 -9.66699 -121.5 -29s-46.5 -46.666 -46.5 -81.999zM137.001 188.999
c0 -39.333 17.333 -70.333 52 -93s79 -34 133 -34c54.667 0 99.334 11.333 134.001 34s52 53.667 52 93s-17.333 70 -52 92s-79.334 33 -134.001 33s-99.167 -11 -133.5 -33s-51.5 -52.667 -51.5 -92z" />
    <glyph glyph-name="nine" unicode="9" horiz-adv-x="622" 
d="M564 463c0 -12.667 -2 -29.001 -6 -49.001l-67 -307c-15.333 -71.333 -63.333 -107 -144 -107h-220v75h218c41.333 0 66 18.333 74 55l38 167h-2c-46 -35.333 -99.667 -53 -161 -53c-74 -0.666992 -133.333 18.833 -178 58.5s-67 92.5 -67 158.5
c0 66.667 24 120.334 72 161.001s109.333 61 184 61c78 0 140.667 -20.167 188 -60.5s71 -93.5 71 -159.5zM487 462.999c0 45.333 -16 80.833 -48 106.5s-76.667 38.5 -134 38.5c-54 0 -97.5 -13.167 -130.5 -39.5s-49.5 -62.166 -49.5 -107.499
c0 -44.667 16.5 -80 49.5 -106s76.5 -39 130.5 -39c55.333 0 99.5 13.167 132.5 39.5s49.5 62.166 49.5 107.499z" />
    <glyph glyph-name="colon" unicode=":" horiz-adv-x="303" 
d="M93 493h95v-100h-95v100zM93 100h95v-100h-95v100z" />
    <glyph glyph-name="semicolon" unicode=";" horiz-adv-x="298" 
d="M89 493h95v-100h-95v100zM107 120h89l-90 -251h-72z" />
    <glyph glyph-name="less" unicode="&#x3c;" horiz-adv-x="602" 
d="M518 94l-446 184v71l446 197v-75l-347 -154v-2l347 -146v-75z" />
    <glyph glyph-name="equal" unicode="=" horiz-adv-x="704" 
d="M119 388v71h466v-71h-466zM119 181v71h466v-71h-466z" />
    <glyph glyph-name="greater" unicode="&#x3e;" horiz-adv-x="602" 
d="M530 349v-71l-446 -184v75l348 146v2l-348 154v75z" />
    <glyph glyph-name="question" unicode="?" horiz-adv-x="528" 
d="M37 670l234.999 -0.000976562c58.667 0 104.334 -17.333 137.001 -52s49 -76 49 -124s-16.333 -89.333 -49 -124s-78.667 -52 -138 -52h-56v-108h-75v177h132c34.667 0 61.667 10.5 81 31.5s29 45.833 29 74.5s-9.66699 53.334 -29 74.001s-46.333 31 -81 31h-235v72z
M224.999 -0.000976562h-95v100h95v-100z" />
    <glyph glyph-name="at" unicode="@" horiz-adv-x="1031" 
d="M308 670l427 -0.000976562c58.667 0 107.334 -19 146.001 -57s58 -86 58 -144v-302c0 -44 -13.333 -78.167 -40 -102.5s-58.334 -36.5 -95.001 -36.5c-30 0 -57.167 8.33301 -81.5 25s-40.833 40.667 -49.5 72c-37.333 -64.667 -94.333 -97 -171 -97
c-62.667 0 -114.667 21 -156 63s-62 95.667 -62 161c0 64.667 20.833 117.834 62.5 159.501s93.5 62.5 155.5 62.5c72 0 127.333 -28.333 166 -85v74h69v-300c0 -23.333 6.5 -41.166 19.5 -53.499s28.833 -18.5 47.5 -18.5c18 0 33.5 6.16699 46.5 18.5
s19.5 30.166 19.5 53.499v301c0 39.333 -13.333 72.333 -40 99s-60 40 -100 40h-416c-40.667 0 -74.334 -13.333 -101.001 -40s-40 -59.667 -40 -99v-421c0 -39.333 13.333 -72.333 40 -99s60.334 -40 101.001 -40h423v-68h-429c-58.667 0 -107.334 18.833 -146.001 56.5
s-58 85.167 -58 142.5v434c0 58 19.333 106 58 144s87.334 57 146.001 57zM510 93.999c46.667 0 84.667 15.335 114 46.002s44 68 44 112c0 43.333 -14.667 80.166 -44 110.499s-67 45.5 -113 45.5s-84 -14.833 -114 -44.5s-45 -66.834 -45 -111.501
s14.833 -82.167 44.5 -112.5s67.5 -45.5 113.5 -45.5z" />
    <glyph glyph-name="A" unicode="A" horiz-adv-x="749" 
d="M709 0h-86l-84 195h-330l-83 -195h-86l293 670h82zM373 579l-132 -310h266z" />
    <glyph glyph-name="B" unicode="B" horiz-adv-x="708" 
d="M541 352v-3.00195c32.667 -13.333 58.167 -34.166 76.5 -62.499s27.5 -60.833 27.5 -97.5c0 -53.333 -18.333 -98.166 -55 -134.499s-82.667 -54.5 -138 -54.5h-353v670h340c52 0 95.833 -16.5 131.5 -49.5s53.5 -75.5 53.5 -127.5c0 -65.333 -27.667 -112.333 -83 -141z
M436 594.998l-260 0.000976562v-215h260c31.333 0 57.666 10.167 78.999 30.5s32 45.833 32 76.5c0 31.333 -10.667 57.166 -32 77.499s-47.666 30.5 -78.999 30.5zM176 75.999h276c33.333 0 60.833 10.667 82.5 32s32.5 48.333 32.5 81c0 34 -11.167 62 -33.5 84
s-50.5 33 -84.5 33h-273v-230z" />
    <glyph glyph-name="C" unicode="C" horiz-adv-x="785" 
d="M647 244l81 -0.000976562c-18 -76 -56.667 -137.667 -116 -185s-130 -71 -212 -71c-100 0 -181.833 33.5 -245.5 100.5s-95.5 149.167 -95.5 246.5c0 96.667 31.833 178.834 95.5 246.501s145.5 101.5 245.5 101.5c81.333 0 151.5 -23.333 210.5 -70
s97.833 -107.334 116.5 -182.001h-81c-16.667 52 -47 94.5 -91 127.5s-95.333 49.5 -154 49.5c-76.667 0 -140 -26.667 -190 -80s-75 -117.666 -75 -192.999c0 -76 25 -140.5 75 -193.5s113.333 -79.5 190 -79.5c60.667 0 113.167 17 157.5 51s73.833 77.667 88.5 131z" />
    <glyph glyph-name="D" unicode="D" horiz-adv-x="754" 
d="M99 1v669h262c95.333 0 174.5 -31.5 237.5 -94.5s94.5 -142.5 94.5 -238.5v-3c0 -96 -31.5 -175.5 -94.5 -238.5s-142.167 -94.5 -237.5 -94.5h-262zM360 595l-184 0.00195312v-519h184c74 0 135.167 24.167 183.5 72.5s72.5 110.166 72.5 185.499v3
c0 75.333 -24.167 137.166 -72.5 185.499s-109.5 72.5 -183.5 72.5z" />
    <glyph glyph-name="E" unicode="E" horiz-adv-x="648" 
d="M588 0h-489v670h489v-75h-412v-212h382v-75h-382v-233h412v-75z" />
    <glyph glyph-name="F" unicode="F" horiz-adv-x="631" 
d="M582 670v-75h-406v-217h376v-74h-376v-304h-77v670h483z" />
    <glyph glyph-name="G" unicode="G" horiz-adv-x="804" 
d="M406 268l-0.00292969 74.001h343c-0.666992 -104 -33.167 -189 -97.5 -255s-146.166 -99 -245.499 -99s-181.666 33.667 -246.999 101s-98 149.333 -98 246c0 97.333 32.5 179.666 97.5 246.999s147.5 101 247.5 101c78.667 0 147.667 -21.833 207 -65.5
s99.666 -100.167 120.999 -169.5h-83c-19.333 46.667 -51 85 -95 115s-94.333 45 -151 45c-77.333 0 -141.166 -26.333 -191.499 -79s-75.5 -117 -75.5 -193s25.5 -140.5 76.5 -193.5s115.167 -79.833 192.5 -80.5c66 -0.666992 122.333 18 169 56s76.334 88 89.001 150
h-259z" />
    <glyph glyph-name="H" unicode="H" horiz-adv-x="765" 
d="M589 385v285h76v-670h-76v310h-413v-310h-77v670h77v-285h413z" />
    <glyph glyph-name="I" unicode="I" horiz-adv-x="275" 
d="M99 0v670h77v-670h-77z" />
    <glyph glyph-name="J" unicode="J" horiz-adv-x="488" 
d="M316 670h77.001v-540c0 -40 -11.5 -71.667 -34.5 -95s-54.833 -35 -95.5 -35h-220v75h213c19.333 0 34.166 5.33301 44.499 16s15.5 25.667 15.5 45v534z" />
    <glyph glyph-name="K" unicode="K" horiz-adv-x="731" 
d="M497 383h27c78.667 0 118 -38.667 118 -116v-267h-76v255c0 36 -18.667 54 -56 54h-334v-309h-77v670h77v-287h239l150 287h85z" />
    <glyph glyph-name="L" unicode="L" horiz-adv-x="606" 
d="M99 0v670h78v-595h386v-75h-464z" />
    <glyph glyph-name="M" unicode="M" horiz-adv-x="912" 
d="M813 670v-670h-77v552l-247 -552h-67l-246 551v-551h-77v670h105l253 -565l253 565h103z" />
    <glyph glyph-name="N" unicode="N" horiz-adv-x="788" 
d="M612 130v540h76v-670h-76l-436 571v-571h-77v670h95z" />
    <glyph glyph-name="O" unicode="O" horiz-adv-x="818" 
d="M409 -12c-101.333 0 -184.665 33.5 -249.998 100.5s-98 149.167 -98 246.5s32.667 179.666 98 246.999s148.666 101 249.999 101s184.666 -33.667 249.999 -101s98 -149.666 98 -246.999s-32.5 -179.5 -97.5 -246.5s-148.5 -100.5 -250.5 -100.5zM409.001 62
c79.333 0 144.333 26.5 195 79.5s76 117.5 76 193.5s-25.5 140.5 -76.5 193.5s-115.833 79.5 -194.5 79.5s-143.5 -26.5 -194.5 -79.5s-76.5 -117.5 -76.5 -193.5s25.5 -140.5 76.5 -193.5s115.833 -79.5 194.5 -79.5z" />
    <glyph glyph-name="P" unicode="P" horiz-adv-x="683" 
d="M404 670c66 0 120 -20.501 162 -61.501s63 -91.167 63 -150.5s-21.167 -109.166 -63.5 -149.499s-96.5 -60.5 -162.5 -60.5h-227v-248h-77v670h305zM176 320.999h226c44.667 0 80.667 13 108 39s41 58.667 41 98c0 38.667 -13.667 71.167 -41 97.5
s-63.333 39.5 -108 39.5h-226v-274z" />
    <glyph glyph-name="Q" unicode="Q" horiz-adv-x="833" 
d="M600 71v-1.99902h171v-74h-364c-100.667 0 -183.667 33.5 -249 100.5s-98 147.833 -98 242.5c0 95.333 32.5 176.666 97.5 243.999s148.5 101 250.5 101c101.333 0 184.5 -33.333 249.5 -100s97.5 -146.667 97.5 -240c0 -58.667 -13.833 -112.5 -41.5 -161.5
s-65.5 -85.833 -113.5 -110.5zM138 338.001c0 -74 25.333 -137.333 76 -190s115 -79 193 -79c78.667 0 143.334 26.333 194.001 79s76 116 76 190c0 74.667 -25.333 138.334 -76 191.001s-115.334 79 -194.001 79s-143.167 -26.333 -193.5 -79
s-75.5 -116.334 -75.5 -191.001z" />
    <glyph glyph-name="R" unicode="R" horiz-adv-x="738" 
d="M176 0l-77 0.000976562v670h331c64.667 0 116.667 -17.333 156 -52s59 -79.667 59 -135c0 -64.667 -25.333 -113.334 -76 -146.001v-2c56 -8.66699 84 -45.667 84 -111v-224h-76v210c0 36 -19.333 54 -58 54h-343v-264zM176 595.001l-0.000976562 -256.999h250
c42.667 0 76.834 12 102.501 36s38.5 54.667 38.5 92s-13 68.166 -39 92.499s-59.667 36.5 -101 36.5h-251z" />
    <glyph glyph-name="S" unicode="S" horiz-adv-x="661" 
d="M238 670l325.001 -0.00390625v-75h-321c-30.667 0 -55.167 -9.16699 -73.5 -27.5s-27.5 -40.166 -27.5 -65.499c0 -20.667 6.5 -39.5 19.5 -56.5s31.5 -28.5 55.5 -34.5l250 -62c45.333 -11.333 80 -33.166 104 -65.499s36 -67.5 36 -105.5
c0 -48 -16.667 -89.667 -50 -125s-79 -53 -137 -53h-339v75h336c32.667 0 58.667 10.167 78 30.5s29 43.833 29 70.5c0 21.333 -7 41.333 -21 60s-33.667 31.334 -59 38.001l-251 62c-43.333 10.667 -76.5 31.334 -99.5 62.001s-34.5 64.667 -34.5 102
c0 45.333 16.167 85 48.5 119s76.166 51 131.499 51z" />
    <glyph glyph-name="T" unicode="T" horiz-adv-x="661" 
d="M43 670h575v-75h-250v-595h-76v595h-249v75z" />
    <glyph glyph-name="U" unicode="U" horiz-adv-x="739" 
d="M85 279l0.000976562 391h77v-387c0 -65.333 19.333 -118.5 58 -159.5s88.667 -61.5 150 -61.5s111.166 20.333 149.499 61s57.5 94 57.5 160v387h77v-391c0 -88.667 -26.5 -159.5 -79.5 -212.5s-121.5 -79.5 -205.5 -79.5s-152.333 26.833 -205 80.5
s-79 124.167 -79 211.5z" />
    <glyph glyph-name="V" unicode="V" horiz-adv-x="748" 
d="M376 91l249 579h83l-291 -670h-85l-292 670h86z" />
    <glyph glyph-name="W" unicode="W" horiz-adv-x="1010" 
d="M711 122l172 548h83l-212 -670h-83l-166 544l-166 -544h-83l-212 670h84l171 -549l165 549h82z" />
    <glyph glyph-name="X" unicode="X" horiz-adv-x="696" 
d="M394 339l257 -339h-100l-203 277l-204 -277h-99l257 339l-252 331h101l197 -269l201 269h94z" />
    <glyph glyph-name="Y" unicode="Y" horiz-adv-x="714" 
d="M585 670h92l-282 -379v-291h-77v288l-281 382h94l227 -310z" />
    <glyph glyph-name="Z" unicode="Z" horiz-adv-x="621" 
d="M554 612l-396 -537h413v-75h-519v58l396 537h-387v75h493v-58z" />
    <glyph glyph-name="bracketleft" unicode="[" horiz-adv-x="286" 
d="M276 720v-72h-132v-776h132v-72h-206v920h206z" />
    <glyph glyph-name="backslash" unicode="\" horiz-adv-x="492" 
d="M0 800h68l388 -1000h-68z" />
    <glyph glyph-name="bracketright" unicode="]" horiz-adv-x="286" 
d="M10 720h206v-920h-206v72h132v776h-132v72z" />
    <glyph glyph-name="asciicircum" unicode="^" horiz-adv-x="513" 
d="M295 670l150 -252h-79l-109 192l-110 -192h-79l150 252h77z" />
    <glyph glyph-name="underscore" unicode="_" horiz-adv-x="759" 
d="M79 -200v53h600v-53h-600z" />
    <glyph glyph-name="grave" unicode="`" horiz-adv-x="255" 
d="M56 720h84l95 -142h-82z" />
    <glyph glyph-name="a" unicode="a" horiz-adv-x="648" 
d="M494 405l0.000976562 88.002h74v-493h-74v92h-3c-43.333 -69.333 -107.666 -104.333 -192.999 -105c-72.667 -0.666992 -132.834 23.666 -180.501 72.999s-71.5 111.666 -71.5 186.999s23.667 137.5 71 186.5s108 73.167 182 72.5c42 -0.666992 79.667 -10 113 -28
s59.666 -42.333 78.999 -73h3zM309.001 59.002c54 0 98.333 18.333 133 55s52 81 52 133c0 52.667 -17.167 97 -51.5 133s-78.833 54 -133.5 54c-56 0 -101.333 -18 -136 -54s-52 -80.333 -52 -133s17.333 -97.167 52 -133.5s80 -54.5 136 -54.5z" />
    <glyph glyph-name="b" unicode="b" horiz-adv-x="648" 
d="M349 506c72.667 0.666992 132.832 -23.6689 180.499 -73.002s71.5 -111.666 71.5 -186.999c0 -74.667 -23.667 -136.667 -71 -186s-107.666 -73.666 -180.999 -72.999c-42 0.666992 -79.667 10 -113 28s-60 42.333 -80 73h-2v-88h-75v720h75v-319h2
c20 32 46.667 57.5 80 76.5s71 28.5 113 28.5zM338.998 58.9971c55.333 0 100.333 18 135 54s52 80.333 52 133s-17.333 97.167 -52 133.5s-79.667 54.5 -135 54.5c-54.667 0 -99.167 -18.167 -133.5 -54.5s-51.5 -80.833 -51.5 -133.5s17.167 -97 51.5 -133
s78.833 -54 133.5 -54z" />
    <glyph glyph-name="c" unicode="c" horiz-adv-x="596" 
d="M554 317h-78.0029c-11.333 34 -32.166 62 -62.499 84s-66.166 33 -107.499 33c-54 0 -98.333 -18 -133 -54s-52 -80.333 -52 -133s17.333 -97.167 52 -133.5s79 -54.5 133 -54.5c40.667 0 76.334 11.167 107.001 33.5s51.667 51.166 63 86.499h78
c-12 -56 -40.833 -102 -86.5 -138s-99.5 -54 -161.5 -54c-76 0 -138.333 25 -187 75s-73 111.667 -73 185s24.333 134.833 73 184.5s111 74.5 187 74.5c62 0 115.833 -17.667 161.5 -53s74.5 -80.666 86.5 -135.999z" />
    <glyph glyph-name="d" unicode="d" horiz-adv-x="648" 
d="M494 401l-0.000976562 319.003h74v-720h-74v88h-3c-19.333 -30.667 -45.666 -55 -78.999 -73s-71 -27.333 -113 -28c-73.333 -0.666992 -133.833 23.666 -181.5 72.999s-71.5 111.333 -71.5 186c0 75.333 24 137.666 72 186.999s108 73.666 180 72.999
c42 0 79.667 -9.5 113 -28.5s60 -44.5 80 -76.5h3zM308.999 59.0029c54.667 0 99.167 18 133.5 54s51.5 80.333 51.5 133s-17.167 97.167 -51.5 133.5s-78.833 54.5 -133.5 54.5c-56 0 -101.333 -18.167 -136 -54.5s-52 -80.833 -52 -133.5s17.333 -97 52 -133
s80 -54 136 -54z" />
    <glyph glyph-name="e" unicode="e" horiz-adv-x="599" 
d="M301 506c77.333 0 139.666 -27 186.999 -81s68.666 -122.333 63.999 -205h-427c3.33301 -46 21.666 -84.333 54.999 -115s75 -46 125 -46c36.667 0 69.334 8.5 98.001 25.5s49.334 39.833 62.001 68.5h78c-16.667 -50.667 -46.667 -91 -90 -121s-93.666 -45 -150.999 -45
c-76 0 -137.667 25 -185 75s-71 111.333 -71 184s24 134.167 72 184.5s109 75.5 183 75.5zM299 434c-46 0 -84.833 -13.8311 -116.5 -41.498s-50.167 -62.834 -55.5 -105.501h345c-6.66699 43.333 -25.667 78.666 -57 105.999s-70 41 -116 41z" />
    <glyph glyph-name="f" unicode="f" horiz-adv-x="453" 
d="M427 648l-179.999 0.000976562c-36.667 0 -55 -18.333 -55 -55v-100h235v-72h-235v-421h-75v421h-90v72h90v110c0 35.333 10.667 63.666 32 84.999s49.666 32 84.999 32h193v-72z" />
    <glyph glyph-name="g" unicode="g" horiz-adv-x="648" 
d="M494 405l0.000976562 88.002h74v-541c0 -48.667 -13 -86.167 -39 -112.5s-63.333 -39.5 -112 -39.5h-308v73h301c55.333 0 83 28 83 84l1 90v45h-3c-43.333 -69.333 -107.666 -104.333 -192.999 -105c-72.667 -0.666992 -132.834 23.666 -180.501 72.999
s-71.5 111.666 -71.5 186.999s23.667 137.5 71 186.5s108 73.167 182 72.5c42 -0.666992 79.667 -10 113 -28s59.666 -42.333 78.999 -73h3zM309.001 59.002c54 0 98.333 18.333 133 55s52 81 52 133c0 52.667 -17.167 97 -51.5 133s-78.833 54 -133.5 54
c-56 0 -101.333 -18 -136 -54s-52 -80.333 -52 -133s17.333 -97.167 52 -133.5s80 -54.5 136 -54.5z" />
    <glyph glyph-name="h" unicode="h" horiz-adv-x="613" 
d="M338 506c62 0 111.999 -19.8311 149.999 -59.498s57 -92.834 57 -159.501v-287h-75v274c0 47.333 -13.167 85.666 -39.5 114.999s-61.833 44 -106.5 44c-49.333 0 -90 -17.667 -122 -53s-48 -80 -48 -134v-246h-75v720h75v-313h2c42.667 66 103.334 99 182.001 99z" />
    <glyph glyph-name="i" unicode="i" horiz-adv-x="234" 
d="M79 720h75v-142h-75v142zM79 493h75v-493h-75v493z" />
    <glyph glyph-name="j" unicode="j" horiz-adv-x="252" 
d="M98 720h75v-142h-75v142zM98 493l75 0.000976562v-578c0 -37.333 -10.167 -65.833 -30.5 -85.5s-49.5 -29.5 -87.5 -29.5h-112v74h100c17.333 0 30.833 4.66699 40.5 14s14.5 22.666 14.5 39.999v565z" />
    <glyph glyph-name="k" unicode="k" horiz-adv-x="586" 
d="M398 301h6.00098c37.333 0 66.166 -9.83301 86.499 -29.5s30.5 -48.167 30.5 -85.5v-186h-75v176c0 36 -18.333 54 -55 54h-237v-230h-75v720h75v-419h159l129 192h83z" />
    <glyph glyph-name="l" unicode="l" horiz-adv-x="315" 
d="M75 119v600.999h75v-593c0 -17.333 4.83301 -30.666 14.5 -39.999s23.167 -14 40.5 -14h83v-73h-92c-39.333 -0 -69.333 10.333 -90 31s-31 50 -31 88z" />
    <glyph glyph-name="m" unicode="m" horiz-adv-x="901" 
d="M647 505c57.333 0 102.499 -18.667 135.499 -56s49.5 -86.333 49.5 -147v-302h-75v295c0 42 -11.167 75.5 -33.5 100.5s-52.833 37.5 -91.5 37.5c-40 0 -73.167 -15.333 -99.5 -46s-39.5 -69.667 -39.5 -117v-270h-75v295c0 42.667 -11.167 76.5 -33.5 101.5
s-52.5 37.167 -90.5 36.5c-43.333 -0.666992 -77.5 -18.834 -102.5 -54.501s-37.5 -76.5 -37.5 -122.5v-256h-75v493h73v-84h2c16 28.667 37.333 51.834 64 69.501s57.334 26.5 92.001 26.5c38 0 71.167 -9.5 99.5 -28.5s49.5 -44.833 63.5 -77.5h2
c16 32 38.667 57.667 68 77s64 29 104 29z" />
    <glyph glyph-name="n" unicode="n" horiz-adv-x="613" 
d="M338 506c62 0 112 -19.832 150 -59.499s57 -92.834 57 -159.501v-287h-75v274c0 47.333 -13.167 85.666 -39.5 114.999s-61.833 44 -106.5 44c-49.333 0 -90 -17.667 -122 -53s-48 -80 -48 -134v-246h-75v493h74v-86h2c19.333 30.667 45 54.834 77 72.501
s67.333 26.5 106 26.5z" />
    <glyph glyph-name="o" unicode="o" horiz-adv-x="616" 
d="M310 -13c-77.333 0 -140.834 25.167 -190.501 75.5s-74.5 111.833 -74.5 184.5c0 73.333 24.667 134.833 74 184.5s113 74.5 191 74.5c76.667 0 139.334 -24.833 188.001 -74.5s73 -111.167 73 -184.5c0 -72.667 -24.5 -134.167 -73.5 -184.5s-111.5 -75.5 -187.5 -75.5z
M309.999 59c54.667 0 99.334 18.333 134.001 55s52 81 52 133c0 52.667 -17.333 97 -52 133s-79.334 54 -134.001 54c-56 0 -101.5 -18 -136.5 -54s-52.5 -80.333 -52.5 -133s17.5 -97.167 52.5 -133.5s80.5 -54.5 136.5 -54.5z" />
    <glyph glyph-name="p" unicode="p" horiz-adv-x="648" 
d="M349 506c73.333 0.666992 133.668 -23.502 181.001 -72.502s71 -111.167 71 -186.5s-23.833 -137.666 -71.5 -186.999s-107.834 -73.666 -180.501 -72.999c-42 0.666992 -79.667 10.5 -113 29.5s-60 44.167 -80 75.5h-2v-292h-75v693h75v-88h2c20 30.667 46.667 55 80 73
s71 27.333 113 28zM339.002 58.998c55.333 0 100.333 18.167 135 54.5s52 80.833 52 133.5s-17.333 97 -52 133s-79.667 54 -135 54c-54.667 0 -99.167 -18 -133.5 -54s-51.5 -80.333 -51.5 -133c0 -52 17.333 -96.333 52 -133s79 -55 133 -55z" />
    <glyph glyph-name="q" unicode="q" horiz-adv-x="648" 
d="M494 405l0.00195312 88.002h74v-693h-74v292h-3c-20 -31.333 -46.667 -56.5 -80 -75.5s-71 -28.833 -113 -29.5c-72.667 -0.666992 -132.834 23.666 -180.501 72.999s-71.5 111.666 -71.5 186.999s23.667 137.5 71 186.5s108 73.167 182 72.5
c42 -0.666992 79.667 -10 113 -28s59.666 -42.333 78.999 -73h3zM309.002 59.002c54 0 98.333 18.333 133 55s52 81 52 133c0 52.667 -17.167 97 -51.5 133s-78.833 54 -133.5 54c-56 0 -101.333 -18 -136 -54s-52 -80.333 -52 -133s17.333 -97.167 52 -133.5
s80 -54.5 136 -54.5z" />
    <glyph glyph-name="r" unicode="r" horiz-adv-x="440" 
d="M326 493h87v-75h-90c-52 0 -93.167 -16 -123.5 -48s-45.5 -77 -45.5 -135v-235h-75v493h73v-98h3c28 65.333 85 98 171 98z" />
    <glyph glyph-name="s" unicode="s" horiz-adv-x="528" 
d="M183 493l270 0.000976562v-72h-269c-18.667 0 -33.5 -5.16699 -44.5 -15.5s-16.5 -23.833 -16.5 -40.5c0 -13.333 4.16699 -25.333 12.5 -36s19.5 -17.334 33.5 -20.001l208 -46c34 -8 60.833 -23.667 80.5 -47s29.5 -51 29.5 -83c0 -38.667 -13.167 -70.5 -39.5 -95.5
s-60.166 -37.5 -101.499 -37.5h-284v73h283c18.667 0 34 5.5 46 16.5s18 25.5 18 43.5c0 31.333 -16.333 50.666 -49 57.999l-208 46c-32.667 6.66699 -58.834 21.834 -78.501 45.501s-29.5 50.834 -29.5 81.501c0 37.333 13 68.166 39 92.499s59.333 36.5 100 36.5z" />
    <glyph glyph-name="t" unicode="t" horiz-adv-x="467" 
d="M427 493v-72h-235v-293c0 -36.667 18.333 -55 55 -55h180v-73h-193c-38 0 -67 10 -87 30s-30 48.667 -30 86v305h-90v72h90v177h75v-177h235z" />
    <glyph glyph-name="u" unicode="u" horiz-adv-x="591" 
d="M66 218v274.999h75v-273c0 -47.333 14.333 -86.166 43 -116.499s65.667 -45.5 111 -45.5c46 0 83.167 15 111.5 45s42.5 69 42.5 117v273h75v-275c0 -70 -21.167 -126.167 -63.5 -168.5s-97.5 -63.5 -165.5 -63.5s-123.167 21.167 -165.5 63.5s-63.5 98.5 -63.5 168.5z
" />
    <glyph glyph-name="v" unicode="v" horiz-adv-x="570" 
d="M288 96l180 397h79l-226 -493h-73l-225 493h82l180 -397h3z" />
    <glyph glyph-name="w" unicode="w" horiz-adv-x="789" 
d="M554 105l128 388h80l-169 -493h-75l-124 387l-122 -387h-76l-170 493h81l128 -386l122 386h75z" />
    <glyph glyph-name="x" unicode="x" horiz-adv-x="540" 
d="M315 252l201 -252h-99l-150 191l-147 -191h-96l198 248l-195 245h98l146 -187l146 187h92z" />
    <glyph glyph-name="y" unicode="y" horiz-adv-x="562" 
d="M291 50l170.001 443h76l-225 -584c-14 -37.333 -32.833 -64.833 -56.5 -82.5s-54.5 -26.5 -92.5 -26.5h-113v75h113c21.333 0 38.166 4.33301 50.499 13s22.5 23 30.5 43l8 21l-229 541h83z" />
    <glyph glyph-name="z" unicode="z" horiz-adv-x="502" 
d="M455 438l-312 -366h322v-72h-428v56l312 365h-302v72h408v-55z" />
    <glyph glyph-name="braceleft" unicode="{" horiz-adv-x="312" 
d="M190 594v-232c0 -52 -17.667 -85.333 -53 -100v-4c35.333 -14.667 53 -47.667 53 -99v-233c0 -36 18.333 -54 55 -54h33v-72h-44c-38 0 -67.167 9.83301 -87.5 29.5s-30.5 48.167 -30.5 85.5v255c0 36 -18.333 54 -55 54h-18v73h18c36.667 0 55 18 55 54v254
c0 37.333 10.167 65.833 30.5 85.5s49.5 29.5 87.5 29.5h44v-72h-33c-36.667 0 -55 -18 -55 -54z" />
    <glyph glyph-name="bar" unicode="|" horiz-adv-x="305" 
d="M119 -130v930h67v-930h-67z" />
    <glyph glyph-name="braceright" unicode="}" horiz-adv-x="312" 
d="M250 297h18v-73h-18c-17.333 0 -30.833 -4.66699 -40.5 -14s-14.5 -22.666 -14.5 -39.999v-255c0 -37.333 -10.167 -65.833 -30.5 -85.5s-49.166 -29.5 -86.499 -29.5h-45v72h34c17.333 0 30.833 4.66699 40.5 14s14.5 22.666 14.5 39.999v233c0 50 17.333 83 52 99v4
c-34.667 14.667 -52 48 -52 100v232c0 17.333 -4.83301 30.666 -14.5 39.999s-23.167 14 -40.5 14h-34v72h45c37.333 0 66.166 -9.83301 86.499 -29.5s30.5 -48.167 30.5 -85.5v-254c0 -17.333 4.83301 -30.666 14.5 -39.999s23.167 -14 40.5 -14z" />
    <glyph glyph-name="asciitilde" unicode="~" horiz-adv-x="701" 
d="M185 202h-69v164c0 30.667 11.5 52.167 34.5 64.5s49.5 10.5 79.5 -5.5l266 -147c5.33301 -2.66699 10 -3 14 -1s6 6 6 12v146h70v-164c0 -30.667 -11.667 -52 -35 -64s-50 -10 -80 6l-266 146c-4.66699 3.33301 -9.16699 4 -13.5 2s-6.5 -6.33301 -6.5 -13v-146z" />
    <glyph glyph-name="exclamdown" unicode="&#xa1;" horiz-adv-x="292" 
d="M179 493v-100h-95v100h95zM173 -200h-81l4 483h72z" />
    <glyph glyph-name="cent" unicode="&#xa2;" horiz-adv-x="669" 
d="M342 59c40.667 0 76.334 11.165 107.001 33.498s51.334 51.166 62.001 86.499h79c-11.333 -50 -36.166 -92.5 -74.499 -127.5s-84.5 -55.833 -138.5 -62.5v-116h-75v117c-65.333 8.66699 -118.333 37 -159 85s-61 105.333 -61 172s20.333 123.834 61 171.501
s93.667 75.834 159 84.501v117h75v-116c54 -6.66699 100.167 -27.167 138.5 -61.5s63.166 -76.166 74.499 -125.499h-79c-10.667 34 -31.334 62 -62.001 84s-66.334 33 -107.001 33c-54.667 0 -99.167 -18 -133.5 -54s-51.5 -80.333 -51.5 -133
c0 -53.333 17.167 -98 51.5 -134s78.833 -54 133.5 -54z" />
    <glyph glyph-name="sterling" unicode="&#xa3;" horiz-adv-x="652" 
d="M243 300l0.000976562 -225.001h334v-75h-493v75h81v225h-81v73h81v105c0 54.667 18.167 100.334 54.5 137.001s82.166 55 137.499 55h188v-74h-186c-33.333 0 -61 -11.5 -83 -34.5s-33 -52.5 -33 -88.5v-100h230v-73h-230z" />
    <glyph glyph-name="currency" unicode="&#xa4;" horiz-adv-x="647" 
d="M519 330c0 -42 -11.999 -79.666 -35.999 -112.999l79 -78l-49 -49l-78 79c-34 -23.333 -71 -35 -111 -35c-41.333 0 -78.333 11.667 -111 35l-79 -79l-48 49l78 78c-24 33.333 -36 71 -36 113c0 40 11.667 77 35 111l-77 77l48 48l77 -77c33.333 24 71 36 113 36
c41.333 0 78.666 -12 111.999 -36l77 77l49 -48l-78 -78c23.333 -32.667 35 -69.334 35 -110.001zM324.001 201.001c35.333 0 65.5 12.5 90.5 37.5s37.5 55.5 37.5 91.5c0 35.333 -12.5 65.5 -37.5 90.5s-55.167 37.5 -90.5 37.5c-36 0 -66.5 -12.5 -91.5 -37.5
s-37.5 -55.167 -37.5 -90.5c0 -36 12.5 -66.5 37.5 -91.5s55.5 -37.5 91.5 -37.5z" />
    <glyph glyph-name="yen" unicode="&#xa5;" horiz-adv-x="721" 
d="M559 670h92l-237 -295h190v-68h-205v-89h205v-68h-205v-150h-77v150h-208v68h208v89h-208v68h190l-234 295h94l198 -250z" />
    <glyph glyph-name="brokenbar" unicode="&#xa6;" horiz-adv-x="305" 
d="M119 395v405h67v-405h-67zM119 -130v411h67v-411h-67z" />
    <glyph glyph-name="section" unicode="&#xa7;" horiz-adv-x="594" 
d="M348 74l82.001 -39.001c31.333 -14.667 53.5 -35.5 66.5 -62.5s16.333 -53.167 10 -78.5s-22 -47.333 -47 -66s-56.167 -28 -93.5 -28h-253v72h260c22 0 38.5 6.83301 49.5 20.5s14.333 28.834 10 45.501s-15.166 29 -32.499 37l-185 87
c-40.667 18.667 -73.334 45.334 -98.001 80.001s-37 73 -37 115c0 47.333 16 88.833 48 124.5s71.667 57.167 119 64.5l-82 38c-42 19.333 -67.667 48.166 -77 86.499s-0.666016 72.833 26.001 103.5s64.667 46 114 46h254v-72h-260
c-22.667 0 -39.334 -6.83301 -50.001 -20.5s-13.834 -28.834 -9.50098 -45.501s15.166 -29 32.499 -37l184 -87c40.667 -19.333 73.334 -46.166 98.001 -80.499s37 -72.5 37 -114.5c0 -47.333 -16 -88.833 -48 -124.5s-71.333 -57.167 -118 -64.5zM154.001 259.999
c0 -39.333 14 -72.666 42 -99.999s61.667 -41 101 -41c40 0 74 13.667 102 41s42 60.666 42 99.999s-14 72.666 -42 99.999s-62 41 -102 41c-39.333 0 -73 -13.667 -101 -41s-42 -60.666 -42 -99.999z" />
    <glyph glyph-name="dieresis" unicode="&#xa8;" horiz-adv-x="408" 
d="M114 720h73v-142h-73v142zM290 720h73v-142h-73v142z" />
    <glyph glyph-name="copyright" unicode="&#xa9;" horiz-adv-x="855" 
d="M428 -13c-96.667 0 -179 33.833 -247 101.5s-102 149.834 -102 246.501c0 96 34 178 102 246s150.333 102 247 102c96 0 178 -34 246 -102s102 -150 102 -246c0 -96.667 -34 -178.834 -102 -246.501s-150 -101.5 -246 -101.5zM427 39c82 0 151.833 28.667 209.5 86
s86.5 127.333 86.5 210c0 82 -28.833 151.833 -86.5 209.5s-127.5 86.5 -209.5 86.5s-151.667 -28.833 -209 -86.5s-86 -127.5 -86 -209.5c0 -82.667 28.667 -152.667 86 -210s127 -86 209 -86zM607 386h-58c-8 24.667 -22.5 44.667 -43.5 60s-46.167 23 -75.5 23
c-38.667 0 -70.334 -12.833 -95.001 -38.5s-37 -57.167 -37 -94.5c0 -38 12.333 -69.833 37 -95.5s56.334 -38.5 95.001 -38.5c28.667 0 53.834 7.83301 75.501 23.5s36.167 36.5 43.5 62.5h58c-8.66699 -40.667 -29.334 -74.167 -62.001 -100.5s-71 -39.5 -115 -39.5
c-54.667 0 -99.5 18.167 -134.5 54.5s-52.5 80.833 -52.5 133.5s17.5 97 52.5 133s79.833 54 134.5 54c44.667 0 83.167 -12.833 115.5 -38.5s52.833 -58.5 61.5 -98.5z" />
    <glyph glyph-name="guillemotleft" unicode="&#xab;" horiz-adv-x="497" 
d="M201 424h82l-155 -186l155 -186h-82l-153 186zM386 424h82l-156 -186l156 -186h-82l-154 186z" />
    <glyph glyph-name="registered" unicode="&#xae;" horiz-adv-x="588" 
d="M295 684c57.333 0 106.166 -20.167 146.499 -60.5s60.5 -89.5 60.5 -147.5c0 -57.333 -20.167 -106.166 -60.5 -146.499s-89.166 -60.5 -146.499 -60.5c-58 0 -107.333 20.167 -148 60.5s-61 89.166 -61 146.499c0 58 20.333 107.167 61 147.5s90 60.5 148 60.5zM295 299
c48.667 0 90.167 17.3311 124.5 51.998s51.5 76.334 51.5 125.001c0 49.333 -17.167 91.166 -51.5 125.499s-75.833 51.5 -124.5 51.5c-49.333 0 -91.166 -17.167 -125.499 -51.5s-51.5 -76.166 -51.5 -125.499s17.167 -91.166 51.5 -125.499s76.166 -51.5 125.499 -51.5z
M395 529.998c-0.666992 -26.667 -13.667 -44.999 -39 -54.999h2c23.333 0 35 -11.333 35 -34v-78h-33v71c0 4.66699 -1.66699 8.66699 -5 12s-7.33301 5 -12 5h-111v-88h-32v230h119c22 0 40.167 -5.83301 54.5 -17.5s21.5 -26.834 21.5 -45.501zM232 481.999
l86 -0.000976562c12 0 22.167 3.83301 30.5 11.5s12.5 16.834 12.5 27.501c0 12 -4.16699 21.833 -12.5 29.5s-18.5 11.5 -30.5 11.5h-86v-80z" />
    <glyph glyph-name="degree" unicode="&#xb0;" horiz-adv-x="452" 
d="M226 419c-36.667 0 -67.834 12.833 -93.501 38.5s-38.5 56.834 -38.5 93.501s12.833 67.834 38.5 93.501s56.834 38.5 93.501 38.5s67.667 -12.833 93 -38.5s38 -56.834 38 -93.501s-12.667 -67.834 -38 -93.501s-56.333 -38.5 -93 -38.5zM226 480
c19.333 0 35.833 7 49.5 21s20.5 30.667 20.5 50c0 20 -6.83301 36.833 -20.5 50.5s-30.167 20.5 -49.5 20.5c-20 0 -36.833 -6.83301 -50.5 -20.5s-20.5 -30.5 -20.5 -50.5c0 -19.333 6.83301 -36 20.5 -50s30.5 -21 50.5 -21z" />
    <glyph glyph-name="uni00B2" unicode="&#xb2;" horiz-adv-x="345" 
d="M264 481l-148 -145h194v-60h-285v48l201 198c12.667 12.667 19 27.334 19 44.001c0 12.667 -5.5 23.167 -16.5 31.5s-24.167 12.5 -39.5 12.5h-159v60h160c34 0 61.833 -9.83301 83.5 -29.5s32.5 -44.167 32.5 -73.5c0 -30.667 -14 -59.334 -42 -86.001z" />
    <glyph glyph-name="uni00B3" unicode="&#xb3;" horiz-adv-x="352" 
d="M188 505h12c32.667 0 61 -10.5 85 -31.5s36 -47.5 36 -79.5c0 -32.667 -12.167 -60.5 -36.5 -83.5s-53.5 -34.5 -87.5 -34.5h-169v60h166c18 0 33.667 6 47 18s20 25.667 20 41s-6.66699 28.833 -20 40.5s-29 17.5 -47 17.5h-88v40l112 117h-190v60h275v-45z" />
    <glyph glyph-name="acute" unicode="&#xb4;" horiz-adv-x="255" 
d="M45 578l96 142h84l-98 -142h-82z" />
    <glyph glyph-name="paragraph" unicode="&#xb6;" horiz-adv-x="586" 
d="M467 670v-670h-77v248h-90c-66 0 -120.167 20 -162.5 60s-63.5 90 -63.5 150c0 59.333 21 109.5 63 150.5s96 61.5 162 61.5h168z" />
    <glyph glyph-name="periodcentered" unicode="&#xb7;" horiz-adv-x="318" 
d="M98 385h95v-100h-95v100z" />
    <glyph glyph-name="cedilla" unicode="&#xb8;" horiz-adv-x="305" 
d="M154 -46l16 -0.000976562c24.667 0 44.167 -7.16699 58.5 -21.5s21.5 -32.5 21.5 -54.5c0 -21.333 -7.33301 -39.666 -22 -54.999s-34 -23 -58 -23h-118v57h114c7.33301 0 13.5 2.33301 18.5 7s7.5 10.667 7.5 18c0 14.667 -8.66699 22 -26 22h-69v96h57v-46z" />
    <glyph glyph-name="uni00B9" unicode="&#xb9;" horiz-adv-x="241" 
d="M177 670v-394h-60v334h-105v60h165z" />
    <glyph glyph-name="guillemotright" unicode="&#xbb;" horiz-adv-x="496" 
d="M185 238l-156 186h82l154 -186l-154 -186h-82zM371 238l-156 186h82l154 -186l-154 -186h-82z" />
    <glyph glyph-name="onequarter" unicode="&#xbc;" horiz-adv-x="810" 
d="M202 276h-60v334h-105v60h165v-394zM121 0l470 670h68l-470 -670h-68zM699 156h61v-57h-61v-99h-61v99h-217v45l193 250h85v-238zM638 338l-137 -182h137v182z" />
    <glyph glyph-name="onehalf" unicode="&#xbd;" horiz-adv-x="882" 
d="M202 276h-60v334h-105v60h165v-394zM121 0l470 670h68l-470 -670h-68zM759 205l-149 -145h194v-60h-285v48l201 198c13.333 12 20 26.667 20 44c0 12.667 -5.5 23.167 -16.5 31.5s-24.167 12.5 -39.5 12.5h-160v60h160c34 0 61.833 -9.83301 83.5 -29.5
s32.5 -44.167 32.5 -73.5c0 -31.333 -13.667 -60 -41 -86z" />
    <glyph glyph-name="threequarters" unicode="&#xbe;" horiz-adv-x="911" 
d="M347 394c0 -32.667 -12.167 -60.5 -36.5 -83.5s-53.5 -34.5 -87.5 -34.5h-169v60h166c18 0 33.667 6 47 18s20 25.667 20 41s-6.66699 28.833 -20 40.5s-29 17.5 -47 17.5h-88v40l112 117h-190v60h275v-45l-115 -120h12c32.667 0 61 -10.5 85 -31.5s36 -47.5 36 -79.5z
M214 0l470 670h69l-470 -670h-69zM789 156h61v-57h-61v-99h-61v99h-217v45l193 250h85v-238zM728 338l-137 -182h137v182z" />
    <glyph glyph-name="questiondown" unicode="&#xbf;" horiz-adv-x="497" 
d="M301 493h95v-100h-95v100zM254 -128l235.001 0.000976562v-72h-235c-58.667 0 -104.334 17.333 -137.001 52s-49 76 -49 124s16.333 89.333 49 124s78.667 52 138 52h56v131h75v-200h-132c-34.667 0 -61.667 -10.5 -81 -31.5s-29 -45.833 -29 -74.5
s9.66699 -53.334 29 -74.001s46.333 -31 81 -31z" />
    <glyph glyph-name="Agrave" unicode="&#xc0;" horiz-adv-x="749" 
d="M355 832l95 -112h-82l-97 112h84zM709 0h-86l-84 195h-330l-83 -195h-86l293 670h82zM373 579l-132 -310h266z" />
    <glyph glyph-name="Aacute" unicode="&#xc1;" horiz-adv-x="749" 
d="M393 832h85l-98 -112h-82zM709 0h-86l-84 195h-330l-83 -195h-86l293 670h82zM373 579l-132 -310h266z" />
    <glyph glyph-name="Acircumflex" unicode="&#xc2;" horiz-adv-x="749" 
d="M440 720l-66 73l-66 -73h-82l105 112h87l104 -112h-82zM709 0h-86l-84 195h-330l-83 -195h-86l293 670h82zM373 579l-132 -310h266z" />
    <glyph glyph-name="Atilde" unicode="&#xc3;" horiz-adv-x="749" 
d="M299 775l-0.000976562 -55h-64v72c0 27.333 11.5 46.5 34.5 57.5s46.5 8.83301 70.5 -6.5l89 -57c6 -3.33301 11.167 -3.83301 15.5 -1.5s6.5 6.5 6.5 12.5v55h63v-72c0 -27.333 -11.5 -46.5 -34.5 -57.5s-46.5 -8.83301 -70.5 6.5l-89 57
c-5.33301 3.33301 -10.166 3.83301 -14.499 1.5s-6.5 -6.5 -6.5 -12.5zM708.999 0h-86l-84 195h-330l-83 -195h-86l293 670h82zM372.999 579l-132 -310h266z" />
    <glyph glyph-name="Adieresis" unicode="&#xc4;" horiz-adv-x="749" 
d="M249 832h73v-112h-73v112zM426 832h73v-112h-73v112zM709 0h-86l-84 195h-330l-83 -195h-86l293 670h82zM373 579l-132 -310h266z" />
    <glyph glyph-name="Aring" unicode="&#xc5;" horiz-adv-x="749" 
d="M374 703c-30 0 -55.5 10.333 -76.5 31s-31.5 46 -31.5 76s10.5 55.333 31.5 76s46.5 31 76.5 31s55.5 -10.333 76.5 -31s31.5 -46 31.5 -76s-10.5 -55.333 -31.5 -76s-46.5 -31 -76.5 -31zM374 861c-14.667 0 -26.834 -4.83301 -36.501 -14.5
s-14.5 -21.834 -14.5 -36.501s4.83301 -26.667 14.5 -36s21.834 -14 36.501 -14s26.834 4.66699 36.501 14s14.5 21.333 14.5 36s-4.83301 26.834 -14.5 36.501s-21.834 14.5 -36.501 14.5zM709 0h-86l-84 195h-330l-83 -195h-86l293 670h82zM373 579l-132 -310h266z" />
    <glyph glyph-name="AE" unicode="&#xc6;" horiz-adv-x="976" 
d="M916 670v-75h-325v-212h295v-75h-295v-233h325v-75h-402v223h-269l-118 -223h-88l364 670h513zM444 596l-159 -299h229v299h-70z" />
    <glyph glyph-name="Ccedilla" unicode="&#xc7;" horiz-adv-x="785" 
d="M647 244l80.999 -0.00195312c-17.333 -74 -54.666 -134.667 -111.999 -182s-126 -72 -206 -74v-34h16c24.667 0 44.167 -7.16699 58.5 -21.5s21.5 -32.5 21.5 -54.5c0 -21.333 -7.33301 -39.666 -22 -54.999s-34 -23 -58 -23h-118v57h114c7.33301 0 13.5 2.33301 18.5 7
s7.5 10.667 7.5 18c0 14.667 -8.66699 22 -26 22h-69v87c-88 10.667 -159 48.5 -213 113.5s-81 141.833 -81 230.5c0 96.667 31.833 178.834 95.5 246.501s145.5 101.5 245.5 101.5c81.333 0 151.5 -23.333 210.5 -70s97.833 -107.334 116.5 -182.001h-81
c-16.667 52 -47 94.5 -91 127.5s-95.333 49.5 -154 49.5c-76.667 0 -140 -26.667 -190 -80s-75 -117.666 -75 -192.999c0 -76 25 -140.5 75 -193.5s113.333 -79.5 190 -79.5c60.667 0 113.167 17 157.5 51s73.833 77.667 88.5 131z" />
    <glyph glyph-name="Egrave" unicode="&#xc8;" horiz-adv-x="648" 
d="M243 832h84l95 -112h-82zM588 0h-489v670h489v-75h-412v-212h382v-75h-382v-233h412v-75z" />
    <glyph glyph-name="Eacute" unicode="&#xc9;" horiz-adv-x="648" 
d="M271 720l95 112h85l-98 -112h-82zM588 0h-489v670h489v-75h-412v-212h382v-75h-382v-233h412v-75z" />
    <glyph glyph-name="Ecircumflex" unicode="&#xca;" horiz-adv-x="648" 
d="M412 720l-66 73l-66 -73h-82l105 112h87l104 -112h-82zM588 670v-75h-412v-212h382v-75h-382v-233h412v-75h-489v670h489z" />
    <glyph glyph-name="Edieresis" unicode="&#xcb;" horiz-adv-x="648" 
d="M222 832h73v-112h-73v112zM399 832h73v-112h-73v112zM588 0h-489v670h489v-75h-412v-212h382v-75h-382v-233h412v-75z" />
    <glyph glyph-name="Igrave" unicode="&#xcc;" horiz-adv-x="275" 
d="M34 832h84l95 -112h-82zM99 0v670h77v-670h-77z" />
    <glyph glyph-name="Iacute" unicode="&#xcd;" horiz-adv-x="275" 
d="M62 720l95 112h85l-98 -112h-82zM99 0v670h77v-670h-77z" />
    <glyph glyph-name="Icircumflex" unicode="&#xce;" horiz-adv-x="275" 
d="M181 832l104 -112h-82l-66 73l-66 -73h-82l105 112h87zM176 0h-77v670h77v-670z" />
    <glyph glyph-name="Idieresis" unicode="&#xcf;" horiz-adv-x="275" 
d="M13 832h73v-112h-73v112zM190 832h73v-112h-73v112zM99 0v670h77v-670h-77z" />
    <glyph glyph-name="Eth" unicode="&#xd0;" horiz-adv-x="780" 
d="M126 670h261c96 0 175.5 -31.5 238.5 -94.5s94.5 -142.5 94.5 -238.5v-3c0 -96 -31.5 -175.5 -94.5 -238.5s-142.5 -94.5 -238.5 -94.5h-261v314h-82v66h82v289zM643 334v3.00195c0 75.333 -24.167 137.166 -72.5 185.499s-109.5 72.5 -183.5 72.5h-184v-214h215v-66
h-215v-239h184c74 0 135.167 24.167 183.5 72.5s72.5 110.166 72.5 185.499z" />
    <glyph glyph-name="Ntilde" unicode="&#xd1;" horiz-adv-x="788" 
d="M318 775l-0.000976562 -55h-64v72c0 27.333 11.5 46.5 34.5 57.5s46.5 8.83301 70.5 -6.5l89 -57c6 -3.33301 11.167 -3.83301 15.5 -1.5s6.5 6.5 6.5 12.5v55h63v-72c0 -27.333 -11.5 -46.5 -34.5 -57.5s-46.5 -8.83301 -70.5 6.5l-89 57
c-5.33301 3.33301 -10.166 3.83301 -14.499 1.5s-6.5 -6.5 -6.5 -12.5zM611.999 130v540h76v-670h-76l-436 571v-571h-77v670h95z" />
    <glyph glyph-name="Ograve" unicode="&#xd2;" horiz-adv-x="818" 
d="M306 832h84l95 -112h-82zM409 -12c-101.333 0 -184.665 33.5 -249.998 100.5s-98 149.167 -98 246.5s32.667 179.666 98 246.999s148.666 101 249.999 101s184.666 -33.667 249.999 -101s98 -149.666 98 -246.999s-32.5 -179.5 -97.5 -246.5s-148.5 -100.5 -250.5 -100.5
zM409.001 62c79.333 0 144.333 26.5 195 79.5s76 117.5 76 193.5s-25.5 140.5 -76.5 193.5s-115.833 79.5 -194.5 79.5s-143.5 -26.5 -194.5 -79.5s-76.5 -117.5 -76.5 -193.5s25.5 -140.5 76.5 -193.5s115.833 -79.5 194.5 -79.5z" />
    <glyph glyph-name="Oacute" unicode="&#xd3;" horiz-adv-x="818" 
d="M333 720l95 112h85l-98 -112h-82zM409 -12c-101.333 0 -184.665 33.5 -249.998 100.5s-98 149.167 -98 246.5s32.667 179.666 98 246.999s148.666 101 249.999 101s184.666 -33.667 249.999 -101s98 -149.666 98 -246.999s-32.5 -179.5 -97.5 -246.5
s-148.5 -100.5 -250.5 -100.5zM409.001 62c79.333 0 144.333 26.5 195 79.5s76 117.5 76 193.5s-25.5 140.5 -76.5 193.5s-115.833 79.5 -194.5 79.5s-143.5 -26.5 -194.5 -79.5s-76.5 -117.5 -76.5 -193.5s25.5 -140.5 76.5 -193.5s115.833 -79.5 194.5 -79.5z" />
    <glyph glyph-name="Ocircumflex" unicode="&#xd4;" horiz-adv-x="818" 
d="M474 720l-66 73l-66 -73h-82l105 112h87l104 -112h-82zM409 683c101.333 0 184.667 -33.667 250 -101s98 -149.666 98 -246.999s-32.5 -179.5 -97.5 -246.5s-148.5 -100.5 -250.5 -100.5c-101.333 0 -184.666 33.5 -249.999 100.5s-98 149.167 -98 246.5
s32.667 179.666 98 246.999s148.666 101 249.999 101zM409.001 62c79.333 0 144.333 26.5 195 79.5s76 117.5 76 193.5s-25.5 140.5 -76.5 193.5s-115.833 79.5 -194.5 79.5s-143.5 -26.5 -194.5 -79.5s-76.5 -117.5 -76.5 -193.5s25.5 -140.5 76.5 -193.5
s115.833 -79.5 194.5 -79.5z" />
    <glyph glyph-name="Otilde" unicode="&#xd5;" horiz-adv-x="818" 
d="M334 720h-64.001v72c0 27.333 11.5 46.5 34.5 57.5s46.5 8.83301 70.5 -6.5l89 -57c6 -3.33301 11.167 -3.83301 15.5 -1.5s6.5 6.5 6.5 12.5v55h63v-72c0 -27.333 -11.5 -46.5 -34.5 -57.5s-46.5 -8.83301 -70.5 6.5l-89 57
c-5.33301 3.33301 -10.166 3.83301 -14.499 1.5s-6.5 -6.5 -6.5 -12.5v-55zM408.999 -12c-101.333 0 -184.665 33.5 -249.998 100.5s-98 149.167 -98 246.5s32.667 179.666 98 246.999s148.666 101 249.999 101s184.666 -33.667 249.999 -101s98 -149.666 98 -246.999
s-32.5 -179.5 -97.5 -246.5s-148.5 -100.5 -250.5 -100.5zM409 62c79.333 0 144.333 26.5 195 79.5s76 117.5 76 193.5s-25.5 140.5 -76.5 193.5s-115.833 79.5 -194.5 79.5s-143.5 -26.5 -194.5 -79.5s-76.5 -117.5 -76.5 -193.5s25.5 -140.5 76.5 -193.5
s115.833 -79.5 194.5 -79.5z" />
    <glyph glyph-name="Odieresis" unicode="&#xd6;" horiz-adv-x="818" 
d="M284 832h73v-112h-73v112zM461 832h73v-112h-73v112zM409 -12c-101.333 0 -184.665 33.5 -249.998 100.5s-98 149.167 -98 246.5s32.667 179.666 98 246.999s148.666 101 249.999 101s184.666 -33.667 249.999 -101s98 -149.666 98 -246.999s-32.5 -179.5 -97.5 -246.5
s-148.5 -100.5 -250.5 -100.5zM409.001 62c79.333 0 144.333 26.5 195 79.5s76 117.5 76 193.5s-25.5 140.5 -76.5 193.5s-115.833 79.5 -194.5 79.5s-143.5 -26.5 -194.5 -79.5s-76.5 -117.5 -76.5 -193.5s25.5 -140.5 76.5 -193.5s115.833 -79.5 194.5 -79.5z" />
    <glyph glyph-name="multiply" unicode="&#xd7;" horiz-adv-x="572" 
d="M449 534l51 -51l-164 -163l163 -163l-50 -50l-163 163l-163 -163l-51 50l163 163l-163 163l51 51l163 -163z" />
    <glyph glyph-name="Oslash" unicode="&#xd8;" horiz-adv-x="820" 
d="M715 670l-63.999 -79.002c71.333 -67.333 107 -152.666 107 -255.999c0 -97.333 -32.5 -179.5 -97.5 -246.5s-148.5 -100.5 -250.5 -100.5c-76 0 -143 20 -201 60l-38 -47l-76 -1l69 85c-68 66 -102 149.333 -102 250c0 96.667 32.667 178.834 98 246.501
s148.666 101.5 249.999 101.5c73.333 0 138.333 -18.333 195 -55l34 42h76zM140.001 334.998c0 -76 24.334 -139.333 73.001 -190l343 423c-44 26.667 -92.667 40 -146 40c-78.667 0 -143.334 -26.5 -194.001 -79.5s-76 -117.5 -76 -193.5zM410.002 61.998
c79.333 0 144.333 26.5 195 79.5s76 117.5 76 193.5c0 78 -26.333 143.333 -79 196l-345 -424c44.667 -30 95.667 -45 153 -45z" />
    <glyph glyph-name="Ugrave" unicode="&#xd9;" horiz-adv-x="739" 
d="M266 832h84l95 -112h-82zM85 279l0.000976562 391h77v-387c0 -65.333 19.333 -118.5 58 -159.5s88.667 -61.5 150 -61.5s111.166 20.333 149.499 61s57.5 94 57.5 160v387h77v-391c0 -88.667 -26.5 -159.5 -79.5 -212.5s-121.5 -79.5 -205.5 -79.5
s-152.333 26.833 -205 80.5s-79 124.167 -79 211.5z" />
    <glyph glyph-name="Uacute" unicode="&#xda;" horiz-adv-x="739" 
d="M293 720l95 112h85l-98 -112h-82zM85 279l0.000976562 391h77v-387c0 -65.333 19.333 -118.5 58 -159.5s88.667 -61.5 150 -61.5s111.166 20.333 149.499 61s57.5 94 57.5 160v387h77v-391c0 -88.667 -26.5 -159.5 -79.5 -212.5s-121.5 -79.5 -205.5 -79.5
s-152.333 26.833 -205 80.5s-79 124.167 -79 211.5z" />
    <glyph glyph-name="Ucircumflex" unicode="&#xdb;" horiz-adv-x="739" 
d="M435 720l-66 73l-66 -73h-82l105 112h87l104 -112h-82zM577 283l0.000976562 387h77v-391c0 -88.667 -26.5 -159.5 -79.5 -212.5s-121.5 -79.5 -205.5 -79.5s-152.333 26.833 -205 80.5s-79 124.167 -79 211.5v391h77v-387c0 -65.333 19.333 -118.5 58 -159.5
s88.667 -61.5 150 -61.5s111.166 20.333 149.499 61s57.5 94 57.5 160z" />
    <glyph glyph-name="Udieresis" unicode="&#xdc;" horiz-adv-x="739" 
d="M244 832h73v-112h-73v112zM421 832h73v-112h-73v112zM85 279l0.000976562 391h77v-387c0 -65.333 19.333 -118.5 58 -159.5s88.667 -61.5 150 -61.5s111.166 20.333 149.499 61s57.5 94 57.5 160v387h77v-391c0 -88.667 -26.5 -159.5 -79.5 -212.5
s-121.5 -79.5 -205.5 -79.5s-152.333 26.833 -205 80.5s-79 124.167 -79 211.5z" />
    <glyph glyph-name="Yacute" unicode="&#xdd;" horiz-adv-x="714" 
d="M376 832h85l-98 -112h-82zM585 670h92l-282 -379v-291h-77v288l-281 382h94l227 -310z" />
    <glyph glyph-name="Thorn" unicode="&#xde;" horiz-adv-x="682" 
d="M176 566l228 -0.000976562c66 0 120 -20.5 162 -61.5s63 -91.167 63 -150.5s-21.167 -109.166 -63.5 -149.499s-96.5 -60.5 -162.5 -60.5h-227v-144h-77v670h77v-104zM176 216.999h226c44.667 0 80.667 13 108 39s41 58.667 41 98c0 38.667 -13.667 71.167 -41 97.5
s-63.333 39.5 -108 39.5h-226v-274z" />
    <glyph glyph-name="germandbls" unicode="&#xdf;" horiz-adv-x="662" 
d="M542 664l-99.999 -181c52.667 -10.667 94.834 -37.667 126.501 -81s47.5 -94.666 47.5 -153.999c0 -72 -22.667 -131.333 -68 -178s-104 -70 -176 -70h-75v72h72c50 0 90.167 16 120.5 48s45.833 73 46.5 123c1.33301 52.667 -14.334 96 -47.001 130s-75 51 -127 51h-5
v48l97 176h-207c-36.667 0 -55 -18.333 -55 -55v-593h-75v421h-90v72h90v110c0 35.333 10.667 63.666 32 84.999s49.666 32 84.999 32h308v-56z" />
    <glyph glyph-name="agrave" unicode="&#xe0;" horiz-adv-x="648" 
d="M295 720l95 -142h-82l-97 142h84zM494 405l0.000976562 88.002h74v-493h-74v92h-3c-43.333 -69.333 -107.666 -104.333 -192.999 -105c-72.667 -0.666992 -132.834 23.666 -180.501 72.999s-71.5 111.666 -71.5 186.999s23.667 137.5 71 186.5s108 73.167 182 72.5
c42 -0.666992 79.667 -10 113 -28s59.666 -42.333 78.999 -73h3zM309.001 59.002c54 0 98.333 18.333 133 55s52 81 52 133c0 52.667 -17.167 97 -51.5 133s-78.833 54 -133.5 54c-56 0 -101.333 -18 -136 -54s-52 -80.333 -52 -133s17.333 -97.167 52 -133.5
s80 -54.5 136 -54.5z" />
    <glyph glyph-name="aacute" unicode="&#xe1;" horiz-adv-x="648" 
d="M328 720h84l-97 -142h-82zM494 405l0.000976562 88.002h74v-493h-74v92h-3c-43.333 -69.333 -107.666 -104.333 -192.999 -105c-72.667 -0.666992 -132.834 23.666 -180.501 72.999s-71.5 111.666 -71.5 186.999s23.667 137.5 71 186.5s108 73.167 182 72.5
c42 -0.666992 79.667 -10 113 -28s59.666 -42.333 78.999 -73h3zM309.001 59.002c54 0 98.333 18.333 133 55s52 81 52 133c0 52.667 -17.167 97 -51.5 133s-78.833 54 -133.5 54c-56 0 -101.333 -18 -136 -54s-52 -80.333 -52 -133s17.333 -97.167 52 -133.5
s80 -54.5 136 -54.5z" />
    <glyph glyph-name="acircumflex" unicode="&#xe2;" horiz-adv-x="648" 
d="M382 578l-69 94l-69 -94h-79l107 142h83l106 -142h-79zM494 405l0.000976562 88.002h74v-493h-74v92h-3c-43.333 -69.333 -107.666 -104.333 -192.999 -105c-72.667 -0.666992 -132.834 23.666 -180.501 72.999s-71.5 111.666 -71.5 186.999s23.667 137.5 71 186.5
s108 73.167 182 72.5c42 -0.666992 79.667 -10 113 -28s59.666 -42.333 78.999 -73h3zM309.001 59.002c54 0 98.333 18.333 133 55s52 81 52 133c0 52.667 -17.167 97 -51.5 133s-78.833 54 -133.5 54c-56 0 -101.333 -18 -136 -54s-52 -80.333 -52 -133
s17.333 -97.167 52 -133.5s80 -54.5 136 -54.5z" />
    <glyph glyph-name="atilde" unicode="&#xe3;" horiz-adv-x="648" 
d="M238 643l0.00292969 -65h-64v82c0 27.333 11.667 46.666 35 57.999s46.666 9 69.999 -7l89 -66c5.33301 -4 10.333 -4.83301 15 -2.5s7 6.5 7 12.5v65h63v-82c0 -27.333 -11.833 -46.666 -35.5 -57.999s-46.834 -9 -69.501 7l-89 66
c-4.66699 4 -9.33398 4.83301 -14.001 2.5s-7 -6.5 -7 -12.5zM494.003 405l0.000976562 88.002h74v-493h-74v92h-3c-43.333 -69.333 -107.666 -104.333 -192.999 -105c-72.667 -0.666992 -132.834 23.666 -180.501 72.999s-71.5 111.666 -71.5 186.999
s23.667 137.5 71 186.5s108 73.167 182 72.5c42 -0.666992 79.667 -10 113 -28s59.666 -42.333 78.999 -73h3zM309.004 59.002c54 0 98.333 18.333 133 55s52 81 52 133c0 52.667 -17.167 97 -51.5 133s-78.833 54 -133.5 54c-56 0 -101.333 -18 -136 -54
s-52 -80.333 -52 -133s17.333 -97.167 52 -133.5s80 -54.5 136 -54.5z" />
    <glyph glyph-name="adieresis" unicode="&#xe4;" horiz-adv-x="648" 
d="M188 720h73v-142h-73v142zM365 720h73v-142h-73v142zM494 405l0.000976562 88.002h74v-493h-74v92h-3c-43.333 -69.333 -107.666 -104.333 -192.999 -105c-72.667 -0.666992 -132.834 23.666 -180.501 72.999s-71.5 111.666 -71.5 186.999s23.667 137.5 71 186.5
s108 73.167 182 72.5c42 -0.666992 79.667 -10 113 -28s59.666 -42.333 78.999 -73h3zM309.001 59.002c54 0 98.333 18.333 133 55s52 81 52 133c0 52.667 -17.167 97 -51.5 133s-78.833 54 -133.5 54c-56 0 -101.333 -18 -136 -54s-52 -80.333 -52 -133
s17.333 -97.167 52 -133.5s80 -54.5 136 -54.5z" />
    <glyph glyph-name="aring" unicode="&#xe5;" horiz-adv-x="648" 
d="M313 551c-30 0 -55.5 10.333 -76.5 31s-31.5 46 -31.5 76s10.5 55.333 31.5 76s46.5 31 76.5 31s55.5 -10.333 76.5 -31s31.5 -46 31.5 -76s-10.5 -55.333 -31.5 -76s-46.5 -31 -76.5 -31zM313 708c-14.667 0 -26.834 -4.66699 -36.501 -14s-14.5 -21.333 -14.5 -36
s4.83301 -26.834 14.5 -36.501s21.834 -14.5 36.501 -14.5s26.834 4.83301 36.501 14.5s14.5 21.834 14.5 36.501s-4.83301 26.667 -14.5 36s-21.834 14 -36.501 14zM494 405l0.000976562 88.002h74v-493h-74v92h-3c-43.333 -69.333 -107.666 -104.333 -192.999 -105
c-72.667 -0.666992 -132.834 23.666 -180.501 72.999s-71.5 111.666 -71.5 186.999s23.667 137.5 71 186.5s108 73.167 182 72.5c42 -0.666992 79.667 -10 113 -28s59.666 -42.333 78.999 -73h3zM309.001 59.002c54 0 98.333 18.333 133 55s52 81 52 133
c0 52.667 -17.167 97 -51.5 133s-78.833 54 -133.5 54c-56 0 -101.333 -18 -136 -54s-52 -80.333 -52 -133s17.333 -97.167 52 -133.5s80 -54.5 136 -54.5z" />
    <glyph glyph-name="ae" unicode="&#xe6;" horiz-adv-x="1047" 
d="M759 506c74 0 133.998 -26.501 179.998 -79.501s66.667 -121.833 62 -206.5h-431c2.66699 -47.333 22.5 -86.166 59.5 -116.499s80.167 -45.5 129.5 -45.5c34.667 0 65.834 8.33301 93.501 25s48.167 40 61.5 70h78c-16 -51.333 -44.667 -91.833 -86 -121.5
s-90 -44.5 -146 -44.5c-83.333 0 -147.333 33.333 -192 100v-87h-74v95c-44.667 -72 -110 -108 -196 -108c-72 0 -132 24.333 -180 73s-72 111 -72 187s24 138.167 72 186.5s108 72.5 180 72.5c86.667 0 152 -34.667 196 -104v91h74v-87
c44.667 66.667 108.334 100 191.001 100zM308.998 58.999c54 0 98.167 18.167 132.5 54.5s51.5 80.833 51.5 133.5s-17 97 -51 133s-78.333 54 -133 54c-56 0 -101.333 -18 -136 -54s-52 -80.333 -52 -133s17.333 -97.167 52 -133.5s80 -54.5 136 -54.5zM746.998 433.999
c-46 0 -85 -13.8311 -117 -41.498s-51.333 -62.834 -58 -105.501h349c-6.66699 43.333 -25.667 78.666 -57 105.999s-70.333 41 -117 41z" />
    <glyph glyph-name="ccedilla" unicode="&#xe7;" horiz-adv-x="596" 
d="M306 59c40.667 0 76.3311 11.168 106.998 33.501s51.667 51.166 63 86.499h78c-11.333 -50.667 -36.333 -93.334 -75 -128.001s-85 -55.334 -139 -62.001v-35h16c24.667 0 44.167 -7.16699 58.5 -21.5s21.5 -32.5 21.5 -54.5c0 -21.333 -7.33301 -39.666 -22 -54.999
s-34 -23 -58 -23h-118v57h114c7.33301 0 13.5 2.33301 18.5 7s7.5 10.667 7.5 18c0 14.667 -8.66699 22 -26 22h-69v84c-70 5.33301 -127 32.5 -171 81.5s-66 108.167 -66 177.5c0 73.333 24.333 134.833 73 184.5s111 74.5 187 74.5c62 0 115.833 -17.667 161.5 -53
s74.5 -80.666 86.5 -135.999h-78c-11.333 34 -32.166 62 -62.499 84s-66.166 33 -107.499 33c-54 0 -98.333 -18 -133 -54s-52 -80.333 -52 -133s17.333 -97.167 52 -133.5s79 -54.5 133 -54.5z" />
    <glyph glyph-name="egrave" unicode="&#xe8;" horiz-adv-x="599" 
d="M282 720l95 -142h-82l-97 142h84zM301 506c77.333 0 139.666 -27 186.999 -81s68.666 -122.333 63.999 -205h-427c3.33301 -46 21.666 -84.333 54.999 -115s75 -46 125 -46c36.667 0 69.334 8.5 98.001 25.5s49.334 39.833 62.001 68.5h78
c-16.667 -50.667 -46.667 -91 -90 -121s-93.666 -45 -150.999 -45c-76 0 -137.667 25 -185 75s-71 111.333 -71 184s24 134.167 72 184.5s109 75.5 183 75.5zM299 434c-46 0 -84.833 -13.8311 -116.5 -41.498s-50.167 -62.834 -55.5 -105.501h345
c-6.66699 43.333 -25.667 78.666 -57 105.999s-70 41 -116 41z" />
    <glyph glyph-name="eacute" unicode="&#xe9;" horiz-adv-x="599" 
d="M315 720h84l-97 -142h-82zM301 506c77.333 0 139.666 -27 186.999 -81s68.666 -122.333 63.999 -205h-427c3.33301 -46 21.666 -84.333 54.999 -115s75 -46 125 -46c36.667 0 69.334 8.5 98.001 25.5s49.334 39.833 62.001 68.5h78c-16.667 -50.667 -46.667 -91 -90 -121
s-93.666 -45 -150.999 -45c-76 0 -137.667 25 -185 75s-71 111.333 -71 184s24 134.167 72 184.5s109 75.5 183 75.5zM299 434c-46 0 -84.833 -13.8311 -116.5 -41.498s-50.167 -62.834 -55.5 -105.501h345c-6.66699 43.333 -25.667 78.666 -57 105.999s-70 41 -116 41z" />
    <glyph glyph-name="ecircumflex" unicode="&#xea;" horiz-adv-x="599" 
d="M369 578l-69 94l-69 -94h-79l107 142h83l106 -142h-79zM301 506c77.333 0 139.666 -27 186.999 -81s68.666 -122.333 63.999 -205h-427c3.33301 -46 21.666 -84.333 54.999 -115s75 -46 125 -46c36.667 0 69.334 8.5 98.001 25.5s49.334 39.833 62.001 68.5h78
c-16.667 -50.667 -46.667 -91 -90 -121s-93.666 -45 -150.999 -45c-76 0 -137.667 25 -185 75s-71 111.333 -71 184s24 134.167 72 184.5s109 75.5 183 75.5zM299 434c-46 0 -84.833 -13.8311 -116.5 -41.498s-50.167 -62.834 -55.5 -105.501h345
c-6.66699 43.333 -25.667 78.666 -57 105.999s-70 41 -116 41z" />
    <glyph glyph-name="edieresis" unicode="&#xeb;" horiz-adv-x="599" 
d="M175 720h73v-142h-73v142zM352 720h73v-142h-73v142zM301 506c77.333 0 139.666 -27 186.999 -81s68.666 -122.333 63.999 -205h-427c3.33301 -46 21.666 -84.333 54.999 -115s75 -46 125 -46c36.667 0 69.334 8.5 98.001 25.5s49.334 39.833 62.001 68.5h78
c-16.667 -50.667 -46.667 -91 -90 -121s-93.666 -45 -150.999 -45c-76 0 -137.667 25 -185 75s-71 111.333 -71 184s24 134.167 72 184.5s109 75.5 183 75.5zM299 434c-46 0 -84.833 -13.8311 -116.5 -41.498s-50.167 -62.834 -55.5 -105.501h345
c-6.66699 43.333 -25.667 78.666 -57 105.999s-70 41 -116 41z" />
    <glyph glyph-name="igrave" unicode="&#xec;" horiz-adv-x="234" 
d="M15 720h84l95 -142h-82zM79 493h75v-493h-75v493z" />
    <glyph glyph-name="iacute" unicode="&#xed;" horiz-adv-x="234" 
d="M36 578l95 142h84l-97 -142h-82zM79 493h75v-493h-75v493z" />
    <glyph glyph-name="icircumflex" unicode="&#xee;" horiz-adv-x="234" 
d="M158 720l106 -142h-79l-69 94l-69 -94h-79l107 142h83zM154 0h-75v493h75v-493z" />
    <glyph glyph-name="idieresis" unicode="&#xef;" horiz-adv-x="234" 
d="M-8 720h73v-142h-73v142zM169 720h73v-142h-73v142zM79 493h75v-493h-75v493z" />
    <glyph glyph-name="eth" unicode="&#xf0;" horiz-adv-x="607" 
d="M481 578l-62 -0.00292969c92.667 -129.333 139 -240 139 -332c0 -73.333 -23.667 -134.666 -71 -183.999s-109.333 -74 -186 -74c-75.333 0 -137 23.667 -185 71s-72 106 -72 176c0 71.333 24.667 129.833 74 175.5s107.666 67.834 174.999 66.501
c52 0 95.667 -13.667 131 -41l2 2c-29.333 49.333 -60.666 96 -93.999 140h-168v65h117c-13.333 16.667 -35 42 -65 76h94c30 -37.333 50 -62.666 60 -75.999h111v-65zM302 59.9971c53.333 0 96.667 16.999 130 50.999s50 75.333 50 124c0 50 -17.167 91.167 -51.5 123.5
s-77.5 48.5 -129.5 48.5c-52.667 0 -96 -16.5 -130 -49.5s-51 -74.167 -51 -123.5s17 -90.666 51 -123.999s77.667 -50 131 -50z" />
    <glyph glyph-name="ntilde" unicode="&#xf1;" horiz-adv-x="613" 
d="M237 643l-0.00292969 -65h-64v82c0 27.333 11.833 46.666 35.5 57.999s46.834 9 69.501 -7l89 -66c5.33301 -4 10.333 -4.83301 15 -2.5s7 6.5 7 12.5v65h63v-82c0 -27.333 -11.667 -46.666 -35 -57.999s-46.666 -9 -69.999 7l-89 66
c-5.33301 4 -10.166 4.83301 -14.499 2.5s-6.5 -6.5 -6.5 -12.5zM337.997 506c62 0 112 -19.832 150 -59.499s57 -92.834 57 -159.501v-287h-75v274c0 47.333 -13.167 85.666 -39.5 114.999s-61.833 44 -106.5 44c-49.333 0 -90 -17.667 -122 -53s-48 -80 -48 -134v-246h-75
v493h74v-86h2c19.333 30.667 45 54.834 77 72.501s67.333 26.5 106 26.5z" />
    <glyph glyph-name="ograve" unicode="&#xf2;" horiz-adv-x="616" 
d="M206 720h84l95 -142h-82zM310 -13c-77.333 0 -140.834 25.167 -190.501 75.5s-74.5 111.833 -74.5 184.5c0 73.333 24.667 134.833 74 184.5s113 74.5 191 74.5c76.667 0 139.334 -24.833 188.001 -74.5s73 -111.167 73 -184.5c0 -72.667 -24.5 -134.167 -73.5 -184.5
s-111.5 -75.5 -187.5 -75.5zM309.999 59c54.667 0 99.334 18.333 134.001 55s52 81 52 133c0 52.667 -17.333 97 -52 133s-79.334 54 -134.001 54c-56 0 -101.5 -18 -136.5 -54s-52.5 -80.333 -52.5 -133s17.5 -97.167 52.5 -133.5s80.5 -54.5 136.5 -54.5z" />
    <glyph glyph-name="oacute" unicode="&#xf3;" horiz-adv-x="616" 
d="M227 578l95 142h84l-97 -142h-82zM310 -13c-77.333 0 -140.834 25.167 -190.501 75.5s-74.5 111.833 -74.5 184.5c0 73.333 24.667 134.833 74 184.5s113 74.5 191 74.5c76.667 0 139.334 -24.833 188.001 -74.5s73 -111.167 73 -184.5
c0 -72.667 -24.5 -134.167 -73.5 -184.5s-111.5 -75.5 -187.5 -75.5zM309.999 59c54.667 0 99.334 18.333 134.001 55s52 81 52 133c0 52.667 -17.333 97 -52 133s-79.334 54 -134.001 54c-56 0 -101.5 -18 -136.5 -54s-52.5 -80.333 -52.5 -133s17.5 -97.167 52.5 -133.5
s80.5 -54.5 136.5 -54.5z" />
    <glyph glyph-name="ocircumflex" unicode="&#xf4;" horiz-adv-x="616" 
d="M376 578l-69 94l-69 -94h-79l107 142h83l106 -142h-79zM310 506c76.667 0 139.333 -24.833 188 -74.5s73 -111.167 73 -184.5c0 -72.667 -24.5 -134.167 -73.5 -184.5s-111.5 -75.5 -187.5 -75.5c-77.333 0 -140.833 25.167 -190.5 75.5s-74.5 111.833 -74.5 184.5
c0 73.333 24.667 134.833 74 184.5s113 74.5 191 74.5zM309.999 59c54.667 0 99.334 18.333 134.001 55s52 81 52 133c0 52.667 -17.333 97 -52 133s-79.334 54 -134.001 54c-56 0 -101.5 -18 -136.5 -54s-52.5 -80.333 -52.5 -133s17.5 -97.167 52.5 -133.5
s80.5 -54.5 136.5 -54.5z" />
    <glyph glyph-name="otilde" unicode="&#xf5;" horiz-adv-x="616" 
d="M233 578h-64.0029v82c0 27.333 11.833 46.666 35.5 57.999s46.834 9 69.501 -7l89 -66c5.33301 -4 10.333 -4.83301 15 -2.5s7 6.5 7 12.5v65h63v-82c0 -27.333 -11.667 -46.666 -35 -57.999s-46.666 -9 -69.999 7l-89 66c-5.33301 4 -10.166 4.83301 -14.499 2.5
s-6.5 -6.5 -6.5 -12.5v-65zM309.997 -13c-77.333 0 -140.834 25.167 -190.501 75.5s-74.5 111.833 -74.5 184.5c0 73.333 24.667 134.833 74 184.5s113 74.5 191 74.5c76.667 0 139.334 -24.833 188.001 -74.5s73 -111.167 73 -184.5c0 -72.667 -24.5 -134.167 -73.5 -184.5
s-111.5 -75.5 -187.5 -75.5zM309.996 59c54.667 0 99.334 18.333 134.001 55s52 81 52 133c0 52.667 -17.333 97 -52 133s-79.334 54 -134.001 54c-56 0 -101.5 -18 -136.5 -54s-52.5 -80.333 -52.5 -133s17.5 -97.167 52.5 -133.5s80.5 -54.5 136.5 -54.5z" />
    <glyph glyph-name="odieresis" unicode="&#xf6;" horiz-adv-x="616" 
d="M183 720h73v-142h-73v142zM360 720h73v-142h-73v142zM310 -13c-77.333 0 -140.834 25.167 -190.501 75.5s-74.5 111.833 -74.5 184.5c0 73.333 24.667 134.833 74 184.5s113 74.5 191 74.5c76.667 0 139.334 -24.833 188.001 -74.5s73 -111.167 73 -184.5
c0 -72.667 -24.5 -134.167 -73.5 -184.5s-111.5 -75.5 -187.5 -75.5zM309.999 59c54.667 0 99.334 18.333 134.001 55s52 81 52 133c0 52.667 -17.333 97 -52 133s-79.334 54 -134.001 54c-56 0 -101.5 -18 -136.5 -54s-52.5 -80.333 -52.5 -133s17.5 -97.167 52.5 -133.5
s80.5 -54.5 136.5 -54.5z" />
    <glyph glyph-name="divide" unicode="&#xf7;" horiz-adv-x="614" 
d="M258 553h95v-100h-95v100zM72 285v71h466v-71h-466zM258 187h95v-100h-95v100z" />
    <glyph glyph-name="oslash" unicode="&#xf8;" horiz-adv-x="621" 
d="M548 506l-53 -68c53.333 -49.333 80 -113 80 -191c0 -72.667 -24.5 -134.167 -73.5 -184.5s-111.5 -75.5 -187.5 -75.5c-52 0 -98.333 12 -139 36l-28 -36h-76l56 72c-52 50 -78 112.667 -78 188c0 73.333 24.667 134.833 74 184.5s113 74.5 191 74.5
c48 0 92 -11 132 -33l25 33h77zM125 247c0 -50 16 -92.667 48 -128l227 295c-25.333 13.333 -54 20 -86 20c-56 0 -101.5 -18 -136.5 -54s-52.5 -80.333 -52.5 -133zM314 59c54.667 0 99.334 18.333 134.001 55s52 81 52 133c0 53.333 -17 97 -51 131l-229 -296
c27.333 -15.333 58.666 -23 93.999 -23z" />
    <glyph glyph-name="ugrave" unicode="&#xf9;" horiz-adv-x="591" 
d="M193 720h84l95 -142h-82zM66 218v274.999h75v-273c0 -47.333 14.333 -86.166 43 -116.499s65.667 -45.5 111 -45.5c46 0 83.167 15 111.5 45s42.5 69 42.5 117v273h75v-275c0 -70 -21.167 -126.167 -63.5 -168.5s-97.5 -63.5 -165.5 -63.5s-123.167 21.167 -165.5 63.5
s-63.5 98.5 -63.5 168.5z" />
    <glyph glyph-name="uacute" unicode="&#xfa;" horiz-adv-x="591" 
d="M215 578l95 142h84l-97 -142h-82zM66 218v274.999h75v-273c0 -47.333 14.333 -86.166 43 -116.499s65.667 -45.5 111 -45.5c46 0 83.167 15 111.5 45s42.5 69 42.5 117v273h75v-275c0 -70 -21.167 -126.167 -63.5 -168.5s-97.5 -63.5 -165.5 -63.5
s-123.167 21.167 -165.5 63.5s-63.5 98.5 -63.5 168.5z" />
    <glyph glyph-name="ucircumflex" unicode="&#xfb;" horiz-adv-x="591" 
d="M364 578l-69 94l-69 -94h-79l107 142h83l106 -142h-79zM449 220v272.999h75v-275c0 -70 -21.167 -126.167 -63.5 -168.5s-97.5 -63.5 -165.5 -63.5s-123.167 21.167 -165.5 63.5s-63.5 98.5 -63.5 168.5v275h75v-273c0 -47.333 14.333 -86.166 43 -116.499
s65.667 -45.5 111 -45.5c46 0 83.167 15 111.5 45s42.5 69 42.5 117z" />
    <glyph glyph-name="udieresis" unicode="&#xfc;" horiz-adv-x="591" 
d="M170 720h73v-142h-73v142zM347 720h73v-142h-73v142zM66 218v274.999h75v-273c0 -47.333 14.333 -86.166 43 -116.499s65.667 -45.5 111 -45.5c46 0 83.167 15 111.5 45s42.5 69 42.5 117v273h75v-275c0 -70 -21.167 -126.167 -63.5 -168.5s-97.5 -63.5 -165.5 -63.5
s-123.167 21.167 -165.5 63.5s-63.5 98.5 -63.5 168.5z" />
    <glyph glyph-name="yacute" unicode="&#xfd;" horiz-adv-x="562" 
d="M298 720h84l-97 -142h-82zM291 50l170.001 443h76l-225 -584c-14 -37.333 -32.833 -64.833 -56.5 -82.5s-54.5 -26.5 -92.5 -26.5h-113v75h113c21.333 0 38.166 4.33301 50.499 13s22.5 23 30.5 43l8 21l-229 541h83z" />
    <glyph glyph-name="thorn" unicode="&#xfe;" horiz-adv-x="648" 
d="M349 506c73.333 0.666992 133.668 -23.502 181.001 -72.502s71 -111.167 71 -186.5s-23.833 -137.666 -71.5 -186.999s-107.834 -73.666 -180.501 -72.999c-42 0.666992 -79.667 10.5 -113 29.5s-60 44.167 -80 75.5h-2v-292h-75v920h75v-315h2
c20 30.667 46.667 55 80 73s71 27.333 113 28zM339.002 58.998c55.333 0 100.333 18.167 135 54.5s52 80.833 52 133.5s-17.333 97 -52 133s-79.667 54 -135 54c-54.667 0 -99.167 -18 -133.5 -54s-51.5 -80.333 -51.5 -133c0 -52 17.333 -96.333 52 -133s79 -55 133 -55z
" />
    <glyph glyph-name="ydieresis" unicode="&#xff;" horiz-adv-x="562" 
d="M159 720h73v-142h-73v142zM336 720h73v-142h-73v142zM291 50l170.001 443h76l-225 -584c-14 -37.333 -32.833 -64.833 -56.5 -82.5s-54.5 -26.5 -92.5 -26.5h-113v75h113c21.333 0 38.166 4.33301 50.499 13s22.5 23 30.5 43l8 21l-229 541h83z" />
    <glyph glyph-name="Amacron" unicode="&#x100;" horiz-adv-x="749" 
d="M234 786h280v-66h-280v66zM709 0h-86l-84 195h-330l-83 -195h-86l293 670h82zM373 579l-132 -310h266z" />
    <glyph glyph-name="amacron" unicode="&#x101;" horiz-adv-x="648" 
d="M173 644h280v-66h-280v66zM494 405l0.000976562 88.002h74v-493h-74v92h-3c-43.333 -69.333 -107.666 -104.333 -192.999 -105c-72.667 -0.666992 -132.834 23.666 -180.501 72.999s-71.5 111.666 -71.5 186.999s23.667 137.5 71 186.5s108 73.167 182 72.5
c42 -0.666992 79.667 -10 113 -28s59.666 -42.333 78.999 -73h3zM309.001 59.002c54 0 98.333 18.333 133 55s52 81 52 133c0 52.667 -17.167 97 -51.5 133s-78.833 54 -133.5 54c-56 0 -101.333 -18 -136 -54s-52 -80.333 -52 -133s17.333 -97.167 52 -133.5
s80 -54.5 136 -54.5z" />
    <glyph glyph-name="Abreve" unicode="&#x102;" horiz-adv-x="749" 
d="M447 720h-144.001c-22.667 0 -41 7 -55 21s-21 32.333 -21 55v36h69v-26c0 -8.66699 2.83301 -15.834 8.5 -21.501s12.834 -8.5 21.501 -8.5h98c8.66699 0 15.834 2.83301 21.501 8.5s8.5 12.834 8.5 21.501v26h68v-36c0 -22.667 -6.83301 -41 -20.5 -55
s-31.834 -21 -54.501 -21zM708.999 0h-86l-84 195h-330l-83 -195h-86l293 670h82zM372.999 579l-132 -310h266z" />
    <glyph glyph-name="abreve" unicode="&#x103;" horiz-adv-x="648" 
d="M383 578h-139.002c-22.667 0 -41.167 7.33301 -55.5 22s-21.5 33.334 -21.5 56.001v64h65v-54c0 -8.66699 2.83301 -15.834 8.5 -21.501s12.834 -8.5 21.501 -8.5h103c8.66699 0 15.834 2.83301 21.501 8.5s8.5 12.834 8.5 21.501v54h65v-64
c0 -22.667 -7.16699 -41.334 -21.5 -56.001s-32.833 -22 -55.5 -22zM493.998 405l0.000976562 88.002h74v-493h-74v92h-3c-43.333 -69.333 -107.666 -104.333 -192.999 -105c-72.667 -0.666992 -132.834 23.666 -180.501 72.999s-71.5 111.666 -71.5 186.999
s23.667 137.5 71 186.5s108 73.167 182 72.5c42 -0.666992 79.667 -10 113 -28s59.666 -42.333 78.999 -73h3zM308.999 59.002c54 0 98.333 18.333 133 55s52 81 52 133c0 52.667 -17.167 97 -51.5 133s-78.833 54 -133.5 54c-56 0 -101.333 -18 -136 -54
s-52 -80.333 -52 -133s17.333 -97.167 52 -133.5s80 -54.5 136 -54.5z" />
    <glyph glyph-name="Aogonek" unicode="&#x104;" horiz-adv-x="749" 
d="M709 0l-79.001 -106c-5.33301 -6.66699 -6.16602 -13.5 -2.49902 -20.5s9.83398 -10.5 18.501 -10.5h63v-63h-85c-32.667 0 -55.334 12.833 -68.001 38.5s-9 51.167 11 76.5l65 85h-9l-84 195h-330l-83 -195h-86l293 670h82zM372.999 579l-132 -310h266z" />
    <glyph glyph-name="aogonek" unicode="&#x105;" horiz-adv-x="648" 
d="M568 493l0.00292969 -492.998l-79 -105c-4.66699 -7.33301 -5.33398 -14.333 -2.00098 -21s9.33301 -10 18 -10h63v-64h-82c-32.667 0 -55.334 12.833 -68.001 38.5s-9 51.167 11 76.5l65 85v92h-3c-43.333 -69.333 -107.666 -104.333 -192.999 -105
c-72.667 -0.666992 -132.834 23.666 -180.501 72.999s-71.5 111.666 -71.5 186.999s23.667 137.5 71 186.5s108 73.167 182 72.5c42 -0.666992 79.667 -10 113 -28s59.666 -42.333 78.999 -73h3v88h74zM309.003 59.002c54 0 98.333 18.333 133 55s52 81 52 133
c0 52.667 -17.167 97 -51.5 133s-78.833 54 -133.5 54c-56 0 -101.333 -18 -136 -54s-52 -80.333 -52 -133s17.333 -97.167 52 -133.5s80 -54.5 136 -54.5z" />
    <glyph glyph-name="Cacute" unicode="&#x106;" horiz-adv-x="785" 
d="M317 720l95 112h85l-98 -112h-82zM647 244l81 -0.000976562c-18 -76 -56.667 -137.667 -116 -185s-130 -71 -212 -71c-100 0 -181.833 33.5 -245.5 100.5s-95.5 149.167 -95.5 246.5c0 96.667 31.833 178.834 95.5 246.501s145.5 101.5 245.5 101.5
c81.333 0 151.5 -23.333 210.5 -70s97.833 -107.334 116.5 -182.001h-81c-16.667 52 -47 94.5 -91 127.5s-95.333 49.5 -154 49.5c-76.667 0 -140 -26.667 -190 -80s-75 -117.666 -75 -192.999c0 -76 25 -140.5 75 -193.5s113.333 -79.5 190 -79.5
c60.667 0 113.167 17 157.5 51s73.833 77.667 88.5 131z" />
    <glyph glyph-name="cacute" unicode="&#x107;" horiz-adv-x="596" 
d="M226 578l95 142h84l-97 -142h-82zM554 317h-78.0029c-11.333 34 -32.166 62 -62.499 84s-66.166 33 -107.499 33c-54 0 -98.333 -18 -133 -54s-52 -80.333 -52 -133s17.333 -97.167 52 -133.5s79 -54.5 133 -54.5c40.667 0 76.334 11.167 107.001 33.5
s51.667 51.166 63 86.499h78c-12 -56 -40.833 -102 -86.5 -138s-99.5 -54 -161.5 -54c-76 0 -138.333 25 -187 75s-73 111.667 -73 185s24.333 134.833 73 184.5s111 74.5 187 74.5c62 0 115.833 -17.667 161.5 -53s74.5 -80.666 86.5 -135.999z" />
    <glyph glyph-name="Cdotaccent" unicode="&#x10a;" horiz-adv-x="785" 
d="M355 832h75v-112h-75v112zM647 244l81 -0.000976562c-18 -76 -56.667 -137.667 -116 -185s-130 -71 -212 -71c-100 0 -181.833 33.5 -245.5 100.5s-95.5 149.167 -95.5 246.5c0 96.667 31.833 178.834 95.5 246.501s145.5 101.5 245.5 101.5
c81.333 0 151.5 -23.333 210.5 -70s97.833 -107.334 116.5 -182.001h-81c-16.667 52 -47 94.5 -91 127.5s-95.333 49.5 -154 49.5c-76.667 0 -140 -26.667 -190 -80s-75 -117.666 -75 -192.999c0 -76 25 -140.5 75 -193.5s113.333 -79.5 190 -79.5
c60.667 0 113.167 17 157.5 51s73.833 77.667 88.5 131z" />
    <glyph glyph-name="cdotaccent" unicode="&#x10b;" horiz-adv-x="596" 
d="M269 720h75v-142h-75v142zM554 317h-78.0029c-11.333 34 -32.166 62 -62.499 84s-66.166 33 -107.499 33c-54 0 -98.333 -18 -133 -54s-52 -80.333 -52 -133s17.333 -97.167 52 -133.5s79 -54.5 133 -54.5c40.667 0 76.334 11.167 107.001 33.5s51.667 51.166 63 86.499
h78c-12 -56 -40.833 -102 -86.5 -138s-99.5 -54 -161.5 -54c-76 0 -138.333 25 -187 75s-73 111.667 -73 185s24.333 134.833 73 184.5s111 74.5 187 74.5c62 0 115.833 -17.667 161.5 -53s74.5 -80.666 86.5 -135.999z" />
    <glyph glyph-name="Ccaron" unicode="&#x10c;" horiz-adv-x="785" 
d="M351 720l-105 112h83l66 -73l65 73h83l-105 -112h-87zM647 244l81 -0.000976562c-18 -76 -56.667 -137.667 -116 -185s-130 -71 -212 -71c-100 0 -181.833 33.5 -245.5 100.5s-95.5 149.167 -95.5 246.5c0 96.667 31.833 178.834 95.5 246.501s145.5 101.5 245.5 101.5
c81.333 0 151.5 -23.333 210.5 -70s97.833 -107.334 116.5 -182.001h-81c-16.667 52 -47 94.5 -91 127.5s-95.333 49.5 -154 49.5c-76.667 0 -140 -26.667 -190 -80s-75 -117.666 -75 -192.999c0 -76 25 -140.5 75 -193.5s113.333 -79.5 190 -79.5
c60.667 0 113.167 17 157.5 51s73.833 77.667 88.5 131z" />
    <glyph glyph-name="ccaron" unicode="&#x10d;" horiz-adv-x="596" 
d="M265 578l-106 142h79l69 -94l69 94h79l-107 -142h-83zM306 59c40.667 0 76.3311 11.167 106.998 33.5s51.667 51.166 63 86.499h78c-12 -56 -40.833 -102 -86.5 -138s-99.5 -54 -161.5 -54c-76 0 -138.333 25 -187 75s-73 111.667 -73 185s24.333 134.833 73 184.5
s111 74.5 187 74.5c62 0 115.833 -17.667 161.5 -53s74.5 -80.666 86.5 -135.999h-78c-11.333 34 -32.166 62 -62.499 84s-66.166 33 -107.499 33c-54 0 -98.333 -18 -133 -54s-52 -80.333 -52 -133s17.333 -97.167 52 -133.5s79 -54.5 133 -54.5z" />
    <glyph glyph-name="Dcaron" unicode="&#x10e;" horiz-adv-x="754" 
d="M311 720l-105 112h83l66 -73l65 73h83l-105 -112h-87zM99 670h262c95.333 0 174.5 -31.5 237.5 -94.5s94.5 -142.5 94.5 -238.5v-3c0 -96 -31.5 -175.5 -94.5 -238.5s-142.167 -94.5 -237.5 -94.5h-262v669zM616 334v3.00195c0 75.333 -24.167 137.166 -72.5 185.499
s-109.5 72.5 -183.5 72.5h-184v-519h184c74 0 135.167 24.167 183.5 72.5s72.5 110.166 72.5 185.499z" />
    <glyph glyph-name="dcaron" unicode="&#x10f;" horiz-adv-x="725" 
d="M491 401l2.99902 0.00292969v319h74v-720h-74v88h-3c-19.333 -30.667 -45.666 -55 -78.999 -73s-71 -27.333 -113 -28c-73.333 -0.666992 -133.833 23.666 -181.5 72.999s-71.5 111.333 -71.5 186c0 75.333 24 137.666 72 186.999s108 73.666 180 72.999
c42 0 79.667 -9.5 113 -28.5s60 -44.5 80 -76.5zM624.999 506.003l27 214h73l-35 -214h-65zM308.999 59.0029c54.667 0 99.167 18 133.5 54s51.5 80.333 51.5 133s-17.167 97.167 -51.5 133.5s-78.833 54.5 -133.5 54.5c-56 0 -101.333 -18.167 -136 -54.5
s-52 -80.833 -52 -133.5s17.333 -97 52 -133s80 -54 136 -54z" />
    <glyph glyph-name="Dcroat" unicode="&#x110;" horiz-adv-x="780" 
d="M126 670h261c96 0 175.5 -31.5 238.5 -94.5s94.5 -142.5 94.5 -238.5v-3c0 -96 -31.5 -175.5 -94.5 -238.5s-142.5 -94.5 -238.5 -94.5h-261v314h-82v66h82v289zM643 334v3.00195c0 75.333 -24.167 137.166 -72.5 185.499s-109.5 72.5 -183.5 72.5h-184v-214h215v-66
h-215v-239h184c74 0 135.167 24.167 183.5 72.5s72.5 110.166 72.5 185.499z" />
    <glyph glyph-name="dcroat" unicode="&#x111;" horiz-adv-x="648" 
d="M568 643l76.999 0.00292969v-65h-77v-578h-74v88h-3c-19.333 -30.667 -45.666 -55 -78.999 -73s-71 -27.333 -113 -28c-73.333 -0.666992 -133.833 23.666 -181.5 72.999s-71.5 111.333 -71.5 186c0 75.333 24 137.666 72 186.999s108 73.666 180 72.999
c42 0 79.667 -9.5 113 -28.5s60 -44.5 80 -76.5h3v177h-192v65h192v77h74v-77zM308.999 59.0029c54.667 0 99.167 18 133.5 54s51.5 80.333 51.5 133s-17.167 97.167 -51.5 133.5s-78.833 54.5 -133.5 54.5c-56 0 -101.333 -18.167 -136 -54.5s-52 -80.833 -52 -133.5
s17.333 -97 52 -133s80 -54 136 -54z" />
    <glyph glyph-name="Emacron" unicode="&#x112;" horiz-adv-x="648" 
d="M487 720h-280v66h280v-66zM588 0h-489v670h489v-75h-412v-212h382v-75h-382v-233h412v-75z" />
    <glyph glyph-name="emacron" unicode="&#x113;" horiz-adv-x="599" 
d="M160 644h280v-66h-280v66zM301 506c77.333 0 139.666 -27 186.999 -81s68.666 -122.333 63.999 -205h-427c3.33301 -46 21.666 -84.333 54.999 -115s75 -46 125 -46c36.667 0 69.334 8.5 98.001 25.5s49.334 39.833 62.001 68.5h78c-16.667 -50.667 -46.667 -91 -90 -121
s-93.666 -45 -150.999 -45c-76 0 -137.667 25 -185 75s-71 111.333 -71 184s24 134.167 72 184.5s109 75.5 183 75.5zM299 434c-46 0 -84.833 -13.8311 -116.5 -41.498s-50.167 -62.834 -55.5 -105.501h345c-6.66699 43.333 -25.667 78.666 -57 105.999s-70 41 -116 41z" />
    <glyph glyph-name="Edotaccent" unicode="&#x116;" horiz-adv-x="648" 
d="M309 832h75v-112h-75v112zM588 0h-489v670h489v-75h-412v-212h382v-75h-382v-233h412v-75z" />
    <glyph glyph-name="edotaccent" unicode="&#x117;" horiz-adv-x="599" 
d="M262 720h75v-142h-75v142zM301 506c77.333 0 139.666 -27 186.999 -81s68.666 -122.333 63.999 -205h-427c3.33301 -46 21.666 -84.333 54.999 -115s75 -46 125 -46c36.667 0 69.334 8.5 98.001 25.5s49.334 39.833 62.001 68.5h78c-16.667 -50.667 -46.667 -91 -90 -121
s-93.666 -45 -150.999 -45c-76 0 -137.667 25 -185 75s-71 111.333 -71 184s24 134.167 72 184.5s109 75.5 183 75.5zM299 434c-46 0 -84.833 -13.8311 -116.5 -41.498s-50.167 -62.834 -55.5 -105.501h345c-6.66699 43.333 -25.667 78.666 -57 105.999s-70 41 -116 41z" />
    <glyph glyph-name="Eogonek" unicode="&#x118;" horiz-adv-x="648" 
d="M589 0l-79.001 -106c-5.33301 -6.66699 -6.16602 -13.5 -2.49902 -20.5s9.83398 -10.5 18.501 -10.5h63v-63h-85c-32.667 0 -55.334 12.833 -68.001 38.5s-9 51.167 11 76.5l65 85h-413v670h489v-75h-412v-212h382v-75h-382v-233h412v-75h1z" />
    <glyph glyph-name="eogonek" unicode="&#x119;" horiz-adv-x="599" 
d="M301 506c77.333 0 139.669 -27 187.002 -81s68.666 -122.333 63.999 -205h-427c3.33301 -46 21.666 -84.333 54.999 -115s75 -46 125 -46c36.667 0 69.334 8.5 98.001 25.5s49.334 39.833 62.001 68.5h78c-12.667 -38 -32.667 -70.333 -60 -97s-60 -45.667 -98 -57
l-78 -104c-4.66699 -7.33301 -5.33398 -14.333 -2.00098 -21s9.33301 -10 18 -10h63v-64h-82c-32.667 0 -55.334 12.833 -68.001 38.5s-9 51.167 11 76.5l55 72c-76 0 -137.667 25 -185 75s-71 111.333 -71 184s24 134.167 72 184.5s109 75.5 183 75.5zM299.003 434
c-46 0 -84.833 -13.8311 -116.5 -41.498s-50.167 -62.834 -55.5 -105.501h345c-6.66699 43.333 -25.667 78.666 -57 105.999s-70 41 -116 41z" />
    <glyph glyph-name="Ecaron" unicode="&#x11a;" horiz-adv-x="648" 
d="M304 720l-105 112h83l66 -73l65 73h83l-105 -112h-87zM588 670v-75h-412v-212h382v-75h-382v-233h412v-75h-489v670h489z" />
    <glyph glyph-name="ecaron" unicode="&#x11b;" horiz-adv-x="599" 
d="M259 578l-106 142h79l69 -94l69 94h79l-107 -142h-83zM301 506c77.333 0 139.666 -27 186.999 -81s68.666 -122.333 63.999 -205h-427c3.33301 -46 21.666 -84.333 54.999 -115s75 -46 125 -46c36.667 0 69.334 8.5 98.001 25.5s49.334 39.833 62.001 68.5h78
c-16.667 -50.667 -46.667 -91 -90 -121s-93.666 -45 -150.999 -45c-76 0 -137.667 25 -185 75s-71 111.333 -71 184s24 134.167 72 184.5s109 75.5 183 75.5zM299 434c-46 0 -84.833 -13.8311 -116.5 -41.498s-50.167 -62.834 -55.5 -105.501h345
c-6.66699 43.333 -25.667 78.666 -57 105.999s-70 41 -116 41z" />
    <glyph glyph-name="Gbreve" unicode="&#x11e;" horiz-adv-x="804" 
d="M476 720h-144.001c-22.667 0 -41 7 -55 21s-21 32.333 -21 55v36h69v-26c0 -8.66699 2.83301 -15.834 8.5 -21.501s12.834 -8.5 21.501 -8.5h98c8.66699 0 15.834 2.83301 21.501 8.5s8.5 12.834 8.5 21.501v26h68v-36c0 -22.667 -6.83301 -41 -20.5 -55
s-31.834 -21 -54.501 -21zM405.999 268l-0.00292969 74.001h343c-0.666992 -104 -33.167 -189 -97.5 -255s-146.166 -99 -245.499 -99s-181.666 33.667 -246.999 101s-98 149.333 -98 246c0 97.333 32.5 179.666 97.5 246.999s147.5 101 247.5 101
c78.667 0 147.667 -21.833 207 -65.5s99.666 -100.167 120.999 -169.5h-83c-19.333 46.667 -51 85 -95 115s-94.333 45 -151 45c-77.333 0 -141.166 -26.333 -191.499 -79s-75.5 -117 -75.5 -193s25.5 -140.5 76.5 -193.5s115.167 -79.833 192.5 -80.5
c66 -0.666992 122.333 18 169 56s76.334 88 89.001 150h-259z" />
    <glyph glyph-name="gbreve" unicode="&#x11f;" horiz-adv-x="648" 
d="M384 578h-139.002c-22.667 0 -41.167 7.33301 -55.5 22s-21.5 33.334 -21.5 56.001v64h65v-54c0 -8.66699 2.83301 -15.834 8.5 -21.501s12.834 -8.5 21.501 -8.5h103c8.66699 0 15.834 2.83301 21.501 8.5s8.5 12.834 8.5 21.501v54h65v-64
c0 -22.667 -7.16699 -41.334 -21.5 -56.001s-32.833 -22 -55.5 -22zM493.998 405l0.000976562 88.002h74v-541c0 -48.667 -13 -86.167 -39 -112.5s-63.333 -39.5 -112 -39.5h-308v73h301c55.333 0 83 28 83 84l1 90v45h-3c-43.333 -69.333 -107.666 -104.333 -192.999 -105
c-72.667 -0.666992 -132.834 23.666 -180.501 72.999s-71.5 111.666 -71.5 186.999s23.667 137.5 71 186.5s108 73.167 182 72.5c42 -0.666992 79.667 -10 113 -28s59.666 -42.333 78.999 -73h3zM308.999 59.002c54 0 98.333 18.333 133 55s52 81 52 133
c0 52.667 -17.167 97 -51.5 133s-78.833 54 -133.5 54c-56 0 -101.333 -18 -136 -54s-52 -80.333 -52 -133s17.333 -97.167 52 -133.5s80 -54.5 136 -54.5z" />
    <glyph glyph-name="Gdotaccent" unicode="&#x120;" horiz-adv-x="804" 
d="M366 832h75v-112h-75v112zM406 268l-0.00292969 74.001h343c-0.666992 -104 -33.167 -189 -97.5 -255s-146.166 -99 -245.499 -99s-181.666 33.667 -246.999 101s-98 149.333 -98 246c0 97.333 32.5 179.666 97.5 246.999s147.5 101 247.5 101
c78.667 0 147.667 -21.833 207 -65.5s99.666 -100.167 120.999 -169.5h-83c-19.333 46.667 -51 85 -95 115s-94.333 45 -151 45c-77.333 0 -141.166 -26.333 -191.499 -79s-75.5 -117 -75.5 -193s25.5 -140.5 76.5 -193.5s115.167 -79.833 192.5 -80.5
c66 -0.666992 122.333 18 169 56s76.334 88 89.001 150h-259z" />
    <glyph glyph-name="gdotaccent" unicode="&#x121;" horiz-adv-x="648" 
d="M277 720h75v-142h-75v142zM494 405l0.000976562 88.002h74v-541c0 -48.667 -13 -86.167 -39 -112.5s-63.333 -39.5 -112 -39.5h-308v73h301c55.333 0 83 28 83 84l1 90v45h-3c-43.333 -69.333 -107.666 -104.333 -192.999 -105
c-72.667 -0.666992 -132.834 23.666 -180.501 72.999s-71.5 111.666 -71.5 186.999s23.667 137.5 71 186.5s108 73.167 182 72.5c42 -0.666992 79.667 -10 113 -28s59.666 -42.333 78.999 -73h3zM309.001 59.002c54 0 98.333 18.333 133 55s52 81 52 133
c0 52.667 -17.167 97 -51.5 133s-78.833 54 -133.5 54c-56 0 -101.333 -18 -136 -54s-52 -80.333 -52 -133s17.333 -97.167 52 -133.5s80 -54.5 136 -54.5z" />
    <glyph glyph-name="uni0122" unicode="&#x122;" horiz-adv-x="804" 
d="M406 268l-0.00292969 74.001h343c-0.666992 -104 -33.167 -189 -97.5 -255s-146.166 -99 -245.499 -99s-181.666 33.667 -246.999 101s-98 149.333 -98 246c0 97.333 32.5 179.666 97.5 246.999s147.5 101 247.5 101c78.667 0 147.667 -21.833 207 -65.5
s99.666 -100.167 120.999 -169.5h-83c-19.333 46.667 -51 85 -95 115s-94.333 45 -151 45c-77.333 0 -141.166 -26.333 -191.499 -79s-75.5 -117 -75.5 -193s25.5 -140.5 76.5 -193.5s115.167 -79.833 192.5 -80.5c66 -0.666992 122.333 18 169 56s76.334 88 89.001 150
h-259zM389.997 -199.999h-82l95 142h84z" />
    <glyph glyph-name="uni0123" unicode="&#x123;" horiz-adv-x="648" 
d="M323 720h82l-96 -142h-84zM494 405l0.000976562 88.002h74v-541c0 -48.667 -13 -86.167 -39 -112.5s-63.333 -39.5 -112 -39.5h-308v73h301c55.333 0 83 28 83 84l1 90v45h-3c-43.333 -69.333 -107.666 -104.333 -192.999 -105
c-72.667 -0.666992 -132.834 23.666 -180.501 72.999s-71.5 111.666 -71.5 186.999s23.667 137.5 71 186.5s108 73.167 182 72.5c42 -0.666992 79.667 -10 113 -28s59.666 -42.333 78.999 -73h3zM309.001 59.002c54 0 98.333 18.333 133 55s52 81 52 133
c0 52.667 -17.167 97 -51.5 133s-78.833 54 -133.5 54c-56 0 -101.333 -18 -136 -54s-52 -80.333 -52 -133s17.333 -97.167 52 -133.5s80 -54.5 136 -54.5z" />
    <glyph glyph-name="Hbar" unicode="&#x126;" horiz-adv-x="786" 
d="M676 559h58v-66h-58v-493h-77v310h-412v-310h-77v493h-55v66h55v111h77v-111h412v111h77v-111zM187 385h412v108h-412v-108z" />
    <glyph glyph-name="hbar" unicode="&#x127;" horiz-adv-x="613" 
d="M338 506c62 0 111.999 -19.8311 149.999 -59.498s57 -92.834 57 -159.501v-287h-75v274c0 47.333 -13.167 85.666 -39.5 114.999s-61.833 44 -106.5 44c-49.333 0 -90 -17.667 -122 -53s-48 -80 -48 -134v-246h-75v578h-84v65h84v77h75v-77h185v-65h-185v-171h2
c42.667 66 103.334 99 182.001 99z" />
    <glyph glyph-name="Imacron" unicode="&#x12a;" horiz-adv-x="275" 
d="M278 720h-280v66h280v-66zM99 0v670h77v-670h-77z" />
    <glyph glyph-name="imacron" unicode="&#x12b;" horiz-adv-x="234" 
d="M257 578h-280v66h280v-66zM79 493h75v-493h-75v493z" />
    <glyph glyph-name="Iogonek" unicode="&#x12e;" horiz-adv-x="275" 
d="M176 670l-0.000976562 -670l-79 -106c-5.33301 -6.66699 -6.16602 -13.5 -2.49902 -20.5s9.83398 -10.5 18.501 -10.5h63v-63h-85c-32.667 0 -55.334 12.833 -68.001 38.5s-9 51.167 11 76.5l65 85v670h77z" />
    <glyph glyph-name="iogonek" unicode="&#x12f;" horiz-adv-x="234" 
d="M79 578v142h75v-142h-75zM14 -85l65.002 85v493h75v-493h-1l-79 -105c-4.66699 -7.33301 -5.33398 -14.333 -2.00098 -21s9.33301 -10 18 -10h63v-64h-82c-32.667 0 -55.334 12.833 -68.001 38.5s-9 51.167 11 76.5z" />
    <glyph glyph-name="Idotaccent" unicode="&#x130;" horiz-adv-x="275" 
d="M100 832h75v-112h-75v112zM99 0v670h77v-670h-77z" />
    <glyph glyph-name="dotlessi" unicode="&#x131;" horiz-adv-x="234" 
d="M79 493h75v-493h-75v493z" />
    <glyph glyph-name="uni0136" unicode="&#x136;" horiz-adv-x="731" 
d="M497 383h27c78.667 0 118 -38.667 118 -116v-267h-76v255c0 36 -18.667 54 -56 54h-334v-309h-77v670h77v-287h239l150 287h85zM336 -200h-82l95 142h84z" />
    <glyph glyph-name="uni0137" unicode="&#x137;" horiz-adv-x="586" 
d="M398 301h6.00098c37.333 0 66.166 -9.83301 86.499 -29.5s30.5 -48.167 30.5 -85.5v-186h-75v176c0 36 -18.333 54 -55 54h-237v-230h-75v720h75v-419h159l129 192h83zM278.001 -200h-82l95 142h84z" />
    <glyph glyph-name="Lacute" unicode="&#x139;" horiz-adv-x="606" 
d="M139 720l95 112h85l-98 -112h-82zM99 0v670h78v-595h386v-75h-464z" />
    <glyph glyph-name="lacute" unicode="&#x13a;" horiz-adv-x="315" 
d="M72 770l95 112h85l-98 -112h-82zM75 119v600.999h75v-593c0 -17.333 4.83301 -30.666 14.5 -39.999s23.167 -14 40.5 -14h83v-73h-92c-39.333 -0 -69.333 10.333 -90 31s-31 50 -31 88z" />
    <glyph glyph-name="uni013B" unicode="&#x13b;" horiz-adv-x="606" 
d="M99 0v670h78v-595h386v-75h-464zM198 -200l95 142h84l-97 -142h-82z" />
    <glyph glyph-name="uni013C" unicode="&#x13c;" horiz-adv-x="315" 
d="M75 119v600.999h75v-593c0 -17.333 4.83301 -30.666 14.5 -39.999s23.167 -14 40.5 -14h83v-73h-92c-39.333 -0 -69.333 10.333 -90 31s-31 50 -31 88zM65 -200.001l95 142h84l-97 -142h-82z" />
    <glyph glyph-name="Lcaron" unicode="&#x13d;" horiz-adv-x="606" 
d="M99 0v670h78v-595h386v-75h-464zM286 456l27 214h73l-35 -214h-65z" />
    <glyph glyph-name="lcaron" unicode="&#x13e;" horiz-adv-x="322" 
d="M75 119v600.999h75v-593c0 -17.333 4.83301 -30.666 14.5 -39.999s23.167 -14 40.5 -14h83v-73h-92c-39.333 -0 -69.333 10.333 -90 31s-31 50 -31 88zM211 505.999l27 214h73l-35 -214h-65z" />
    <glyph glyph-name="Lslash" unicode="&#x141;" horiz-adv-x="637" 
d="M209 307v-232h387v-75h-464v260l-86 -52v75l86 52v335h77v-288l203 124v-75z" />
    <glyph glyph-name="lslash" unicode="&#x142;" horiz-adv-x="360" 
d="M321 506v-76.001l-140 -79v-224c0 -17.333 4.83301 -30.666 14.5 -39.999s23.167 -14 40.5 -14h83v-73h-92c-39.333 -0 -69.333 10.333 -90 31s-31 50 -31 88v189l-75 -42v75l75 43v336h75v-294z" />
    <glyph glyph-name="Nacute" unicode="&#x143;" horiz-adv-x="788" 
d="M412 832h85l-98 -112h-82zM612 130v540h76v-670h-76l-436 571v-571h-77v670h95z" />
    <glyph glyph-name="nacute" unicode="&#x144;" horiz-adv-x="613" 
d="M327 720h84l-97 -142h-82zM338 506c62 0 112 -19.832 150 -59.499s57 -92.834 57 -159.501v-287h-75v274c0 47.333 -13.167 85.666 -39.5 114.999s-61.833 44 -106.5 44c-49.333 0 -90 -17.667 -122 -53s-48 -80 -48 -134v-246h-75v493h74v-86h2
c19.333 30.667 45 54.834 77 72.501s67.333 26.5 106 26.5z" />
    <glyph glyph-name="uni0145" unicode="&#x145;" horiz-adv-x="788" 
d="M612 130v540h76v-670h-76l-436 571v-571h-77v670h95zM372 -200h-82l95 142h84z" />
    <glyph glyph-name="uni0146" unicode="&#x146;" horiz-adv-x="613" 
d="M338 506c62 0 112 -19.832 150 -59.499s57 -92.834 57 -159.501v-287h-75v274c0 47.333 -13.167 85.666 -39.5 114.999s-61.833 44 -106.5 44c-49.333 0 -90 -17.667 -122 -53s-48 -80 -48 -134v-246h-75v493h74v-86h2c19.333 30.667 45 54.834 77 72.501
s67.333 26.5 106 26.5zM305 -199.999h-82l95 142h84z" />
    <glyph glyph-name="Ncaron" unicode="&#x147;" horiz-adv-x="788" 
d="M351 720l-105 112h83l66 -73l65 73h83l-105 -112h-87zM612 130v540h76v-670h-76l-436 571v-571h-77v670h95z" />
    <glyph glyph-name="ncaron" unicode="&#x148;" horiz-adv-x="613" 
d="M271 578l-106 142h79l69 -94l69 94h79l-107 -142h-83zM338 506c62 0 112 -19.832 150 -59.499s57 -92.834 57 -159.501v-287h-75v274c0 47.333 -13.167 85.666 -39.5 114.999s-61.833 44 -106.5 44c-49.333 0 -90 -17.667 -122 -53s-48 -80 -48 -134v-246h-75v493h74v-86
h2c19.333 30.667 45 54.834 77 72.501s67.333 26.5 106 26.5z" />
    <glyph glyph-name="Eng" unicode="&#x14a;" horiz-adv-x="788" 
d="M612 130l-0.000976562 540h76v-755c0 -37.333 -10.167 -65.833 -30.5 -85.5s-49.166 -29.5 -86.499 -29.5h-119v76h105c36.667 0 55 17.667 55 53v71l-436 571v-571h-77v670h95z" />
    <glyph glyph-name="eng" unicode="&#x14b;" horiz-adv-x="613" 
d="M338 506c62 0 111.999 -19.832 149.999 -59.499s57 -92.834 57 -159.501v-372c0 -37.333 -10.167 -65.833 -30.5 -85.5s-49.166 -29.5 -86.499 -29.5h-119v74h106c36.667 0 55 18 55 54v346c0 47.333 -13.167 85.666 -39.5 114.999s-61.833 44 -106.5 44
c-49.333 0 -90 -17.667 -122 -53s-48 -80 -48 -134v-246h-75v493h74v-86h2c19.333 30.667 45 54.834 77 72.501s67.333 26.5 106 26.5z" />
    <glyph glyph-name="Omacron" unicode="&#x14c;" horiz-adv-x="818" 
d="M549 720h-280v66h280v-66zM409 -12c-101.333 0 -184.665 33.5 -249.998 100.5s-98 149.167 -98 246.5s32.667 179.666 98 246.999s148.666 101 249.999 101s184.666 -33.667 249.999 -101s98 -149.666 98 -246.999s-32.5 -179.5 -97.5 -246.5
s-148.5 -100.5 -250.5 -100.5zM409.001 62c79.333 0 144.333 26.5 195 79.5s76 117.5 76 193.5s-25.5 140.5 -76.5 193.5s-115.833 79.5 -194.5 79.5s-143.5 -26.5 -194.5 -79.5s-76.5 -117.5 -76.5 -193.5s25.5 -140.5 76.5 -193.5s115.833 -79.5 194.5 -79.5z" />
    <glyph glyph-name="omacron" unicode="&#x14d;" horiz-adv-x="616" 
d="M448 578h-280v66h280v-66zM310 -13c-77.333 0 -140.834 25.167 -190.501 75.5s-74.5 111.833 -74.5 184.5c0 73.333 24.667 134.833 74 184.5s113 74.5 191 74.5c76.667 0 139.334 -24.833 188.001 -74.5s73 -111.167 73 -184.5c0 -72.667 -24.5 -134.167 -73.5 -184.5
s-111.5 -75.5 -187.5 -75.5zM309.999 59c54.667 0 99.334 18.333 134.001 55s52 81 52 133c0 52.667 -17.333 97 -52 133s-79.334 54 -134.001 54c-56 0 -101.5 -18 -136.5 -54s-52.5 -80.333 -52.5 -133s17.5 -97.167 52.5 -133.5s80.5 -54.5 136.5 -54.5z" />
    <glyph glyph-name="Ohungarumlaut" unicode="&#x150;" horiz-adv-x="818" 
d="M232 720l95 112h85l-98 -112h-82zM407 720l95 112h84l-97 -112h-82zM409 -12c-101.333 0 -184.665 33.5 -249.998 100.5s-98 149.167 -98 246.5s32.667 179.666 98 246.999s148.666 101 249.999 101s184.666 -33.667 249.999 -101s98 -149.666 98 -246.999
s-32.5 -179.5 -97.5 -246.5s-148.5 -100.5 -250.5 -100.5zM409.001 62c79.333 0 144.333 26.5 195 79.5s76 117.5 76 193.5s-25.5 140.5 -76.5 193.5s-115.833 79.5 -194.5 79.5s-143.5 -26.5 -194.5 -79.5s-76.5 -117.5 -76.5 -193.5s25.5 -140.5 76.5 -193.5
s115.833 -79.5 194.5 -79.5z" />
    <glyph glyph-name="ohungarumlaut" unicode="&#x151;" horiz-adv-x="616" 
d="M158 578l95 142h84l-97 -142h-82zM333 578l95 142h84l-97 -142h-82zM310 -13c-77.333 0 -140.834 25.167 -190.501 75.5s-74.5 111.833 -74.5 184.5c0 73.333 24.667 134.833 74 184.5s113 74.5 191 74.5c76.667 0 139.334 -24.833 188.001 -74.5s73 -111.167 73 -184.5
c0 -72.667 -24.5 -134.167 -73.5 -184.5s-111.5 -75.5 -187.5 -75.5zM309.999 59c54.667 0 99.334 18.333 134.001 55s52 81 52 133c0 52.667 -17.333 97 -52 133s-79.334 54 -134.001 54c-56 0 -101.5 -18 -136.5 -54s-52.5 -80.333 -52.5 -133s17.5 -97.167 52.5 -133.5
s80.5 -54.5 136.5 -54.5z" />
    <glyph glyph-name="OE" unicode="&#x152;" horiz-adv-x="1187" 
d="M1127 670l0.000976562 -74.999h-395v-212h365v-75h-365v-233h395v-75h-472v112c-63.333 -82.667 -150 -124 -260 -124c-98.667 0 -178.834 33.333 -240.501 100s-92.5 149 -92.5 247c0 97.333 31 179.666 93 246.999s142 101 240 101c110 0 196.667 -41.667 260 -125v112
h472zM396.001 62.001c76.667 0 138.834 26.333 186.501 79s71.5 117.334 71.5 194.001s-23.833 141.334 -71.5 194.001s-109.834 79 -186.501 79c-76 0 -137.833 -26.333 -185.5 -79s-71.5 -117.334 -71.5 -194.001s23.833 -141.334 71.5 -194.001s109.5 -79 185.5 -79z" />
    <glyph glyph-name="oe" unicode="&#x153;" horiz-adv-x="1042" 
d="M751 506c76 0 137.168 -27 183.501 -81s67.166 -122.333 62.499 -205h-428c3.33301 -45.333 21.833 -83.5 55.5 -114.5s75.5 -46.5 125.5 -46.5c36.667 0 69.334 8.5 98.001 25.5s49 39.833 61 68.5h79c-16.667 -51.333 -46 -91.833 -88 -121.5s-91 -44.5 -147 -44.5
c-50 0 -94.167 11.833 -132.5 35.5s-67.833 55.834 -88.5 96.501c-21.333 -40.667 -51.5 -72.834 -90.5 -96.501s-83.833 -35.5 -134.5 -35.5c-76.667 0 -139.5 25.167 -188.5 75.5s-73.5 111.833 -73.5 184.5c0 73.333 24.5 134.833 73.5 184.5s111.833 74.5 188.5 74.5
c50.667 0 95.667 -11.833 135 -35.5s69.666 -55.834 90.999 -96.501c20.667 40.667 50 72.834 88 96.501s81.333 35.5 130 35.5zM310.001 59c54.667 0 99.334 18.333 134.001 55s52 81 52 133c0 52.667 -17.333 97 -52 133s-79.334 54 -134.001 54
c-56 0 -101.5 -18 -136.5 -54s-52.5 -80.333 -52.5 -133s17.5 -97.167 52.5 -133.5s80.5 -54.5 136.5 -54.5zM744.001 434c-46 0 -84.833 -13.832 -116.5 -41.499s-50.5 -62.834 -56.5 -105.501h346c-7.33301 44 -26.5 79.5 -57.5 106.5s-69.5 40.5 -115.5 40.5z" />
    <glyph glyph-name="Racute" unicode="&#x154;" horiz-adv-x="738" 
d="M281 720l95 112h85l-98 -112h-82zM176 0l-77 0.000976562v670h331c64.667 0 116.667 -17.333 156 -52s59 -79.667 59 -135c0 -64.667 -25.333 -113.334 -76 -146.001v-2c56 -8.66699 84 -45.667 84 -111v-224h-76v210c0 36 -19.333 54 -58 54h-343v-264zM176 595.001
l-0.000976562 -256.999h250c42.667 0 76.834 12 102.501 36s38.5 54.667 38.5 92s-13 68.166 -39 92.499s-59.667 36.5 -101 36.5h-251z" />
    <glyph glyph-name="racute" unicode="&#x155;" horiz-adv-x="440" 
d="M275 720h84l-97 -142h-82zM326 493h87v-75h-90c-52 0 -93.167 -16 -123.5 -48s-45.5 -77 -45.5 -135v-235h-75v493h73v-98h3c28 65.333 85 98 171 98z" />
    <glyph glyph-name="uni0156" unicode="&#x156;" horiz-adv-x="738" 
d="M176 0l-77 0.000976562v670h331c64.667 0 116.667 -17.333 156 -52s59 -79.667 59 -135c0 -64.667 -25.333 -113.334 -76 -146.001v-2c56 -8.66699 84 -45.667 84 -111v-224h-76v210c0 36 -19.333 54 -58 54h-343v-264zM176 595.001l-0.000976562 -256.999h250
c42.667 0 76.834 12 102.501 36s38.5 54.667 38.5 92s-13 68.166 -39 92.499s-59.667 36.5 -101 36.5h-251zM260.999 -199.998l95 142h84l-97 -142h-82z" />
    <glyph glyph-name="uni0157" unicode="&#x157;" horiz-adv-x="440" 
d="M326 493h87v-75h-90c-52 0 -93.167 -16 -123.5 -48s-45.5 -77 -45.5 -135v-235h-75v493h73v-98h3c28 65.333 85 98 171 98zM159 -200h-82l95 142h84z" />
    <glyph glyph-name="Rcaron" unicode="&#x158;" horiz-adv-x="738" 
d="M315 720l-105 112h83l66 -73l65 73h83l-105 -112h-87zM569 337v-1.99902c56 -8.66699 84 -45.667 84 -111v-224h-76v210c0 36 -19.333 54 -58 54h-343v-264h-77v670h331c64.667 0 116.667 -17.333 156 -52s59 -79.667 59 -135c0 -64.667 -25.333 -113.334 -76 -146.001z
M176 338.001l249.999 0.000976562c42.667 0 76.834 12 102.501 36s38.5 54.667 38.5 92s-13 68.166 -39 92.499s-59.667 36.5 -101 36.5h-251v-257z" />
    <glyph glyph-name="rcaron" unicode="&#x159;" horiz-adv-x="440" 
d="M219 578l-106 142h79l69 -94l69 94h79l-107 -142h-83zM326 493h87v-75h-90c-52 0 -93.167 -16 -123.5 -48s-45.5 -77 -45.5 -135v-235h-75v493h73v-98h3c28 65.333 85 98 171 98z" />
    <glyph glyph-name="Sacute" unicode="&#x15a;" horiz-adv-x="661" 
d="M256 720l95 112h85l-98 -112h-82zM238 670l325.001 -0.00390625v-75h-321c-30.667 0 -55.167 -9.16699 -73.5 -27.5s-27.5 -40.166 -27.5 -65.499c0 -20.667 6.5 -39.5 19.5 -56.5s31.5 -28.5 55.5 -34.5l250 -62c45.333 -11.333 80 -33.166 104 -65.499
s36 -67.5 36 -105.5c0 -48 -16.667 -89.667 -50 -125s-79 -53 -137 -53h-339v75h336c32.667 0 58.667 10.167 78 30.5s29 43.833 29 70.5c0 21.333 -7 41.333 -21 60s-33.667 31.334 -59 38.001l-251 62c-43.333 10.667 -76.5 31.334 -99.5 62.001s-34.5 64.667 -34.5 102
c0 45.333 16.167 85 48.5 119s76.166 51 131.499 51z" />
    <glyph glyph-name="sacute" unicode="&#x15b;" horiz-adv-x="528" 
d="M185 578l95 142h84l-97 -142h-82zM183 493l270 0.000976562v-72h-269c-18.667 0 -33.5 -5.16699 -44.5 -15.5s-16.5 -23.833 -16.5 -40.5c0 -13.333 4.16699 -25.333 12.5 -36s19.5 -17.334 33.5 -20.001l208 -46c34 -8 60.833 -23.667 80.5 -47s29.5 -51 29.5 -83
c0 -38.667 -13.167 -70.5 -39.5 -95.5s-60.166 -37.5 -101.499 -37.5h-284v73h283c18.667 0 34 5.5 46 16.5s18 25.5 18 43.5c0 31.333 -16.333 50.666 -49 57.999l-208 46c-32.667 6.66699 -58.834 21.834 -78.501 45.501s-29.5 50.834 -29.5 81.501
c0 37.333 13 68.166 39 92.499s59.333 36.5 100 36.5z" />
    <glyph glyph-name="Scedilla" unicode="&#x15e;" horiz-adv-x="661" 
d="M419 0l-86.999 -0.00488281v-46h16c24.667 0 44.167 -7.16699 58.5 -21.5s21.5 -32.5 21.5 -54.5c0 -21.333 -7.33301 -39.666 -22 -54.999s-34 -23 -58 -23h-118v57h114c7.33301 0 13.5 2.33301 18.5 7s7.5 10.667 7.5 18c0 14.667 -8.66699 22 -26 22h-69v96h-195v75
h336c32.667 0 58.667 10.167 78 30.5s29 43.833 29 70.5c0 21.333 -7 41.333 -21 60s-33.667 31.334 -59 38.001l-251 62c-43.333 10.667 -76.5 31.334 -99.5 62.001s-34.5 64.667 -34.5 102c0 45.333 16.167 85 48.5 119s76.166 51 131.499 51h325v-75h-321
c-30.667 0 -55.167 -9.16699 -73.5 -27.5s-27.5 -40.166 -27.5 -65.499c0 -20.667 6.5 -39.5 19.5 -56.5s31.5 -28.5 55.5 -34.5l250 -62c45.333 -11.333 80 -33.166 104 -65.499s36 -67.5 36 -105.5c0 -48 -16.667 -89.667 -50 -125s-79 -53 -137 -53z" />
    <glyph glyph-name="scedilla" unicode="&#x15f;" horiz-adv-x="528" 
d="M346 0h-69v-46h16c24.667 0 44.167 -7.16699 58.5 -21.5s21.5 -32.5 21.5 -54.5c0 -21.333 -7.33301 -39.666 -22 -54.999s-34 -23 -58 -23h-118v57h114c7.33301 0 13.5 2.33301 18.5 7s7.5 10.667 7.5 18c0 14.667 -8.66699 22 -26 22h-69v96h-158v73h283
c18.667 0 34 5.5 46 16.5s18 25.5 18 43.5c0 31.333 -16.333 50.666 -49 57.999l-208 46c-32.667 6.66699 -58.834 21.834 -78.501 45.501s-29.5 50.834 -29.5 81.501c0 37.333 13 68.166 39 92.499s59.333 36.5 100 36.5h270v-72h-269
c-18.667 0 -33.5 -5.16699 -44.5 -15.5s-16.5 -23.833 -16.5 -40.5c0 -13.333 4.16699 -25.333 12.5 -36s19.5 -17.334 33.5 -20.001l208 -46c34 -8 60.833 -23.667 80.5 -47s29.5 -51 29.5 -83c0 -38.667 -13.167 -70.5 -39.5 -95.5s-60.166 -37.5 -101.499 -37.5z" />
    <glyph glyph-name="Scaron" unicode="&#x160;" horiz-adv-x="661" 
d="M289 720l-105 112h83l66 -73l65 73h83l-105 -112h-87zM216 411l250.001 -62.0039c45.333 -11.333 80 -33.166 104 -65.499s36 -67.5 36 -105.5c0 -48 -16.667 -89.667 -50 -125s-79 -53 -137 -53h-339v75h336c32.667 0 58.667 10.167 78 30.5s29 43.833 29 70.5
c0 21.333 -7 41.333 -21 60s-33.667 31.334 -59 38.001l-251 62c-43.333 10.667 -76.5 31.334 -99.5 62.001s-34.5 64.667 -34.5 102c0 45.333 16.167 85 48.5 119s76.166 51 131.499 51h325v-75h-321c-30.667 0 -55.167 -9.16699 -73.5 -27.5s-27.5 -40.166 -27.5 -65.499
c0 -20.667 6.5 -39.5 19.5 -56.5s31.5 -28.5 55.5 -34.5z" />
    <glyph glyph-name="scaron" unicode="&#x161;" horiz-adv-x="528" 
d="M224 578l-106 142h79l69 -94l69 94h79l-107 -142h-83zM169 309l208 -45.999c34 -8 60.833 -23.667 80.5 -47s29.5 -51 29.5 -83c0 -38.667 -13.167 -70.5 -39.5 -95.5s-60.166 -37.5 -101.499 -37.5h-284v73h283c18.667 0 34 5.5 46 16.5s18 25.5 18 43.5
c0 31.333 -16.333 50.666 -49 57.999l-208 46c-32.667 6.66699 -58.834 21.834 -78.501 45.501s-29.5 50.834 -29.5 81.501c0 37.333 13 68.166 39 92.499s59.333 36.5 100 36.5h270v-72h-269c-18.667 0 -33.5 -5.16699 -44.5 -15.5s-16.5 -23.833 -16.5 -40.5
c0 -13.333 4.16699 -25.333 12.5 -36s19.5 -17.334 33.5 -20.001z" />
    <glyph glyph-name="uni0162" unicode="&#x162;" horiz-adv-x="661" 
d="M368 595v-595.001h-56v-46h16c24.667 0 44.167 -7.16699 58.5 -21.5s21.5 -32.5 21.5 -54.5c0 -21.333 -7.33301 -39.666 -22 -54.999s-34 -23 -58 -23h-118v57h114c7.33301 0 13.5 2.33301 18.5 7s7.5 10.667 7.5 18c0 14.667 -8.66699 22 -26 22h-69v144h37v547h-249
v75h575v-75h-250z" />
    <glyph glyph-name="uni0163" unicode="&#x163;" horiz-adv-x="467" 
d="M427 493v-72.001h-235v-293c0 -36.667 18.333 -55 55 -55h180v-73h-144v-46h16c24.667 0 44.167 -7.16699 58.5 -21.5s21.5 -32.5 21.5 -54.5c0 -21.333 -7.33301 -39.666 -22 -54.999s-34 -23 -58 -23h-118v57h114c7.33301 0 13.5 2.33301 18.5 7s7.5 10.667 7.5 18
c0 14.667 -8.66699 22 -26 22h-69v96h8c-38 0 -67 10 -87 30s-30 48.667 -30 86v305h-90v72h90v177h75v-177h235z" />
    <glyph glyph-name="Tcaron" unicode="&#x164;" horiz-adv-x="661" 
d="M288 720l-105 112h83l66 -73l65 73h83l-105 -112h-87zM43 670h575v-75h-250v-595h-76v595h-249v75z" />
    <glyph glyph-name="tcaron" unicode="&#x165;" horiz-adv-x="467" 
d="M343 720h73l-30 -181h-65zM427 493v-72h-235v-293c0 -36.667 18.333 -55 55 -55h180v-73h-193c-38 0 -67 10 -87 30s-30 48.667 -30 86v305h-90v72h90v177h75v-177h235z" />
    <glyph glyph-name="Tbar" unicode="&#x166;" horiz-adv-x="661" 
d="M619 670v-75h-250v-214h136v-66h-136v-315h-76v315h-162v66h162v214h-249v75h575z" />
    <glyph glyph-name="tbar" unicode="&#x167;" horiz-adv-x="507" 
d="M453 493v-72h-235v-117h224v-72h-224v-104c0 -36.667 18.333 -55 55 -55h180v-73h-193c-38 0 -67 10 -87 30s-30 48.667 -30 86v116h-101v72h101v117h-90v72h90v177h75v-177h235z" />
    <glyph glyph-name="Umacron" unicode="&#x16a;" horiz-adv-x="739" 
d="M509 720h-280v66h280v-66zM85 279l0.000976562 391h77v-387c0 -65.333 19.333 -118.5 58 -159.5s88.667 -61.5 150 -61.5s111.166 20.333 149.499 61s57.5 94 57.5 160v387h77v-391c0 -88.667 -26.5 -159.5 -79.5 -212.5s-121.5 -79.5 -205.5 -79.5
s-152.333 26.833 -205 80.5s-79 124.167 -79 211.5z" />
    <glyph glyph-name="umacron" unicode="&#x16b;" horiz-adv-x="591" 
d="M435 578h-280v66h280v-66zM66 218v274.999h75v-273c0 -47.333 14.333 -86.166 43 -116.499s65.667 -45.5 111 -45.5c46 0 83.167 15 111.5 45s42.5 69 42.5 117v273h75v-275c0 -70 -21.167 -126.167 -63.5 -168.5s-97.5 -63.5 -165.5 -63.5s-123.167 21.167 -165.5 63.5
s-63.5 98.5 -63.5 168.5z" />
    <glyph glyph-name="Uring" unicode="&#x16e;" horiz-adv-x="739" 
d="M369 703c-30 0 -55.5 10.333 -76.5 31s-31.5 46 -31.5 76s10.5 55.333 31.5 76s46.5 31 76.5 31s55.5 -10.333 76.5 -31s31.5 -46 31.5 -76s-10.5 -55.333 -31.5 -76s-46.5 -31 -76.5 -31zM369 760c14.667 0 26.834 4.66699 36.501 14s14.5 21.333 14.5 36
s-4.83301 26.834 -14.5 36.501s-21.834 14.5 -36.501 14.5s-26.834 -4.83301 -36.501 -14.5s-14.5 -21.834 -14.5 -36.501s4.83301 -26.667 14.5 -36s21.834 -14 36.501 -14zM85 279l0.000976562 391h77v-387c0 -65.333 19.333 -118.5 58 -159.5s88.667 -61.5 150 -61.5
s111.166 20.333 149.499 61s57.5 94 57.5 160v387h77v-391c0 -88.667 -26.5 -159.5 -79.5 -212.5s-121.5 -79.5 -205.5 -79.5s-152.333 26.833 -205 80.5s-79 124.167 -79 211.5z" />
    <glyph glyph-name="uring" unicode="&#x16f;" horiz-adv-x="591" 
d="M295 551c-30 0 -55.5 10.333 -76.5 31s-31.5 46 -31.5 76s10.5 55.333 31.5 76s46.5 31 76.5 31s55.5 -10.333 76.5 -31s31.5 -46 31.5 -76s-10.5 -55.333 -31.5 -76s-46.5 -31 -76.5 -31zM295 607c14.667 0 26.834 4.83301 36.501 14.5s14.5 21.834 14.5 36.501
s-4.83301 26.667 -14.5 36s-21.834 14 -36.501 14s-26.834 -4.66699 -36.501 -14s-14.5 -21.333 -14.5 -36s4.83301 -26.834 14.5 -36.501s21.834 -14.5 36.501 -14.5zM66 218v274.999h75v-273c0 -47.333 14.333 -86.166 43 -116.499s65.667 -45.5 111 -45.5
c46 0 83.167 15 111.5 45s42.5 69 42.5 117v273h75v-275c0 -70 -21.167 -126.167 -63.5 -168.5s-97.5 -63.5 -165.5 -63.5s-123.167 21.167 -165.5 63.5s-63.5 98.5 -63.5 168.5z" />
    <glyph glyph-name="Uhungarumlaut" unicode="&#x170;" horiz-adv-x="739" 
d="M192 720l95 112h85l-98 -112h-82zM367 720l95 112h84l-97 -112h-82zM85 279l0.000976562 391h77v-387c0 -65.333 19.333 -118.5 58 -159.5s88.667 -61.5 150 -61.5s111.166 20.333 149.499 61s57.5 94 57.5 160v387h77v-391c0 -88.667 -26.5 -159.5 -79.5 -212.5
s-121.5 -79.5 -205.5 -79.5s-152.333 26.833 -205 80.5s-79 124.167 -79 211.5z" />
    <glyph glyph-name="uhungarumlaut" unicode="&#x171;" horiz-adv-x="591" 
d="M145 578l95 142h84l-97 -142h-82zM320 578l95 142h84l-97 -142h-82zM66 218v274.999h75v-273c0 -47.333 14.333 -86.166 43 -116.499s65.667 -45.5 111 -45.5c46 0 83.167 15 111.5 45s42.5 69 42.5 117v273h75v-275c0 -70 -21.167 -126.167 -63.5 -168.5
s-97.5 -63.5 -165.5 -63.5s-123.167 21.167 -165.5 63.5s-63.5 98.5 -63.5 168.5z" />
    <glyph glyph-name="Uogonek" unicode="&#x172;" horiz-adv-x="739" 
d="M577 283l0.000976562 387h77v-391c0 -70.667 -17.333 -130.5 -52 -179.5s-81.334 -82.167 -140.001 -99.5h1l-79 -106c-5.33301 -6.66699 -6.16602 -13.5 -2.49902 -20.5s9.83398 -10.5 18.501 -10.5h63v-63h-85c-32.667 0 -55.334 12.833 -68.001 38.5
s-9 51.167 11 76.5l55 72h-7c-84 0 -152.333 26.833 -205 80.5s-79 124.167 -79 211.5v391h77v-387c0 -65.333 19.333 -118.5 58 -159.5s88.667 -61.5 150 -61.5s111.166 20.333 149.499 61s57.5 94 57.5 160z" />
    <glyph glyph-name="uogonek" unicode="&#x173;" horiz-adv-x="591" 
d="M449 220l0.00195312 272.998h75v-275c0 -54 -13 -100.167 -39 -138.5s-61.667 -65.166 -107 -80.499l-78 -104c-4.66699 -7.33301 -5.33398 -14.333 -2.00098 -21s9.33301 -10 18 -10h63v-64h-82c-32.667 0 -55.334 12.833 -68.001 38.5s-9 51.167 11 76.5l54 71
c-68 0 -123 21.167 -165 63.5s-63 98.5 -63 168.5v275h75v-273c0 -47.333 14.333 -86.166 43 -116.499s65.667 -45.5 111 -45.5c46 0 83.167 15 111.5 45s42.5 69 42.5 117z" />
    <glyph glyph-name="Wcircumflex" unicode="&#x174;" horiz-adv-x="1010" 
d="M570 720l-66 73l-66 -73h-82l105 112h87l104 -112h-82zM711 122l172 548h83l-212 -670h-83l-166 544l-166 -544h-83l-212 670h84l171 -549l165 549h82z" />
    <glyph glyph-name="wcircumflex" unicode="&#x175;" horiz-adv-x="789" 
d="M463 578l-69 94l-69 -94h-79l107 142h83l106 -142h-79zM554 105l128 388h80l-169 -493h-75l-124 387l-122 -387h-76l-170 493h81l128 -386l122 386h75z" />
    <glyph glyph-name="Ycircumflex" unicode="&#x176;" horiz-adv-x="714" 
d="M423 720l-66 73l-66 -73h-82l105 112h87l104 -112h-82zM585 670h92l-282 -379v-291h-77v288l-281 382h94l227 -310z" />
    <glyph glyph-name="ycircumflex" unicode="&#x177;" horiz-adv-x="562" 
d="M352 578l-69 94l-69 -94h-79l107 142h83l106 -142h-79zM291 50l170.001 443h76l-225 -584c-14 -37.333 -32.833 -64.833 -56.5 -82.5s-54.5 -26.5 -92.5 -26.5h-113v75h113c21.333 0 38.166 4.33301 50.499 13s22.5 23 30.5 43l8 21l-229 541h83z" />
    <glyph glyph-name="Ydieresis" unicode="&#x178;" horiz-adv-x="714" 
d="M232 832h73v-112h-73v112zM409 832h73v-112h-73v112zM585 670h92l-282 -379v-291h-77v288l-281 382h94l227 -310z" />
    <glyph glyph-name="Zacute" unicode="&#x179;" horiz-adv-x="621" 
d="M331 832h85l-98 -112h-82zM554 612l-396 -537h413v-75h-519v58l396 537h-387v75h493v-58z" />
    <glyph glyph-name="zacute" unicode="&#x17a;" horiz-adv-x="502" 
d="M265 720h84l-97 -142h-82zM455 438l-312 -366h322v-72h-428v56l312 365h-302v72h408v-55z" />
    <glyph glyph-name="Zdotaccent" unicode="&#x17b;" horiz-adv-x="621" 
d="M274 832h75v-112h-75v112zM554 612l-396 -537h413v-75h-519v58l396 537h-387v75h493v-58z" />
    <glyph glyph-name="zdotaccent" unicode="&#x17c;" horiz-adv-x="502" 
d="M213 720h75v-142h-75v142zM455 438l-312 -366h322v-72h-428v56l312 365h-302v72h408v-55z" />
    <glyph glyph-name="Zcaron" unicode="&#x17d;" horiz-adv-x="621" 
d="M269 720l-105 112h83l66 -73l65 73h83l-105 -112h-87zM554 612l-396 -537h413v-75h-519v58l396 537h-387v75h493v-58z" />
    <glyph glyph-name="zcaron" unicode="&#x17e;" horiz-adv-x="502" 
d="M209 578l-106 142h79l69 -94l69 94h79l-107 -142h-83zM455 438l-312 -366h322v-72h-428v56l312 365h-302v72h408v-55z" />
    <glyph glyph-name="uni0218" unicode="&#x218;" horiz-adv-x="661" 
d="M238 670l325.001 -0.00390625v-75h-321c-30.667 0 -55.167 -9.16699 -73.5 -27.5s-27.5 -40.166 -27.5 -65.499c0 -20.667 6.5 -39.5 19.5 -56.5s31.5 -28.5 55.5 -34.5l250 -62c45.333 -11.333 80 -33.166 104 -65.499s36 -67.5 36 -105.5
c0 -48 -16.667 -89.667 -50 -125s-79 -53 -137 -53h-339v75h336c32.667 0 58.667 10.167 78 30.5s29 43.833 29 70.5c0 21.333 -7 41.333 -21 60s-33.667 31.334 -59 38.001l-251 62c-43.333 10.667 -76.5 31.334 -99.5 62.001s-34.5 64.667 -34.5 102
c0 45.333 16.167 85 48.5 119s76.166 51 131.499 51zM229.001 -200.004l95 142h84l-97 -142h-82z" />
    <glyph glyph-name="uni0219" unicode="&#x219;" horiz-adv-x="528" 
d="M183 493l270 0.000976562v-72h-269c-18.667 0 -33.5 -5.16699 -44.5 -15.5s-16.5 -23.833 -16.5 -40.5c0 -13.333 4.16699 -25.333 12.5 -36s19.5 -17.334 33.5 -20.001l208 -46c34 -8 60.833 -23.667 80.5 -47s29.5 -51 29.5 -83c0 -38.667 -13.167 -70.5 -39.5 -95.5
s-60.166 -37.5 -101.499 -37.5h-284v73h283c18.667 0 34 5.5 46 16.5s18 25.5 18 43.5c0 31.333 -16.333 50.666 -49 57.999l-208 46c-32.667 6.66699 -58.834 21.834 -78.501 45.501s-29.5 50.834 -29.5 81.501c0 37.333 13 68.166 39 92.499s59.333 36.5 100 36.5z
M164 -199.999l95 142h84l-97 -142h-82z" />
    <glyph glyph-name="uni021A" unicode="&#x21a;" horiz-adv-x="661" 
d="M43 595v75h575v-75h-250v-595h-76v595h-249zM291 -200h-82l95 142h84z" />
    <glyph glyph-name="uni021B" unicode="&#x21b;" horiz-adv-x="467" 
d="M427 493v-72h-235v-293c0 -36.667 18.333 -55 55 -55h180v-73h-193c-38 0 -67 10 -87 30s-30 48.667 -30 86v305h-90v72h90v177h75v-177h235zM252 -200h-82l95 142h84z" />
    <glyph glyph-name="circumflex" unicode="&#x2c6;" horiz-adv-x="366" 
d="M240 720l106 -142h-79l-69 94l-69 -94h-79l107 142h83z" />
    <glyph glyph-name="dotaccent" unicode="&#x2d9;" horiz-adv-x="234" 
d="M114 720h75v-142h-75v142z" />
    <glyph glyph-name="ring" unicode="&#x2da;" horiz-adv-x="333" 
d="M186 551c-30 0 -55.5 10.333 -76.5 31s-31.5 46 -31.5 76s10.5 55.333 31.5 76s46.5 31 76.5 31s55.5 -10.333 76.5 -31s31.5 -46 31.5 -76s-10.5 -55.333 -31.5 -76s-46.5 -31 -76.5 -31zM186 607c14.667 0 26.834 4.83301 36.501 14.5s14.5 21.834 14.5 36.501
s-4.83301 26.667 -14.5 36s-21.834 14 -36.501 14s-26.834 -4.66699 -36.501 -14s-14.5 -21.333 -14.5 -36s4.83301 -26.834 14.5 -36.501s21.834 -14.5 36.501 -14.5z" />
    <glyph glyph-name="tilde" unicode="&#x2dc;" horiz-adv-x="428" 
d="M138 578h-63.9971v82c0 27.333 11.667 46.666 35 57.999s46.666 9 69.999 -7l89 -66c5.33301 -4 10.333 -4.83301 15 -2.5s7 6.5 7 12.5v65h63v-82c0 -27.333 -11.833 -46.666 -35.5 -57.999s-46.834 -9 -69.501 7l-89 66c-4.66699 4 -9.33398 4.83301 -14.001 2.5
s-7 -6.5 -7 -12.5v-65z" />
    <glyph glyph-name="gravecomb" unicode="&#x300;" horiz-adv-x="0" 
d="M-217 720h84l95 -142h-82z" />
    <glyph glyph-name="acutecomb" unicode="&#x301;" horiz-adv-x="0" 
d="M-217 578l95 142h84l-97 -142h-82z" />
    <glyph glyph-name="uni0302" unicode="&#x302;" horiz-adv-x="0" 
d="M-141 720l106 -142h-79l-69 94l-69 -94h-79l107 142h83z" />
    <glyph glyph-name="tildecomb" unicode="&#x303;" horiz-adv-x="0" 
d="M-290 578h-63.9971v82c0 27.333 11.667 46.666 35 57.999s46.666 9 69.999 -7l89 -66c5.33301 -4 10.333 -4.83301 15 -2.5s7 6.5 7 12.5v65h63v-82c0 -27.333 -11.833 -46.666 -35.5 -57.999s-46.834 -9 -69.501 7l-89 66c-4.66699 4 -9.33398 4.83301 -14.001 2.5
s-7 -6.5 -7 -12.5v-65z" />
    <glyph glyph-name="uni0304" unicode="&#x304;" horiz-adv-x="0" 
d="M-79 578h-280v66h280v-66z" />
    <glyph glyph-name="uni0306" unicode="&#x306;" horiz-adv-x="0" 
d="M-359 656l-0.00195312 64h65v-54c0 -8.66699 2.83301 -15.834 8.5 -21.501s12.834 -8.5 21.501 -8.5h103c8.66699 0 15.834 2.83301 21.501 8.5s8.5 12.834 8.5 21.501v54h65v-64c0 -22.667 -7.16699 -41.334 -21.5 -56.001s-32.833 -22 -55.5 -22h-139
c-22.667 0 -41.167 7.33301 -55.5 22s-21.5 33.334 -21.5 56.001z" />
    <glyph glyph-name="uni0307" unicode="&#x307;" horiz-adv-x="0" 
d="M-155 720h75v-142h-75v142z" />
    <glyph glyph-name="uni0308" unicode="&#x308;" horiz-adv-x="0" 
d="M-329 720h73v-142h-73v142zM-152 720h73v-142h-73v142z" />
    <glyph glyph-name="uni030A" unicode="&#x30a;" horiz-adv-x="0" 
d="M-167 551c-30 0 -55.5 10.333 -76.5 31s-31.5 46 -31.5 76s10.5 55.333 31.5 76s46.5 31 76.5 31s55.5 -10.333 76.5 -31s31.5 -46 31.5 -76s-10.5 -55.333 -31.5 -76s-46.5 -31 -76.5 -31zM-167 607c14.667 0 26.834 4.83301 36.501 14.5s14.5 21.834 14.5 36.501
s-4.83301 26.667 -14.5 36s-21.834 14 -36.501 14s-26.834 -4.66699 -36.501 -14s-14.5 -21.333 -14.5 -36s4.83301 -26.834 14.5 -36.501s21.834 -14.5 36.501 -14.5z" />
    <glyph glyph-name="uni030B" unicode="&#x30b;" horiz-adv-x="0" 
d="M-392 578l95 142h84l-97 -142h-82zM-217 578l95 142h84l-97 -142h-82z" />
    <glyph glyph-name="uni030C" unicode="&#x30c;" horiz-adv-x="0" 
d="M-184 626l69 94h79l-107 -142h-83l-106 142h79z" />
    <glyph glyph-name="uni0312" unicode="&#x312;" horiz-adv-x="0" 
d="M-38 720l-96 -142h-84l98 142h82z" />
    <glyph glyph-name="uni0326" unicode="&#x326;" horiz-adv-x="0" 
d="M-217 -200l95 142h84l-97 -142h-82z" />
    <glyph glyph-name="uni0327" unicode="&#x327;" horiz-adv-x="0" 
d="M-151 -46l16 -0.000976562c24.667 0 44.167 -7.16699 58.5 -21.5s21.5 -32.5 21.5 -54.5c0 -21.333 -7.33301 -39.666 -22 -54.999s-34 -23 -58 -23h-118v57h114c7.33301 0 13.5 2.33301 18.5 7s7.5 10.667 7.5 18c0 14.667 -8.66699 22 -26 22h-69v96h57v-46z" />
    <glyph glyph-name="uni0328" unicode="&#x328;" horiz-adv-x="0" 
d="M-134 0h74.002l-79 -105c-4.66699 -7.33301 -5.33398 -14.333 -2.00098 -21s9.33301 -10 18 -10h63v-64h-82c-32.667 0 -55.334 12.833 -68.001 38.5s-9 51.167 11 76.5z" />
    <glyph glyph-name="uni0401" unicode="&#x401;" horiz-adv-x="648" 
d="M222 832h73v-112h-73v112zM399 832h73v-112h-73v112zM588 0h-489v670h489v-75h-412v-212h382v-75h-382v-233h412v-75z" />
    <glyph glyph-name="uni0404" unicode="&#x404;" horiz-adv-x="784" 
d="M638 244l81.0029 0.000976562c-18.667 -76 -57.5 -137.667 -116.5 -185s-129.833 -71 -212.5 -71c-99.333 0 -181 33.667 -245 101s-96 149.333 -96 246s32 178.834 96 246.501s145.667 101.5 245 101.5c81.333 0 151.5 -23.333 210.5 -70
s97.833 -107.334 116.5 -182.001h-80c-16.667 52 -47.167 94.5 -91.5 127.5s-95.5 49.5 -153.5 49.5c-69.333 0 -128 -22.167 -176 -66.5s-76.667 -99.5 -86 -165.5h310v-74h-311c7.33301 -68.667 35.166 -125.834 83.499 -171.501s108.166 -68.5 179.499 -68.5
c60 0 112.167 17 156.5 51s74.166 77.667 89.499 131z" />
    <glyph glyph-name="uni0406" unicode="&#x406;" horiz-adv-x="275" 
d="M99 0v670h77v-670h-77z" />
    <glyph glyph-name="uni0407" unicode="&#x407;" horiz-adv-x="275" 
d="M13 832h73v-112h-73v112zM190 832h73v-112h-73v112zM99 0v670h77v-670h-77z" />
    <glyph glyph-name="uni040E" unicode="&#x40e;" horiz-adv-x="681" 
d="M417 720h-144.001c-22.667 0 -41 7 -55 21s-21 32.333 -21 55v36h69v-26c0 -8.66699 2.83301 -15.834 8.5 -21.501s12.834 -8.5 21.501 -8.5h98c8.66699 0 15.834 2.83301 21.501 8.5s8.5 12.834 8.5 21.501v26h68v-36c0 -22.667 -6.83301 -41 -20.5 -55
s-31.834 -21 -54.501 -21zM365.999 229l198 443h80l-264 -585c-12.667 -28 -31 -49.5 -55 -64.5s-50.667 -22.5 -80 -22.5h-118v76h118c35.333 0 59.333 15 72 45l10 23l-290 526h88z" />
    <glyph glyph-name="uni0410" unicode="&#x410;" horiz-adv-x="749" 
d="M709 0h-86l-84 195h-330l-83 -195h-86l293 670h82zM373 579l-132 -310h266z" />
    <glyph glyph-name="uni0411" unicode="&#x411;" horiz-adv-x="684" 
d="M176 409l237 -0.000976562c63.333 0 115.333 -19.667 156 -59s61 -87.666 61 -144.999s-20.333 -105.833 -61 -145.5s-92.667 -59.5 -156 -59.5h-314v670h467v-75h-390v-186zM176 74.999l234 -0.000976562c42 0 76.333 12.5 103 37.5s40 55.833 40 92.5
s-13.167 67.334 -39.5 92.001s-60.833 37 -103.5 37h-234v-259z" />
    <glyph glyph-name="uni0412" unicode="&#x412;" horiz-adv-x="708" 
d="M541 352v-3.00195c32.667 -13.333 58.167 -34.166 76.5 -62.499s27.5 -60.833 27.5 -97.5c0 -53.333 -18.333 -98.166 -55 -134.499s-82.667 -54.5 -138 -54.5h-353v670h340c52 0 95.833 -16.5 131.5 -49.5s53.5 -75.5 53.5 -127.5c0 -65.333 -27.667 -112.333 -83 -141z
M436 594.998l-260 0.000976562v-215h260c31.333 0 57.666 10.167 78.999 30.5s32 45.833 32 76.5c0 31.333 -10.667 57.166 -32 77.499s-47.666 30.5 -78.999 30.5zM176 75.999h276c33.333 0 60.833 10.667 82.5 32s32.5 48.333 32.5 81c0 34 -11.167 62 -33.5 84
s-50.5 33 -84.5 33h-273v-230z" />
    <glyph glyph-name="uni0413" unicode="&#x413;" horiz-adv-x="595" 
d="M176 0h-77v670h453v-75h-376v-595z" />
    <glyph glyph-name="uni0414" unicode="&#x414;" horiz-adv-x="781" 
d="M738 75l-0.00195312 -223.999h-73v149h-559v-149h-73v224c18.667 0 32.834 0.833008 42.501 2.5s19.834 7.66699 30.501 18s18.667 26.166 24 47.499c3.33301 14 6.33301 31.167 9 51.5s4.66699 44.5 6 72.5s2.5 53.667 3.5 77s1.66699 52.833 2 88.5
s0.5 63.167 0.5 82.5v85v70h494v-595h93zM184.998 75.001l382.999 0.000976562v520h-340c-1.33301 -254.667 -8.66602 -409.334 -21.999 -464.001c-4.66699 -22 -11.667 -40.667 -21 -56z" />
    <glyph glyph-name="uni0415" unicode="&#x415;" horiz-adv-x="648" 
d="M588 0h-489v670h489v-75h-412v-212h382v-75h-382v-233h412v-75z" />
    <glyph glyph-name="uni0416" unicode="&#x416;" horiz-adv-x="1001" 
d="M734 381h64c38.667 0 68 -10.333 88 -31s30 -50 30 -88v-262h-77v254c0 36.667 -18.667 55 -56 55h-244v-309h-77v309h-244c-37.333 0 -56 -18.333 -56 -55v-254h-77v262c0 38 10 67.333 30 88s49.333 31 88 31h63l-201 289h88l199 -289h110v289h77v-289h110l199 289h88z
" />
    <glyph glyph-name="uni0417" unicode="&#x417;" horiz-adv-x="644" 
d="M474 349v-2c31.333 -13.333 56.5 -34 75.5 -62s28.5 -60 28.5 -96c0 -53.333 -18.333 -98.166 -55 -134.499s-82.334 -54.5 -137.001 -54.5h-331v76h331c33.333 0 60.833 10.667 82.5 32s32.5 48.333 32.5 81c0 34 -11.333 62 -34 84s-50.667 33 -84 33h-260v74h252
c31.333 0 57.666 10.167 78.999 30.5s32 45.833 32 76.5c0 31.333 -10.667 57.166 -32 77.499s-47.666 30.5 -78.999 30.5h-318v75h322c52.667 0 96.667 -16.167 132 -48.5s53 -74.5 53 -126.5c0 -32 -8.16699 -60.833 -24.5 -86.5s-38.166 -45.5 -65.499 -59.5z" />
    <glyph glyph-name="uni0418" unicode="&#x418;" horiz-adv-x="765" 
d="M176 118l413 552h77v-670h-77v552l-413 -552h-77v670h77v-552z" />
    <glyph glyph-name="uni0419" unicode="&#x419;" horiz-adv-x="765" 
d="M454 720h-144.001c-22.667 0 -41 7 -55 21s-21 32.333 -21 55v36h69v-26c0 -8.66699 2.83301 -15.834 8.5 -21.501s12.834 -8.5 21.501 -8.5h98c8.66699 0 15.834 2.83301 21.501 8.5s8.5 12.834 8.5 21.501v26h68v-36c0 -22.667 -6.83301 -41 -20.5 -55
s-31.834 -21 -54.501 -21zM175.999 118l413 552h77v-670h-77v552l-413 -552h-77v670h77v-552z" />
    <glyph glyph-name="uni041A" unicode="&#x41a;" horiz-adv-x="736" 
d="M500 383h28c78.667 0 118 -38.667 118 -116v-267h-77v255c0 36 -18.667 54 -56 54h-337v-309h-77v670h77v-287h242l150 287h85z" />
    <glyph glyph-name="uni041B" unicode="&#x41b;" horiz-adv-x="776" 
d="M677 670v-669.999h-77v595h-347c-1.33301 -255.333 -9 -412.333 -23 -471c-6.66699 -28.667 -16.167 -52 -28.5 -70s-27.333 -30.5 -45 -37.5s-32.334 -11.5 -44.001 -13.5s-25.834 -3 -42.501 -3h-28v76h16c18.667 0 32.834 0.833008 42.501 2.5
s19.834 7.66699 30.501 18s18.667 26.166 24 47.499c3.33301 14 6.33301 31.167 9 51.5s4.66699 44.5 6 72.5s2.5 53.5 3.5 76.5s1.66699 52.5 2 88.5s0.5 63.5 0.5 82.5v84v70.5h501z" />
    <glyph glyph-name="uni041C" unicode="&#x41c;" horiz-adv-x="912" 
d="M813 670v-670h-77v552l-247 -552h-67l-246 551v-551h-77v670h105l253 -565l253 565h103z" />
    <glyph glyph-name="uni041D" unicode="&#x41d;" horiz-adv-x="765" 
d="M589 385v285h76v-670h-76v310h-413v-310h-77v670h77v-285h413z" />
    <glyph glyph-name="uni041E" unicode="&#x41e;" horiz-adv-x="818" 
d="M409 -12c-101.333 0 -184.665 33.5 -249.998 100.5s-98 149.167 -98 246.5s32.667 179.666 98 246.999s148.666 101 249.999 101s184.666 -33.667 249.999 -101s98 -149.666 98 -246.999s-32.5 -179.5 -97.5 -246.5s-148.5 -100.5 -250.5 -100.5zM409.001 62
c79.333 0 144.333 26.5 195 79.5s76 117.5 76 193.5s-25.5 140.5 -76.5 193.5s-115.833 79.5 -194.5 79.5s-143.5 -26.5 -194.5 -79.5s-76.5 -117.5 -76.5 -193.5s25.5 -140.5 76.5 -193.5s115.833 -79.5 194.5 -79.5z" />
    <glyph glyph-name="uni041F" unicode="&#x41f;" horiz-adv-x="760" 
d="M660 670v-670h-76v595h-408v-595h-77v670h561z" />
    <glyph glyph-name="uni0420" unicode="&#x420;" horiz-adv-x="683" 
d="M404 670c66 0 120 -20.501 162 -61.501s63 -91.167 63 -150.5s-21.167 -109.166 -63.5 -149.499s-96.5 -60.5 -162.5 -60.5h-227v-248h-77v670h305zM176 320.999h226c44.667 0 80.667 13 108 39s41 58.667 41 98c0 38.667 -13.667 71.167 -41 97.5
s-63.333 39.5 -108 39.5h-226v-274z" />
    <glyph glyph-name="uni0421" unicode="&#x421;" horiz-adv-x="785" 
d="M647 244l81 -0.000976562c-18 -76 -56.667 -137.667 -116 -185s-130 -71 -212 -71c-100 0 -181.833 33.5 -245.5 100.5s-95.5 149.167 -95.5 246.5c0 96.667 31.833 178.834 95.5 246.501s145.5 101.5 245.5 101.5c81.333 0 151.5 -23.333 210.5 -70
s97.833 -107.334 116.5 -182.001h-81c-16.667 52 -47 94.5 -91 127.5s-95.333 49.5 -154 49.5c-76.667 0 -140 -26.667 -190 -80s-75 -117.666 -75 -192.999c0 -76 25 -140.5 75 -193.5s113.333 -79.5 190 -79.5c60.667 0 113.167 17 157.5 51s73.833 77.667 88.5 131z" />
    <glyph glyph-name="uni0422" unicode="&#x422;" horiz-adv-x="661" 
d="M43 670h575v-75h-250v-595h-76v595h-249v75z" />
    <glyph glyph-name="uni0423" unicode="&#x423;" horiz-adv-x="681" 
d="M366 229l198 443h80l-264 -585c-12.667 -28 -31 -49.5 -55 -64.5s-50.667 -22.5 -80 -22.5h-118v76h118c35.333 0 59.333 15 72 45l10 23l-290 526h88z" />
    <glyph glyph-name="uni0424" unicode="&#x424;" horiz-adv-x="895" 
d="M486 670h200c40.667 0 73.334 -12.333 98.001 -37s37 -57.334 37 -98.001v-264c0 -40.667 -12.333 -73.334 -37 -98.001s-57.334 -37 -98.001 -37h-200v-136h-77v136h-200c-40.667 0 -73.334 12.333 -98.001 37s-37 57.334 -37 98.001v264
c0 40.667 12.333 73.334 37 98.001s57.334 37 98.001 37h200v50h77v-50zM216 208h193v389h-193c-20 0 -35.833 -5.83301 -47.5 -17.5s-17.5 -27.167 -17.5 -46.5v-260c0 -19.333 5.83301 -35 17.5 -47s27.5 -18 47.5 -18zM744 273v260c0 19.333 -5.83301 34.833 -17.5 46.5
s-27.167 17.5 -46.5 17.5h-194v-389h194c19.333 0 34.833 6 46.5 18s17.5 27.667 17.5 47z" />
    <glyph glyph-name="uni0425" unicode="&#x425;" horiz-adv-x="696" 
d="M394 339l257 -339h-100l-203 277l-204 -277h-99l257 339l-252 331h101l197 -269l201 269h94z" />
    <glyph glyph-name="uni0426" unicode="&#x426;" horiz-adv-x="799" 
d="M756 75v-224h-73v149h-584v670h77v-595h411v595h77v-595h92z" />
    <glyph glyph-name="uni0427" unicode="&#x427;" horiz-adv-x="705" 
d="M529 337l0.000976562 333h77v-670h-77v262h-325c-40.667 0 -73.334 12.5 -98.001 37.5s-37 57.833 -37 98.5v272h77v-268c0 -19.333 5.83301 -35 17.5 -47s27.5 -18 47.5 -18h318z" />
    <glyph glyph-name="uni0428" unicode="&#x428;" horiz-adv-x="1045" 
d="M869 75v595h77v-670h-847v670h77v-595h309v595h76v-595h308z" />
    <glyph glyph-name="uni0429" unicode="&#x429;" horiz-adv-x="1080" 
d="M1037 75v-224h-73v149h-865v670h77v-595h309v595h76v-595h308v595h77v-595h91z" />
    <glyph glyph-name="uni042A" unicode="&#x42a;" horiz-adv-x="811" 
d="M313 423h219c66 0 120.167 -20.167 162.5 -60.5s63.5 -90.5 63.5 -150.5c0 -59.333 -21.167 -109.5 -63.5 -150.5s-96.5 -61.5 -162.5 -61.5h-296v596h-193v74h270v-247zM313 75l217 0.000976562c45.333 0 81.833 13.167 109.5 39.5s41.5 58.833 41.5 97.5
c0 39.333 -13.667 72.166 -41 98.499s-64 39.5 -110 39.5h-217v-275z" />
    <glyph glyph-name="uni042B" unicode="&#x42b;" horiz-adv-x="883" 
d="M176 423h203c66 0 120.167 -20.167 162.5 -60.5s63.5 -90.5 63.5 -150.5c0 -59.333 -21.167 -109.5 -63.5 -150.5s-96.5 -61.5 -162.5 -61.5h-280v670h77v-247zM707 0v670h77v-670h-77zM176 75l201 0.000976562c45.333 0 81.833 13.167 109.5 39.5s41.5 58.833 41.5 97.5
c0 39.333 -13.667 72.166 -41 98.499s-64 39.5 -110 39.5h-201v-275z" />
    <glyph glyph-name="uni042C" unicode="&#x42c;" horiz-adv-x="675" 
d="M176 423h220c66 0 120.167 -20.167 162.5 -60.5s63.5 -90.5 63.5 -150.5c0 -59.333 -21.167 -109.5 -63.5 -150.5s-96.5 -61.5 -162.5 -61.5h-297v670h77v-247zM176 75l217 0.000976562c45.333 0 82 13.167 110 39.5s42 58.833 42 97.5
c0 39.333 -13.833 72.166 -41.5 98.499s-64.5 39.5 -110.5 39.5h-217v-275z" />
    <glyph glyph-name="uni042D" unicode="&#x42d;" horiz-adv-x="787" 
d="M387 683c100 0 181.835 -33.834 245.502 -101.501s95.5 -149.834 95.5 -246.501c0 -97.333 -31.833 -179.5 -95.5 -246.5s-145.5 -100.5 -245.5 -100.5c-82 0 -152.667 23.667 -212 71s-98 109 -116 185h81c15.333 -53.333 45.166 -97 89.499 -131s96.5 -51 156.5 -51
c71.333 0 131.166 22.833 179.499 68.5s76.166 102.834 83.499 171.501h-312v74h311c-9.33301 66 -38 121.167 -86 165.5s-106.667 66.5 -176 66.5c-58 0 -109.167 -16.5 -153.5 -49.5s-74.833 -75.5 -91.5 -127.5h-80c18.667 74.667 57.334 135.334 116.001 182.001
s128.667 70 210 70z" />
    <glyph glyph-name="uni042E" unicode="&#x42e;" horiz-adv-x="903" 
d="M574 683c74 0 135.5 -24.5 184.5 -73.5s73.5 -110.833 73.5 -185.5v-179c0 -74 -24.5 -135.5 -73.5 -184.5s-110.167 -73.5 -183.5 -73.5c-74 0 -135.333 24.5 -184 73.5s-73 110.5 -73 184.5v66h-142v-311h-77v671h77v-286h142v40c0 74 24.333 135.5 73 184.5
s109.667 73.5 183 73.5zM755 245v178.999c0 53.333 -17.167 97.5 -51.5 132.5s-77.5 52.5 -129.5 52.5s-95 -17.667 -129 -53s-51 -79 -51 -131v-180c0 -52 17.167 -95.5 51.5 -130.5s77.5 -52.5 129.5 -52.5s95 17.333 129 52s51 78.334 51 131.001z" />
    <glyph glyph-name="uni042F" unicode="&#x42f;" horiz-adv-x="748" 
d="M649 670v-670.001h-77v264h-343c-38.667 0 -58 -18 -58 -54v-210h-76v224c0 65.333 28 102.333 84 111v2c-50.667 32.667 -76 81.334 -76 146.001c0 55.333 19.667 100.333 59 135s91.333 52 156 52h331zM322 337.999l249.999 -0.000976562v257h-251
c-41.333 0 -75 -12.167 -101 -36.5s-39 -55.166 -39 -92.499s12.833 -68 38.5 -92s59.834 -36 102.501 -36z" />
    <glyph glyph-name="uni0430" unicode="&#x430;" horiz-adv-x="648" 
d="M494 405l0.000976562 88.002h74v-493h-74v92h-3c-43.333 -69.333 -107.666 -104.333 -192.999 -105c-72.667 -0.666992 -132.834 23.666 -180.501 72.999s-71.5 111.666 -71.5 186.999s23.667 137.5 71 186.5s108 73.167 182 72.5c42 -0.666992 79.667 -10 113 -28
s59.666 -42.333 78.999 -73h3zM309.001 59.002c54 0 98.333 18.333 133 55s52 81 52 133c0 52.667 -17.167 97 -51.5 133s-78.833 54 -133.5 54c-56 0 -101.333 -18 -136 -54s-52 -80.333 -52 -133s17.333 -97.167 52 -133.5s80 -54.5 136 -54.5z" />
    <glyph glyph-name="uni0431" unicode="&#x431;" horiz-adv-x="627" 
d="M338 478c70.667 0 129.168 -23.332 175.501 -69.999s69.5 -104.334 69.5 -173.001c0 -70 -24.167 -128.667 -72.5 -176s-110.5 -71 -186.5 -71s-138.5 23.667 -187.5 71s-73.5 106.333 -73.5 177v211c0 84 23.667 150.5 71 199.5s112.666 73.5 195.999 73.5h201v-76h-209
c-60 0 -106.667 -16.833 -140 -50.5s-50 -80.5 -50 -140.5v-78h3c22 33.333 50.833 58.833 86.5 76.5s74.5 26.5 116.5 26.5zM325.001 59.001c54 0 98 17.001 132 51.001s51 75.667 51 125c0 48 -17 88.833 -51 122.5s-78 50.5 -132 50.5
c-54.667 0 -99.334 -16.833 -134.001 -50.5s-52 -74.834 -52 -123.501c0 -49.333 17.333 -90.833 52 -124.5s79.334 -50.5 134.001 -50.5z" />
    <glyph glyph-name="uni0432" unicode="&#x432;" horiz-adv-x="575" 
d="M445 259v-3.00098c26.667 -10 47 -25.5 61 -46.5s21 -44.833 21 -71.5c0 -37.333 -13.5 -69.666 -40.5 -96.999s-62.5 -41 -106.5 -41h-301v493h284c44 0 78.833 -12.5 104.5 -37.5s38.5 -55.5 38.5 -91.5c0 -48 -20.333 -83 -61 -105zM361 420.999l-207 0.000976562
v-136h203c22 0 39.833 6.66699 53.5 20s20.5 29.666 20.5 48.999c0 18.667 -6.5 34.5 -19.5 47.5s-29.833 19.5 -50.5 19.5zM154 72h222.999c22 0 39.833 7 53.5 21s20.5 30.667 20.5 50c0 20 -7.16699 36.667 -21.5 50s-33.166 20 -56.499 20h-219v-141z" />
    <glyph glyph-name="uni0433" unicode="&#x433;" horiz-adv-x="479" 
d="M453 493v-72h-299v-421h-75v493h374z" />
    <glyph glyph-name="uni0434" unicode="&#x434;" horiz-adv-x="640" 
d="M529 493v-420.999h85v-203h-74v131h-439v-131h-74v203h4c11.333 0 20.333 0.666992 27 2s15.167 4.66602 25.5 9.99902s18.5 15 24.5 29s10 32.333 12 55c2 28 3 136.333 3 325h406zM168 72.001h286v349h-258c0 -107.333 -1.33301 -189.333 -4 -246
c-2 -42.667 -10 -77 -24 -103z" />
    <glyph glyph-name="uni0435" unicode="&#x435;" horiz-adv-x="599" 
d="M301 506c77.333 0 139.666 -27 186.999 -81s68.666 -122.333 63.999 -205h-427c3.33301 -46 21.666 -84.333 54.999 -115s75 -46 125 -46c36.667 0 69.334 8.5 98.001 25.5s49.334 39.833 62.001 68.5h78c-16.667 -50.667 -46.667 -91 -90 -121s-93.666 -45 -150.999 -45
c-76 0 -137.667 25 -185 75s-71 111.333 -71 184s24 134.167 72 184.5s109 75.5 183 75.5zM299 434c-46 0 -84.833 -13.8311 -116.5 -41.498s-50.167 -62.834 -55.5 -105.501h345c-6.66699 43.333 -25.667 78.666 -57 105.999s-70 41 -116 41z" />
    <glyph glyph-name="uni0436" unicode="&#x436;" horiz-adv-x="790" 
d="M604 290h9.00098c37.333 0 66 -9.83301 86 -29.5s30 -48.167 30 -85.5v-175h-75v165c0 36 -18 54 -54 54h-168v-219h-75v219h-167c-36.667 0 -55 -18 -55 -54v-165h-75v175c0 37.333 10.167 65.833 30.5 85.5s49.166 29.5 86.499 29.5h9l-131 203h82l133 -203h87v203h75
v-203h88l132 203h83z" />
    <glyph glyph-name="uni0437" unicode="&#x437;" horiz-adv-x="531" 
d="M401 256l-0.00292969 -2.99805c24.667 -8.66699 43.834 -23.5 57.501 -44.5s20.5 -44.167 20.5 -69.5c0 -38 -13.5 -70.667 -40.5 -98s-62.5 -41 -106.5 -41h-290v72h287c22 0 39.833 7 53.5 21s20.5 30.667 20.5 50c0 20 -7.16699 36.667 -21.5 50
s-33.166 20 -56.499 20h-210v71h203c22.667 0 40.834 6.66699 54.501 20s20.5 29.666 20.5 48.999c0 18.667 -6.5 34.667 -19.5 48s-30.167 20 -51.5 20h-280v72h283c43.333 0 78 -12.667 104 -38s39 -56 39 -92c0 -23.333 -5.83301 -44.833 -17.5 -64.5
s-28.167 -33.834 -49.5 -42.501z" />
    <glyph glyph-name="uni0438" unicode="&#x438;" horiz-adv-x="613" 
d="M154 106l305 387h75v-493h-75v388l-305 -388h-75v493h75v-387z" />
    <glyph glyph-name="uni0439" unicode="&#x439;" horiz-adv-x="613" 
d="M376 578h-139.002c-22.667 0 -41.167 7.33301 -55.5 22s-21.5 33.334 -21.5 56.001v64h65v-54c0 -8.66699 2.83301 -15.834 8.5 -21.501s12.834 -8.5 21.501 -8.5h103c8.66699 0 15.834 2.83301 21.501 8.5s8.5 12.834 8.5 21.501v54h65v-64
c0 -22.667 -7.16699 -41.334 -21.5 -56.001s-32.833 -22 -55.5 -22zM153.998 106l305 387h75v-493h-75v388l-305 -388h-75v493h75v-387z" />
    <glyph glyph-name="uni043A" unicode="&#x43a;" horiz-adv-x="584" 
d="M392 291h9.00098c37.333 0 66.166 -9.83301 86.499 -29.5s30.5 -48.167 30.5 -85.5v-176h-75v166c0 36 -18.333 54 -55 54h-234v-220h-75v493h75v-202h153l134 202h83z" />
    <glyph glyph-name="uni043B" unicode="&#x43b;" horiz-adv-x="621" 
d="M541 493l0.000976562 -492.995h-75v421h-261c0 -126 -1.33301 -210.667 -4 -254c-1.33301 -26.667 -4.83301 -50.334 -10.5 -71.001s-13.5 -36.834 -23.5 -48.501s-19.5 -21.167 -28.5 -28.5s-20.333 -12.5 -34 -15.5s-24.334 -4.83301 -32.001 -5.5s-17.5 -1 -29.5 -1
h-13v76h10c8.66699 0 15.5 0.166992 20.5 0.5s12 2.16602 21 5.49902s16.167 8.16602 21.5 14.499s10.5 15.833 15.5 28.5s8.16699 28 9.5 46c0.666992 7.33301 2 115.666 4 324.999h409z" />
    <glyph glyph-name="uni043C" unicode="&#x43c;" horiz-adv-x="739" 
d="M659 493v-493h-75v412l-187 -412h-55l-188 414v-414h-75v493h116l174 -387l175 387h115z" />
    <glyph glyph-name="uni043D" unicode="&#x43d;" horiz-adv-x="614" 
d="M459 291v202h75v-493h-75v219h-305v-219h-75v493h75v-202h305z" />
    <glyph glyph-name="uni043E" unicode="&#x43e;" horiz-adv-x="616" 
d="M310 -13c-77.333 0 -140.834 25.167 -190.501 75.5s-74.5 111.833 -74.5 184.5c0 73.333 24.667 134.833 74 184.5s113 74.5 191 74.5c76.667 0 139.334 -24.833 188.001 -74.5s73 -111.167 73 -184.5c0 -72.667 -24.5 -134.167 -73.5 -184.5s-111.5 -75.5 -187.5 -75.5z
M309.999 59c54.667 0 99.334 18.333 134.001 55s52 81 52 133c0 52.667 -17.333 97 -52 133s-79.334 54 -134.001 54c-56 0 -101.5 -18 -136.5 -54s-52.5 -80.333 -52.5 -133s17.5 -97.167 52.5 -133.5s80.5 -54.5 136.5 -54.5z" />
    <glyph glyph-name="uni043F" unicode="&#x43f;" horiz-adv-x="609" 
d="M530 493v-493h-75v421h-301v-421h-75v493h451z" />
    <glyph glyph-name="uni0440" unicode="&#x440;" horiz-adv-x="648" 
d="M349 506c73.333 0.666992 133.668 -23.502 181.001 -72.502s71 -111.167 71 -186.5s-23.833 -137.666 -71.5 -186.999s-107.834 -73.666 -180.501 -72.999c-42 0.666992 -79.667 10.5 -113 29.5s-60 44.167 -80 75.5h-2v-292h-75v693h75v-88h2c20 30.667 46.667 55 80 73
s71 27.333 113 28zM339.002 58.998c55.333 0 100.333 18.167 135 54.5s52 80.833 52 133.5s-17.333 97 -52 133s-79.667 54 -135 54c-54.667 0 -99.167 -18 -133.5 -54s-51.5 -80.333 -51.5 -133c0 -52 17.333 -96.333 52 -133s79 -55 133 -55z" />
    <glyph glyph-name="uni0441" unicode="&#x441;" horiz-adv-x="596" 
d="M554 317h-78.0029c-11.333 34 -32.166 62 -62.499 84s-66.166 33 -107.499 33c-54 0 -98.333 -18 -133 -54s-52 -80.333 -52 -133s17.333 -97.167 52 -133.5s79 -54.5 133 -54.5c40.667 0 76.334 11.167 107.001 33.5s51.667 51.166 63 86.499h78
c-12 -56 -40.833 -102 -86.5 -138s-99.5 -54 -161.5 -54c-76 0 -138.333 25 -187 75s-73 111.667 -73 185s24.333 134.833 73 184.5s111 74.5 187 74.5c62 0 115.833 -17.667 161.5 -53s74.5 -80.666 86.5 -135.999z" />
    <glyph glyph-name="uni0442" unicode="&#x442;" horiz-adv-x="493" 
d="M467 493v-72h-183v-421h-75v421h-182v72h440z" />
    <glyph glyph-name="uni0443" unicode="&#x443;" horiz-adv-x="562" 
d="M291 50l170.001 443h76l-225 -584c-14 -37.333 -32.833 -64.833 -56.5 -82.5s-54.5 -26.5 -92.5 -26.5h-113v75h113c21.333 0 38.166 4.33301 50.499 13s22.5 23 30.5 43l8 21l-229 541h83z" />
    <glyph glyph-name="uni0444" unicode="&#x444;" horiz-adv-x="761" 
d="M418 493h124c44.667 0 80.5 -13.5 107.5 -40.5s40.5 -62.833 40.5 -107.5v-196c0 -44.667 -13.5 -80.667 -40.5 -108s-62.833 -41 -107.5 -41h-124v-200h-75v200h-124c-44.667 0 -80.5 13.667 -107.5 41s-40.5 63.333 -40.5 108v196c0 44.667 13.5 80.5 40.5 107.5
s62.833 40.5 107.5 40.5h124v177h75v-177zM226 73l117 0.000976562v348h-117c-24.667 0 -44.167 -7.33301 -58.5 -22s-21.5 -34.334 -21.5 -59.001v-187c0 -24.667 7.16699 -44.167 21.5 -58.5s33.833 -21.5 58.5 -21.5zM615 153.001v186.999
c0 24.667 -7.16699 44.334 -21.5 59.001s-33.833 22 -58.5 22h-117v-348h117c24.667 0 44.167 7.16699 58.5 21.5s21.5 33.833 21.5 58.5z" />
    <glyph glyph-name="uni0445" unicode="&#x445;" horiz-adv-x="540" 
d="M315 252l201 -252h-99l-150 191l-147 -191h-96l198 248l-195 245h98l146 -187l146 187h92z" />
    <glyph glyph-name="uni0446" unicode="&#x446;" horiz-adv-x="640" 
d="M614 72v-203h-74v131h-461v493h75v-421h301v421h75v-421h84z" />
    <glyph glyph-name="uni0447" unicode="&#x447;" horiz-adv-x="566" 
d="M412 254v239.001h75v-493h-75v183h-242c-38 0 -67.333 9.83301 -88 29.5s-31 48.167 -31 85.5v195h75v-185c0 -16.667 5 -29.834 15 -39.501s23.667 -14.5 41 -14.5h230z" />
    <glyph glyph-name="uni0448" unicode="&#x448;" horiz-adv-x="824" 
d="M669 72v421h75v-493h-665v493h75v-421h221v421h75v-421h219z" />
    <glyph glyph-name="uni0449" unicode="&#x449;" horiz-adv-x="855" 
d="M828 72v-203h-74v131h-675v493h75v-421h221v421h75v-421h219v421h75v-421h84z" />
    <glyph glyph-name="uni044A" unicode="&#x44a;" horiz-adv-x="643" 
d="M444 322c45.333 -0.666992 83.666 -16.501 114.999 -47.501s47 -68.5 47 -112.5c0 -45.333 -15.667 -83.666 -47 -114.999s-69.666 -47 -114.999 -47h-271v421h-146v72h221v-171h196zM444 71.999c24 0.666992 44.5 9.66699 61.5 27s25.5 38.333 25.5 63
c0 24 -8.5 44.5 -25.5 61.5s-37.5 25.5 -61.5 25.5h-196v-177h196z" />
    <glyph glyph-name="uni044B" unicode="&#x44b;" horiz-adv-x="723" 
d="M154 322l180 0.000976562c44.667 -0.666992 82.667 -16.5 114 -47.5s47 -68.5 47 -112.5c0 -44.667 -15.667 -82.834 -47 -114.501s-69.333 -47.5 -114 -47.5h-255v493h75v-171zM569 0.000976562v493h75v-493h-75zM154 72.001h180c24 0.666992 44.333 9.66699 61 27
s25 38.333 25 63c0 24 -8.5 44.5 -25.5 61.5s-37.167 25.5 -60.5 25.5h-180v-177z" />
    <glyph glyph-name="uni044C" unicode="&#x44c;" horiz-adv-x="554" 
d="M154 322l201.002 -0.000976562c45.333 -0.666992 83.666 -16.5 114.999 -47.5s47 -68.5 47 -112.5c0 -45.333 -15.833 -83.666 -47.5 -114.999s-69.834 -47 -114.501 -47h-276v493h75v-171zM154.002 71.999h201c24 0.666992 44.5 9.66699 61.5 27s25.5 38.333 25.5 63
c0 24 -8.5 44.5 -25.5 61.5s-37.5 25.5 -61.5 25.5h-201v-177z" />
    <glyph glyph-name="uni044D" unicode="&#x44d;" horiz-adv-x="595" 
d="M291 506c76 0 138.33 -24.833 186.997 -74.5s73 -111.167 73 -184.5s-24.333 -135 -73 -185s-111 -75 -187 -75c-62 0 -115.833 18 -161.5 54s-74.5 82 -86.5 138h78c11.333 -35.333 32.333 -64.166 63 -86.499s66.334 -33.5 107.001 -33.5c48 0 88.5 14.5 121.5 43.5
s53.167 66.167 60.5 111.5h-225v71h225c-8 44 -28.5 79.833 -61.5 107.5s-73.167 41.5 -120.5 41.5c-41.333 0 -77.166 -11 -107.499 -33s-51.166 -50 -62.499 -84h-78c12 55.333 40.833 100.666 86.5 135.999s99.5 53 161.5 53z" />
    <glyph glyph-name="uni044E" unicode="&#x44e;" horiz-adv-x="809" 
d="M512 506c73.333 0 133.498 -24.833 180.498 -74.5s70.5 -111.167 70.5 -184.5s-23.5 -135 -70.5 -185s-107.167 -75 -180.5 -75c-69.333 0 -127.166 21.833 -173.499 65.5s-72.833 98.834 -79.5 165.501h-105v-218h-75v493h75v-203h107
c9.33301 63.333 36.833 115.166 82.5 155.499s101.834 60.5 168.501 60.5zM511.998 59c51.333 0 93.5 18.167 126.5 54.5s49.5 80.833 49.5 133.5s-16.333 97 -49 133s-75 54 -127 54c-52.667 0 -95.667 -18 -129 -54s-50 -80.333 -50 -133c0 -53.333 16.667 -98 50 -134
s76.333 -54 129 -54z" />
    <glyph glyph-name="uni044F" unicode="&#x44f;" horiz-adv-x="591" 
d="M512 493v-493.001h-75v183h-238c-16.667 0 -30 -4.66699 -40 -14s-15 -22 -15 -38v-131h-75v141c0 50.667 20 82 60 94v3c-40.667 22.667 -61 59.334 -61 110.001c0 40 14.667 74.167 44 102.5s68.333 42.5 117 42.5h283zM232 254.999h205v166h-208
c-25.333 0 -46 -8.16699 -62 -24.5s-24 -35.833 -24 -58.5c0 -23.333 8.5 -43 25.5 -59s38.167 -24 63.5 -24z" />
    <glyph glyph-name="uni0451" unicode="&#x451;" horiz-adv-x="599" 
d="M175 720h73v-142h-73v142zM352 720h73v-142h-73v142zM301 506c77.333 0 139.666 -27 186.999 -81s68.666 -122.333 63.999 -205h-427c3.33301 -46 21.666 -84.333 54.999 -115s75 -46 125 -46c36.667 0 69.334 8.5 98.001 25.5s49.334 39.833 62.001 68.5h78
c-16.667 -50.667 -46.667 -91 -90 -121s-93.666 -45 -150.999 -45c-76 0 -137.667 25 -185 75s-71 111.333 -71 184s24 134.167 72 184.5s109 75.5 183 75.5zM299 434c-46 0 -84.833 -13.8311 -116.5 -41.498s-50.167 -62.834 -55.5 -105.501h345
c-6.66699 43.333 -25.667 78.666 -57 105.999s-70 41 -116 41z" />
    <glyph glyph-name="uni0454" unicode="&#x454;" horiz-adv-x="594" 
d="M308 59c40.667 0 76.334 11.167 107.001 33.5s51.334 51.166 62.001 86.499h79c-12 -56 -40.833 -102 -86.5 -138s-99.834 -54 -162.501 -54c-76 0 -138.167 25 -186.5 75s-72.5 111.667 -72.5 185s24.167 134.833 72.5 184.5s110.5 74.5 186.5 74.5
c62.667 0 116.834 -17.667 162.501 -53s74.5 -80.666 86.5 -135.999h-79c-10.667 34 -31.334 62 -62.001 84s-66.334 33 -107.001 33c-47.333 0 -87.5 -13.833 -120.5 -41.5s-53.5 -63.5 -61.5 -107.5h225v-71h-225c6.66699 -45.333 26.5 -82.5 59.5 -111.5
s73.833 -43.5 122.5 -43.5z" />
    <glyph glyph-name="uni0456" unicode="&#x456;" horiz-adv-x="234" 
d="M79 720h75v-142h-75v142zM79 493h75v-493h-75v493z" />
    <glyph glyph-name="uni0457" unicode="&#x457;" horiz-adv-x="234" 
d="M-8 720h73v-142h-73v142zM169 720h73v-142h-73v142zM79 493h75v-493h-75v493z" />
    <glyph glyph-name="uni045E" unicode="&#x45e;" horiz-adv-x="562" 
d="M347 578h-139.002c-22.667 0 -41.167 7.33301 -55.5 22s-21.5 33.334 -21.5 56.001v64h65v-54c0 -8.66699 2.83301 -15.834 8.5 -21.501s12.834 -8.5 21.501 -8.5h103c8.66699 0 15.834 2.83301 21.501 8.5s8.5 12.834 8.5 21.501v54h65v-64
c0 -22.667 -7.16699 -41.334 -21.5 -56.001s-32.833 -22 -55.5 -22zM290.998 50l170.001 443h76l-225 -584c-14 -37.333 -32.833 -64.833 -56.5 -82.5s-54.5 -26.5 -92.5 -26.5h-113v75h113c21.333 0 38.166 4.33301 50.499 13s22.5 23 30.5 43l8 21l-229 541h83z" />
    <glyph glyph-name="uni0490" unicode="&#x490;" horiz-adv-x="595" 
d="M479 670v133h73v-208h-383v-595h-77v670h387z" />
    <glyph glyph-name="uni0491" unicode="&#x491;" horiz-adv-x="486" 
d="M386 493v148h74v-220h-304v-421h-75v493h305z" />
    <glyph glyph-name="Wgrave" unicode="&#x1e80;" horiz-adv-x="1010" 
d="M486 832l95 -112h-82l-97 112h84zM711 122l172 548h83l-212 -670h-83l-166 544l-166 -544h-83l-212 670h84l171 -549l165 549h82z" />
    <glyph glyph-name="wgrave" unicode="&#x1e81;" horiz-adv-x="789" 
d="M376 720l95 -142h-82l-97 142h84zM554 105l128 388h80l-169 -493h-75l-124 387l-122 -387h-76l-170 493h81l128 -386l122 386h75z" />
    <glyph glyph-name="Wacute" unicode="&#x1e82;" horiz-adv-x="1010" 
d="M524 832h85l-98 -112h-82zM711 122l172 548h83l-212 -670h-83l-166 544l-166 -544h-83l-212 670h84l171 -549l165 549h82z" />
    <glyph glyph-name="wacute" unicode="&#x1e83;" horiz-adv-x="789" 
d="M409 720h84l-97 -142h-82zM554 105l128 388h80l-169 -493h-75l-124 387l-122 -387h-76l-170 493h81l128 -386l122 386h75z" />
    <glyph glyph-name="Wdieresis" unicode="&#x1e84;" horiz-adv-x="1010" 
d="M380 832h73v-112h-73v112zM557 832h73v-112h-73v112zM711 122l172 548h83l-212 -670h-83l-166 544l-166 -544h-83l-212 670h84l171 -549l165 549h82z" />
    <glyph glyph-name="wdieresis" unicode="&#x1e85;" horiz-adv-x="789" 
d="M269 720h73v-142h-73v142zM446 720h73v-142h-73v142zM554 105l128 388h80l-169 -493h-75l-124 387l-122 -387h-76l-170 493h81l128 -386l122 386h75z" />
    <glyph glyph-name="uni1E9E" unicode="&#x1e9e;" horiz-adv-x="699" 
d="M429 404l2.99902 0.000976562c63.333 0 114.666 -19.833 153.999 -59.5s59 -87.834 59 -144.501s-19.833 -104.167 -59.5 -142.5s-91.167 -57.5 -154.5 -57.5h-101v73h100c42.667 0 76.334 12.333 101.001 37s37 55 37 91s-12.5 66.333 -37.5 91s-58.833 37 -101.5 37
h-99v52l144 214h-242c-19.333 0 -34.166 -5.33301 -44.499 -16s-15.5 -25 -15.5 -43v-536h-77v542c0 39.333 11.5 70.5 34.5 93.5s54.5 34.5 94.5 34.5h351v-51z" />
    <glyph glyph-name="Ygrave" unicode="&#x1ef2;" horiz-adv-x="714" 
d="M338 832l95 -112h-82l-97 112h84zM585 670h92l-282 -379v-291h-77v288l-281 382h94l227 -310z" />
    <glyph glyph-name="ygrave" unicode="&#x1ef3;" horiz-adv-x="562" 
d="M266 720l95 -142h-82l-97 142h84zM291 50l170.001 443h76l-225 -584c-14 -37.333 -32.833 -64.833 -56.5 -82.5s-54.5 -26.5 -92.5 -26.5h-113v75h113c21.333 0 38.166 4.33301 50.499 13s22.5 23 30.5 43l8 21l-229 541h83z" />
    <glyph glyph-name="endash" unicode="&#x2013;" horiz-adv-x="748" 
d="M79 237v73h589v-73h-589z" />
    <glyph glyph-name="emdash" unicode="&#x2014;" horiz-adv-x="871" 
d="M79 238v70h713v-70h-713z" />
    <glyph glyph-name="quoteleft" unicode="&#x2018;" horiz-adv-x="278" 
d="M140 469h-89l90 251h73z" />
    <glyph glyph-name="quoteright" unicode="&#x2019;" horiz-adv-x="280" 
d="M137 720h88l-89 -251h-73z" />
    <glyph glyph-name="quotesinglbase" unicode="&#x201a;" horiz-adv-x="309" 
d="M149 120h89l-90 -251h-73z" />
    <glyph glyph-name="quotedblleft" unicode="&#x201c;" horiz-adv-x="450" 
d="M151 469h-89l90 252h73zM321 469h-89l90 252h73z" />
    <glyph glyph-name="quotedblright" unicode="&#x201d;" horiz-adv-x="450" 
d="M129 720h89l-90 -251h-73zM299 720h89l-90 -251h-73z" />
    <glyph glyph-name="quotedblbase" unicode="&#x201e;" horiz-adv-x="455" 
d="M134 120h88l-89 -251h-73zM310 120h89l-90 -251h-72z" />
    <glyph glyph-name="dagger" unicode="&#x2020;" horiz-adv-x="517" 
d="M294 493h158v-66h-158v-427h-70v427h-159v66h159v177h70v-177z" />
    <glyph glyph-name="daggerdbl" unicode="&#x2021;" horiz-adv-x="543" 
d="M465 493v-66h-158v-177h158v-67h-158v-183h-70v183h-159v67h159v177h-159v66h159v177h70v-177h158z" />
    <glyph glyph-name="bullet" unicode="&#x2022;" horiz-adv-x="414" 
d="M209 378c32 0 59.667 -11.833 83 -35.5s35 -52.167 35 -85.5c0 -32 -11.667 -59.667 -35 -83s-51 -35 -83 -35c-34 0 -62.833 11.667 -86.5 35s-35.5 51 -35.5 83c0 33.333 11.833 61.833 35.5 85.5s52.5 35.5 86.5 35.5z" />
    <glyph glyph-name="ellipsis" unicode="&#x2026;" horiz-adv-x="865" 
d="M97 100h95v-100h-95v100zM385 100h95v-100h-95v100zM674 100h95v-100h-95v100z" />
    <glyph glyph-name="perthousand" unicode="&#x2030;" horiz-adv-x="1224" 
d="M232 362c-46 0 -84.499 15.5 -115.499 46.5s-46.5 69.5 -46.5 115.5c0 44.667 15.667 82.667 47 114s69.666 47 114.999 47s83.5 -15.667 114.5 -47s46.5 -69.333 46.5 -114c0 -46 -15.5 -84.5 -46.5 -115.5s-69.167 -46.5 -114.5 -46.5zM155.001 0l470 670h72l-470 -670
h-72zM232.001 425c27.333 0 50.5 9.66699 69.5 29s28.5 42.666 28.5 69.999c0 26 -9.66699 48.667 -29 68s-42.333 29 -69 29s-49.5 -9.66699 -68.5 -29s-28.5 -42 -28.5 -68c0 -27.333 9.5 -50.666 28.5 -69.999s41.833 -29 68.5 -29zM618.001 -15
c-46 0 -84.5 15.667 -115.5 47s-46.5 69.666 -46.5 114.999c0 44.667 15.5 82.667 46.5 114s69.5 47 115.5 47c45.333 0 83.5 -15.667 114.5 -47s46.5 -69.333 46.5 -114c0 -45.333 -15.5 -83.666 -46.5 -114.999s-69.167 -47 -114.5 -47zM994.001 -15
c-46.667 0 -85.5 15.499 -116.5 46.499s-46.5 69.5 -46.5 115.5c0 44.667 15.667 82.667 47 114s70 47 116 47c44.667 0 82.5 -15.667 113.5 -47s46.5 -69.333 46.5 -114c0 -45.333 -15.5 -83.666 -46.5 -114.999s-68.833 -47 -113.5 -47zM618.001 48.999
c27.333 0 50.668 9.5 70.001 28.5s29 42.167 29 69.5c0 26.667 -9.83301 49.667 -29.5 69s-42.834 29 -69.501 29s-49.5 -9.66699 -68.5 -29s-28.5 -42.333 -28.5 -69c0 -27.333 9.33301 -50.5 28 -69.5s41.667 -28.5 69 -28.5zM994.003 48.999c27.333 0 50.5 9.5 69.5 28.5
s28.5 42.167 28.5 69.5c0 26.667 -9.66699 49.667 -29 69s-42.333 29 -69 29s-49.667 -9.66699 -69 -29s-29 -42.333 -29 -69c0 -27.333 9.5 -50.5 28.5 -69.5s42.167 -28.5 69.5 -28.5z" />
    <glyph glyph-name="guilsinglleft" unicode="&#x2039;" horiz-adv-x="313" 
d="M199 424h82l-156 -186l156 -186h-82l-153 186z" />
    <glyph glyph-name="guilsinglright" unicode="&#x203a;" horiz-adv-x="313" 
d="M188 238l-156 186h82l153 -186l-153 -186h-82z" />
    <glyph glyph-name="fraction" unicode="&#x2044;" horiz-adv-x="338" 
d="M-100 0l470 670h68l-470 -670h-68z" />
    <glyph glyph-name="uni2070" unicode="&#x2070;" horiz-adv-x="406" 
d="M42 426v98c0 44.667 15.667 81.834 47 111.501s69.333 44.5 114 44.5s82.667 -14.833 114 -44.5s47 -66.834 47 -111.501v-98c0 -44.667 -15.667 -81.834 -47 -111.501s-69.333 -44.5 -114 -44.5s-82.667 14.833 -114 44.5s-47 66.834 -47 111.501zM102 524v-98
c0 -28 9.66699 -51 29 -69s43.333 -27 72 -27s52.667 9 72 27s29 41 29 69v98c0 28 -9.66699 51 -29 69s-43.333 27 -72 27s-52.667 -9 -72 -27s-29 -41 -29 -69z" />
    <glyph glyph-name="uni2074" unicode="&#x2074;" horiz-adv-x="376" 
d="M294 432h61v-57h-61v-99h-61v99h-217v45l193 250h85v-238zM233 614l-136 -182h136v182z" />
    <glyph glyph-name="uni2075" unicode="&#x2075;" horiz-adv-x="366" 
d="M108 511l101 -0.000976562c37.333 0 67.833 -11.333 91.5 -34s35.5 -49.667 35.5 -81c0 -33.333 -11.833 -61.666 -35.5 -84.999s-54.167 -35 -91.5 -35h-159v60h157c19.333 0 35.5 5.83301 48.5 17.5s19.5 25.5 19.5 41.5c0 15.333 -6.5 29 -19.5 41
s-29.167 18 -48.5 18h-160l24 216h235v-60h-187z" />
    <glyph glyph-name="uni2076" unicode="&#x2076;" horiz-adv-x="382" 
d="M168 670h140.002v-60h-139c-20.667 0 -32.667 -9 -36 -27l-21 -89h2c26 20 59.333 30 100 30c41.333 0 75.333 -11.5 102 -34.5s40 -53.167 40 -90.5c0 -38.667 -15.333 -70 -46 -94s-69 -36 -115 -36c-36 0 -67.667 7.83301 -95 23.5s-46 36.5 -56 62.5
c-6.66699 20.667 -8.33398 42.667 -5.00098 66c5.33301 33.333 17.666 93 36.999 179c5.33301 21.333 16 38.333 32 51s36 19 60 19zM96.002 399c0 -22 9 -39.667 27 -53s41.667 -20 71 -20c30 0 54.5 6.83301 73.5 20.5s28.5 31.167 28.5 52.5
s-9.16699 38.666 -27.5 51.999s-42.5 20 -72.5 20c-29.333 0 -53.333 -6.66699 -72 -20s-28 -30.666 -28 -51.999z" />
    <glyph glyph-name="uni2077" unicode="&#x2077;" horiz-adv-x="314" 
d="M13 610v60h284v-45l-170 -349h-65l167 334h-216z" />
    <glyph glyph-name="uni2078" unicode="&#x2078;" horiz-adv-x="398" 
d="M287 483c48.667 -19.333 73 -51 73 -95c0 -36 -15.333 -64.667 -46 -86s-69 -32 -115 -32s-84.5 10.833 -115.5 32.5s-46.5 50.167 -46.5 85.5c0 44 24.667 75.667 74 95c-42.667 19.333 -64 48.333 -64 87c0 33.333 14.5 60 43.5 80s65.167 30 108.5 30
c42.667 0 78.667 -10 108 -30s44 -46.667 44 -80c0 -38.667 -21.333 -67.667 -64 -87zM199 623c-25.333 0 -46.833 -5.16699 -64.5 -15.5s-26.5 -24.166 -26.5 -41.499s8.66699 -31 26 -41s39 -15 65 -15s47.833 5.16699 65.5 15.5s26.5 23.833 26.5 40.5
c0 17.333 -8.66699 31.166 -26 41.499s-39.333 15.5 -66 15.5zM199 326c28.667 0 52.834 6 72.501 18s29.5 27.667 29.5 47s-9.83301 35 -29.5 47s-43.834 18 -72.501 18s-52.667 -6 -72 -18s-29 -27.667 -29 -47c0 -18.667 9.66699 -34.167 29 -46.5s43.333 -18.5 72 -18.5
z" />
    <glyph glyph-name="uni2079" unicode="&#x2079;" horiz-adv-x="382" 
d="M214 279l-140.001 0.00195312v59h136c22.667 0 35.667 9 39 27l21 90h-2c-26.667 -20.667 -60 -31 -100 -31c-41.333 0 -75.333 11.667 -102 35s-40 53.666 -40 90.999c0 38.667 15.333 70 46 94s69 36 115 36c36.667 0 68.667 -7.83301 96 -23.5
s45.666 -36.834 54.999 -63.501c6.66699 -19.333 8.33398 -41.333 5.00098 -66c-5.33301 -32.667 -17.666 -92 -36.999 -178c-5.33301 -21.333 -16 -38.333 -32 -51s-36 -19 -60 -19zM285.999 550.002c0 22 -9 39.5 -27 52.5s-41.667 19.5 -71 19.5
c-30 0 -54.5 -6.66699 -73.5 -20s-28.5 -31 -28.5 -53c0 -20.667 9.16699 -37.667 27.5 -51s42.5 -20 72.5 -20c29.333 0 53.333 6.5 72 19.5s28 30.5 28 52.5z" />
    <glyph glyph-name="uni2080" unicode="&#x2080;" horiz-adv-x="406" 
d="M42 149v98c0 44.667 15.5 81.667 46.5 111s69.167 44 114.5 44s83.5 -14.667 114.5 -44s46.5 -66.333 46.5 -111v-98c0 -44.667 -15.667 -81.667 -47 -111s-69.333 -44 -114 -44c-45.333 0 -83.5 14.667 -114.5 44s-46.5 66.333 -46.5 111zM102 247v-98
c0 -28 9.66699 -51 29 -69s43.333 -27 72 -27s52.667 9 72 27s29 41 29 69v98c0 28 -9.66699 51 -29 69s-43.333 27 -72 27s-52.667 -9 -72 -27s-29 -41 -29 -69z" />
    <glyph glyph-name="uni2081" unicode="&#x2081;" horiz-adv-x="241" 
d="M177 394v-394h-60v334h-105v60h165z" />
    <glyph glyph-name="uni2082" unicode="&#x2082;" horiz-adv-x="345" 
d="M264 205l-148 -145h194v-60h-285v48l201 198c12.667 12.667 19 27.334 19 44.001c0 12.667 -5.5 23.167 -16.5 31.5s-24.167 12.5 -39.5 12.5h-159v60h160c34 0 61.833 -9.83301 83.5 -29.5s32.5 -44.167 32.5 -73.5c0 -30.667 -14 -59.334 -42 -86.001z" />
    <glyph glyph-name="uni2083" unicode="&#x2083;" horiz-adv-x="352" 
d="M188 229h12c32.667 0 61 -10.5 85 -31.5s36 -47.5 36 -79.5c0 -32.667 -12.167 -60.5 -36.5 -83.5s-53.5 -34.5 -87.5 -34.5h-169v60h166c18 0 33.667 5.83301 47 17.5s20 25.5 20 41.5c0 15.333 -6.66699 28.833 -20 40.5s-29 17.5 -47 17.5h-88v40l112 117h-190v60h275
v-45z" />
    <glyph glyph-name="uni2084" unicode="&#x2084;" horiz-adv-x="376" 
d="M294 156h61v-57h-61v-99h-61v99h-217v45l193 250h85v-238zM233 338l-136 -182h136v182z" />
    <glyph glyph-name="uni2085" unicode="&#x2085;" horiz-adv-x="366" 
d="M108 234l101 -0.00195312c37.333 0 67.833 -11.167 91.5 -33.5s35.5 -49.166 35.5 -80.499c0 -33.333 -11.833 -61.666 -35.5 -84.999s-54.167 -35 -91.5 -35h-159v60h157c19.333 0 35.5 5.83301 48.5 17.5s19.5 25.5 19.5 41.5c0 15.333 -6.5 29 -19.5 41
s-29.167 18 -48.5 18h-160l24 216h235v-60h-187z" />
    <glyph glyph-name="uni2086" unicode="&#x2086;" horiz-adv-x="379" 
d="M169 394l136 -0.00195312v-59h-139c-20 0 -32 -9 -36 -27l-21 -90h2c28 20.667 61.333 31 100 31c41.333 0 75.333 -11.667 102 -35s40 -53.666 40 -90.999c0 -38.667 -15.333 -70 -46 -94s-68.667 -36 -114 -36c-36.667 0 -68.5 7.83301 -95.5 23.5
s-45.5 36.834 -55.5 63.501c-6.66699 18 -8 40 -4 66c2 12 15 71.333 39 178c4.66699 21.333 15.167 38.333 31.5 51s36.5 19 60.5 19zM94 122.998c0 -22 8.99902 -39.5 26.999 -52.5s41.667 -19.5 71 -19.5c30 0 54.333 6.66699 73 20s28 31 28 53
c0 20.667 -9.16699 37.667 -27.5 51s-42.166 20 -71.499 20c-30 0 -54.167 -6.5 -72.5 -19.5s-27.5 -30.5 -27.5 -52.5z" />
    <glyph glyph-name="uni2087" unicode="&#x2087;" horiz-adv-x="314" 
d="M13 334v60h284v-45l-170 -349h-65l167 334h-216z" />
    <glyph glyph-name="uni2088" unicode="&#x2088;" horiz-adv-x="398" 
d="M287 206c48.667 -19.333 73 -51 73 -95c0 -36 -15.333 -64.667 -46 -86s-69 -32 -115 -32s-84.5 10.833 -115.5 32.5s-46.5 50.167 -46.5 85.5c0 44 24.667 75.667 74 95c-42.667 19.333 -64 48.333 -64 87c0 33.333 14.5 60 43.5 80s65.167 30 108.5 30
c42.667 0 78.667 -10 108 -30s44 -46.667 44 -80c0 -38.667 -21.333 -67.667 -64 -87zM199 346c-25.333 0 -46.833 -5.16699 -64.5 -15.5s-26.5 -24.166 -26.5 -41.499s8.66699 -31 26 -41s39 -15 65 -15s47.833 5.16699 65.5 15.5s26.5 23.833 26.5 40.5
c0 17.333 -8.66699 31.166 -26 41.499s-39.333 15.5 -66 15.5zM199 49c28.667 0 52.834 6 72.501 18s29.5 27.667 29.5 47s-9.83301 35 -29.5 47s-43.834 18 -72.501 18s-52.667 -6 -72 -18s-29 -27.667 -29 -47c0 -18.667 9.66699 -34.167 29 -46.5s43.333 -18.5 72 -18.5z
" />
    <glyph glyph-name="uni2089" unicode="&#x2089;" horiz-adv-x="379" 
d="M210 0h-136v60h139c20.667 0 32.667 9 36 27l21 89h-2c-26 -20 -59.333 -30 -100 -30c-41.333 0 -75.333 11.5 -102 34.5s-40 53.167 -40 90.5c0 38.667 15.333 70 46 94s69 36 115 36c36 0 67.5 -7.83301 94.5 -23.5s45.5 -36.5 55.5 -62.5
c6.66699 -17.333 8 -39.333 4 -66c-2 -14 -15 -73.667 -39 -179c-4.66699 -21.333 -15.167 -38.333 -31.5 -51s-36.5 -19 -60.5 -19zM286 271c0 22 -9 39.667 -27 53s-41.667 20 -71 20c-30 0 -54.5 -6.83301 -73.5 -20.5s-28.5 -31.167 -28.5 -52.5
s9.16699 -38.666 27.5 -51.999s42.5 -20 72.5 -20c29.333 0 53.333 6.66699 72 20s28 30.666 28 51.999z" />
    <glyph glyph-name="Euro" unicode="&#x20ac;" horiz-adv-x="696" 
d="M492 75l123.003 0.000976562v-75h-119c-80.667 0 -149.334 20.333 -206.001 61s-95.334 95 -116.001 163h-89v69h75c-1.33301 18.667 -2 32.667 -2 42c0 15.333 1 30.666 3 45.999h-76v69h91c21.333 67.333 60 120.833 116 160.5s124 59.5 204 59.5h118v-75h-122
c-56 0 -104.167 -12.833 -144.5 -38.5s-69.833 -61.167 -88.5 -106.5h270v-69h-289c-2 -14.667 -3 -30 -3 -46c0 -14 1 -28 3 -42h289v-69h-272c18.667 -46 48.167 -82.333 88.5 -109s89.166 -40 146.499 -40z" />
    <glyph glyph-name="uni20B4" unicode="&#x20b4;" horiz-adv-x="728" 
d="M632 379h-536.002v71h332c30.667 0 54.334 7.66699 71.001 23s24.334 33.333 23.001 54c-0.666992 19.333 -9 35.833 -25 49.5s-39 20.5 -69 20.5h-281v73h288c54.667 0 96.167 -11.833 124.5 -35.5s42.5 -53.5 42.5 -89.5c0 -19.333 -5.5 -37.5 -16.5 -54.5
s-24.167 -29.833 -39.5 -38.5v-2h86v-71zM95.998 291h536.004v-71h-332c-28.667 0 -51.334 -7.33301 -68.001 -22s-25.334 -31.667 -26.001 -51c-0.666992 -20 7.16602 -37.333 23.499 -52s39.833 -22 70.5 -22h281v-73h-287c-54.667 -0 -96.334 11.833 -125.001 35.5
s-43 53.5 -43 89.5c0 18.667 5.5 36.5 16.5 53.5s24.167 30.167 39.5 39.5v2h-86v71z" />
    <glyph glyph-name="uni20BD" unicode="&#x20bd;" horiz-adv-x="749" 
d="M458 293h-193v-90h310v-69h-310v-134h-77v134h-102v69h102v90h-102v71h102v306h271c38 0 72.167 -7 102.5 -21s53.333 -32 69 -54s27.167 -46.333 34.5 -73s7.33301 -53.5 0 -80.5s-18.833 -51.5 -34.5 -73.5s-38.667 -40 -69 -54s-64.833 -21 -103.5 -21zM457 595h-192
v-231h192c42.667 0 76 12 100 36s36 50.5 36 79.5s-12.167 55.5 -36.5 79.5s-57.5 36 -99.5 36z" />
    <glyph glyph-name="uni2116" unicode="&#x2116;" horiz-adv-x="1141" 
d="M908 373c-43.333 0 -80.165 15 -110.498 45s-45.5 66.667 -45.5 110s15.167 80 45.5 110s67.166 45 110.499 45c42.667 0 78.667 -15 108 -45s44.333 -66.667 45 -110c0 -43.333 -14.833 -80 -44.5 -110s-65.834 -45 -108.501 -45zM214.001 670l401 -537v537h76v-670h-76
l-419 566v-566h-77v670h95zM908.001 615c-25.333 0 -46.334 -8.33301 -63.001 -25s-24.667 -37.334 -24 -62.001c0 -24 8.33301 -44.5 25 -61.5s37.334 -25.5 62.001 -25.5c23.333 0 43.5 8.5 60.5 25.5s25.5 37.5 25.5 61.5c0 24.667 -8.33301 45.334 -25 62.001
s-37 25 -61 25zM1051 254h-289v68h289v-68z" />
    <glyph glyph-name="trademark" unicode="&#x2122;" horiz-adv-x="926" 
d="M205 622h-137v48h323v-48h-136v-297h-50v297zM807 670v-345h-51v282l-125 -282h-35l-124 281v-281h-51v345h77l116 -263l118 263h75z" />
    <glyph glyph-name="oneeighth" unicode="&#x215b;" horiz-adv-x="877" 
d="M202 276h-60v334h-105v60h165v-394zM118 0l470 670h68l-470 -670h-68zM745 206c49.333 -19.333 74 -51 74 -95c0 -36 -15.5 -64.667 -46.5 -86s-69.5 -32 -115.5 -32c-45.333 0 -83.5 10.833 -114.5 32.5s-46.5 50.167 -46.5 85.5c0 44 24.333 75.667 73 95
c-42 19.333 -63 48.333 -63 87c0 33.333 14.333 60 43 80s64.667 30 108 30c42.667 0 78.667 -10 108 -30s44 -46.667 44 -80c0 -38.667 -21.333 -67.667 -64 -87zM657 346c-25.333 0 -46.667 -5.16699 -64 -15.5s-26 -24.166 -26 -41.499s8.5 -31 25.5 -41
s38.5 -15 64.5 -15c26.667 0 48.834 5 66.501 15s26.5 23.667 26.5 41s-8.83301 31.166 -26.5 41.499s-39.834 15.5 -66.501 15.5zM656.999 49c29.333 0 53.833 6 73.5 18s29.5 27.667 29.5 47s-9.83301 35 -29.5 47s-44.167 18 -73.5 18c-28.667 0 -52.5 -6 -71.5 -18
s-28.5 -27.667 -28.5 -47c0 -18.667 9.66699 -34.167 29 -46.5s43 -18.5 71 -18.5z" />
    <glyph glyph-name="threeeighths" unicode="&#x215c;" horiz-adv-x="948" 
d="M347 394c0 -32.667 -12.167 -60.5 -36.5 -83.5s-53.5 -34.5 -87.5 -34.5h-169v60h166c18 0 33.667 6 47 18s20 25.667 20 41s-6.66699 28.833 -20 40.5s-29 17.5 -47 17.5h-88v40l112 117h-190v60h275v-45l-115 -120h12c32.667 0 61 -10.5 85 -31.5s36 -47.5 36 -79.5z
M189 0l470 670h68l-470 -670h-68zM816 206c49.333 -19.333 74 -51 74 -95c0 -36 -15.5 -64.667 -46.5 -86s-69.5 -32 -115.5 -32c-45.333 0 -83.5 10.833 -114.5 32.5s-46.5 50.167 -46.5 85.5c0 44 24.333 75.667 73 95c-42 19.333 -63 48.333 -63 87
c0 33.333 14.333 60 43 80s64.667 30 108 30c42.667 0 78.667 -10 108 -30s44 -46.667 44 -80c0 -38.667 -21.333 -67.667 -64 -87zM728 346c-25.333 0 -46.667 -5.16699 -64 -15.5s-26 -24.166 -26 -41.499s8.5 -31 25.5 -41s38.5 -15 64.5 -15
c26.667 0 48.834 5 66.501 15s26.5 23.667 26.5 41s-8.83301 31.166 -26.5 41.499s-39.834 15.5 -66.501 15.5zM727.999 49c29.333 0 53.833 6 73.5 18s29.5 27.667 29.5 47s-9.83301 35 -29.5 47s-44.167 18 -73.5 18c-28.667 0 -52.5 -6 -71.5 -18
s-28.5 -27.667 -28.5 -47c0 -18.667 9.66699 -34.167 29 -46.5s43 -18.5 71 -18.5z" />
    <glyph glyph-name="fiveeighths" unicode="&#x215d;" horiz-adv-x="943" 
d="M72 336l157 -0.000976562c18.667 0 34.5 5.83301 47.5 17.5s19.5 25.5 19.5 41.5c0 15.333 -6.5 29 -19.5 41s-28.833 18 -47.5 18h-161l24 216h236v-60h-188l-11 -99h101c37.333 0 68 -11.333 92 -34s36 -49.667 36 -81c0 -33.333 -12 -61.666 -36 -84.999
s-54.667 -35 -92 -35h-158v60zM181 -0.000976562l470 670h68l-470 -670h-68zM808 205.999c49.333 -19.333 74 -51 74 -95c0 -36 -15.5 -64.667 -46.5 -86s-69.5 -32 -115.5 -32c-45.333 0 -83.5 10.833 -114.5 32.5s-46.5 50.167 -46.5 85.5c0 44 24.333 75.667 73 95
c-42 19.333 -63 48.333 -63 87c0 33.333 14.333 60 43 80s64.667 30 108 30c42.667 0 78.667 -10 108 -30s44 -46.667 44 -80c0 -38.667 -21.333 -67.667 -64 -87zM720 345.999c-25.333 0 -46.667 -5.16699 -64 -15.5s-26 -24.166 -26 -41.499s8.5 -31 25.5 -41
s38.5 -15 64.5 -15c26.667 0 48.834 5 66.501 15s26.5 23.667 26.5 41s-8.83301 31.166 -26.5 41.499s-39.834 15.5 -66.501 15.5zM719.999 48.999c29.333 0 53.833 6 73.5 18s29.5 27.667 29.5 47s-9.83301 35 -29.5 47s-44.167 18 -73.5 18c-28.667 0 -52.5 -6 -71.5 -18
s-28.5 -27.667 -28.5 -47c0 -18.667 9.66699 -34.167 29 -46.5s43 -18.5 71 -18.5z" />
    <glyph glyph-name="arrowleft" unicode="&#x2190;" horiz-adv-x="673" 
d="M577 -15l-500 288l500 290v-578z" />
    <glyph glyph-name="arrowup" unicode="&#x2191;" horiz-adv-x="743" 
d="M77 0l294 510l295 -510h-589z" />
    <glyph glyph-name="arrowright" unicode="&#x2192;" horiz-adv-x="673" 
d="M97 563l500 -290l-500 -288v578z" />
    <glyph glyph-name="arrowdown" unicode="&#x2193;" horiz-adv-x="731" 
d="M655 493l-290 -500l-288 500h578z" />
    <glyph glyph-name="minus" unicode="&#x2212;" horiz-adv-x="704" 
d="M119 285v71h466v-71h-466z" />
    <glyph glyph-name="uni2460" unicode="&#x2460;" horiz-adv-x="823" 
d="M412 -13c-96 0 -178.167 34 -246.5 102s-102.5 150 -102.5 246s34.167 178 102.5 246s150.5 102 246.5 102c95.333 0 177 -34 245 -102s102 -150 102 -246s-34 -178 -102 -246s-149.667 -102 -245 -102zM412 36c82 0 152.167 29.333 210.5 88s87.5 129 87.5 211
s-29.167 152.333 -87.5 211s-128.5 88 -210.5 88c-82.667 0 -153.334 -29.333 -212.001 -88s-88 -129 -88 -211s29.333 -152.333 88 -211s129.334 -88 212.001 -88zM306 532v-60h104v-334h61v394h-165z" />
    <glyph glyph-name="uni2461" unicode="&#x2461;" horiz-adv-x="823" 
d="M412 -13c-96 0 -178.167 34 -246.5 102s-102.5 150 -102.5 246s34.167 178 102.5 246s150.5 102 246.5 102c95.333 0 177 -34 245 -102s102 -150 102 -246s-34 -178 -102 -246s-149.667 -102 -245 -102zM412 36c82 0 152.167 29.333 210.5 88s87.5 129 87.5 211
s-29.167 152.333 -87.5 211s-128.5 88 -210.5 88c-82.667 0 -153.334 -29.333 -212.001 -88s-88 -129 -88 -211s29.333 -152.333 88 -211s129.334 -88 212.001 -88zM274 186v-48h285v60h-193l147 145c28 26.667 42 55.334 42 86.001c0 29.333 -10.833 53.833 -32.5 73.5
s-49.5 29.5 -83.5 29.5h-160v-60h159c15.333 0 28.5 -4.16699 39.5 -12.5s16.5 -18.833 16.5 -31.5c0 -16.667 -6.33301 -31.334 -19 -44.001z" />
    <glyph glyph-name="uni2462" unicode="&#x2462;" horiz-adv-x="823" 
d="M412 -13c-96 0 -178.167 34 -246.5 102s-102.5 150 -102.5 246s34.167 178 102.5 246s150.5 102 246.5 102c95.333 0 177 -34 245 -102s102 -150 102 -246s-34 -178 -102 -246s-149.667 -102 -245 -102zM412 36c82 0 152.167 29.333 210.5 88s87.5 129 87.5 211
s-29.167 152.333 -87.5 211s-128.5 88 -210.5 88c-82.667 0 -153.334 -29.333 -212.001 -88s-88 -129 -88 -211s29.333 -152.333 88 -211s129.334 -88 212.001 -88zM274 198v-60h169c34.667 0 64 11.5 88 34.5s36 50.833 36 83.5c0 32 -11.833 58.5 -35.5 79.5
s-52.167 31.5 -85.5 31.5h-12l115 120v45h-275v-60h191l-113 -117v-40h88c18 0 33.667 -5.83301 47 -17.5s20 -25.167 20 -40.5c0 -16 -6.66699 -29.833 -20 -41.5s-29 -17.5 -47 -17.5h-166z" />
    <glyph glyph-name="uni2463" unicode="&#x2463;" horiz-adv-x="823" 
d="M412 -13c-96 0 -178.167 34 -246.5 102s-102.5 150 -102.5 246s34.167 178 102.5 246s150.5 102 246.5 102c95.333 0 177 -34 245 -102s102 -150 102 -246s-34 -178 -102 -246s-149.667 -102 -245 -102zM412 36c82 0 152.167 29.333 210.5 88s87.5 129 87.5 211
s-29.167 152.333 -87.5 211s-128.5 88 -210.5 88c-82.667 0 -153.334 -29.333 -212.001 -88s-88 -129 -88 -211s29.333 -152.333 88 -211s129.334 -88 212.001 -88zM224 282v-44h217v-100h61v100h61v56h-61v238h-85zM441 294h-138l138 181v-181z" />
    <glyph glyph-name="uni2464" unicode="&#x2464;" horiz-adv-x="823" 
d="M412 -13c-96 0 -178.167 34 -246.5 102s-102.5 150 -102.5 246s34.167 178 102.5 246s150.5 102 246.5 102c95.333 0 177 -34 245 -102s102 -150 102 -246s-34 -178 -102 -246s-149.667 -102 -245 -102zM412 36c82 0 152.167 29.333 210.5 88s87.5 129 87.5 211
s-29.167 152.333 -87.5 211s-128.5 88 -210.5 88c-82.667 0 -153.334 -29.333 -212.001 -88s-88 -129 -88 -211s29.333 -152.333 88 -211s129.334 -88 212.001 -88zM303 532l-24 -215.999h161c19.333 0 35.333 -6 48 -18s19 -25.667 19 -41
c0 -16 -6.33301 -29.833 -19 -41.5s-28.667 -17.5 -48 -17.5h-157v-60h158c37.333 0 68 11.667 92 35s36 51.666 36 84.999c0 31.333 -12 58.333 -36 81s-54.667 34 -92 34h-101l11 99h188v60h-236z" />
    <glyph glyph-name="uni2465" unicode="&#x2465;" horiz-adv-x="823" 
d="M412 -13c-96 0 -178.167 34 -246.5 102s-102.5 150 -102.5 246s34.167 178 102.5 246s150.5 102 246.5 102c95.333 0 177 -34 245 -102s102 -150 102 -246s-34 -178 -102 -246s-149.667 -102 -245 -102zM412 36c82 0 152.167 29.333 210.5 88s87.5 129 87.5 211
s-29.167 152.333 -87.5 211s-128.5 88 -210.5 88c-82.667 0 -153.334 -29.333 -212.001 -88s-88 -129 -88 -211s29.333 -152.333 88 -211s129.334 -88 212.001 -88zM522 472v60h-136c-24 0 -44.167 -6.33301 -60.5 -19s-26.833 -29.667 -31.5 -51
c-24 -105.333 -37 -165 -39 -179c-4 -26.667 -2.66699 -48.667 4 -66c10 -26 28.5 -46.833 55.5 -62.5s58.5 -23.5 94.5 -23.5c46 0 84.333 12 115 36s46 55.333 46 94c0 37.333 -13.333 67.5 -40 90.5s-60.667 34.5 -102 34.5c-40.667 0 -74 -10 -100 -30h-2l21 89
c3.33301 18 15.333 27 36 27h139zM310 261c0 21.333 9.33301 38.666 28 51.999s42.667 20 72 20c30 0 54.167 -6.66699 72.5 -20s27.5 -30.666 27.5 -51.999s-9.5 -38.833 -28.5 -52.5s-43.5 -20.5 -73.5 -20.5c-29.333 0 -53 6.66699 -71 20s-27 31 -27 53z" />
    <glyph glyph-name="uni2466" unicode="&#x2466;" horiz-adv-x="823" 
d="M412 -13c-96 0 -178.167 34 -246.5 102s-102.5 150 -102.5 246s34.167 178 102.5 246s150.5 102 246.5 102c95.333 0 177 -34 245 -102s102 -150 102 -246s-34 -178 -102 -246s-149.667 -102 -245 -102zM412 36c82 0 152.167 29.333 210.5 88s87.5 129 87.5 211
s-29.167 152.333 -87.5 211s-128.5 88 -210.5 88c-82.667 0 -153.334 -29.333 -212.001 -88s-88 -129 -88 -211s29.333 -152.333 88 -211s129.334 -88 212.001 -88zM272 532v-60h215l-166 -334h65l170 349v45h-284z" />
    <glyph glyph-name="uni2467" unicode="&#x2467;" horiz-adv-x="823" 
d="M412 -13c-96 0 -178.167 34 -246.5 102s-102.5 150 -102.5 246s34.167 178 102.5 246s150.5 102 246.5 102c95.333 0 177 -34 245 -102s102 -150 102 -246s-34 -178 -102 -246s-149.667 -102 -245 -102zM412 36c82 0 152.167 29.333 210.5 88s87.5 129 87.5 211
s-29.167 152.333 -87.5 211s-128.5 88 -210.5 88c-82.667 0 -153.334 -29.333 -212.001 -88s-88 -129 -88 -211s29.333 -152.333 88 -211s129.334 -88 212.001 -88zM250 249c0 44 25 75.667 75 95c-43.333 18 -65 47 -65 87c0 32.667 14.333 59 43 79s64.667 30 108 30
c42.667 0 78.667 -9.83301 108 -29.5s44 -46.167 44 -79.5c0 -39.333 -21.667 -68.333 -65 -87c50 -19.333 75 -51 75 -95c0 -36 -15.5 -64.667 -46.5 -86s-69.5 -32 -115.5 -32c-45.333 0 -83.5 10.833 -114.5 32.5s-46.5 50.167 -46.5 85.5zM320 427
c0 -17.333 8.5 -31 25.5 -41s38.833 -15 65.5 -15c26 0 47.833 5 65.5 15s26.5 23.667 26.5 41s-8.66699 31.166 -26 41.499s-39.333 15.5 -66 15.5c-25.333 0 -46.833 -5.16699 -64.5 -15.5s-26.5 -24.166 -26.5 -41.499zM310 252c0 -18.667 9.66895 -34.167 29.002 -46.5
s43.333 -18.5 72 -18.5c29.333 0 53.666 6 72.999 18s29 27.667 29 47s-9.83301 34.833 -29.5 46.5s-43.834 17.5 -72.501 17.5s-52.667 -5.83301 -72 -17.5s-29 -27.167 -29 -46.5z" />
    <glyph glyph-name="uni2468" unicode="&#x2468;" horiz-adv-x="823" 
d="M412 -13c-96 0 -178.167 34 -246.5 102s-102.5 150 -102.5 246s34.167 178 102.5 246s150.5 102 246.5 102c95.333 0 177 -34 245 -102s102 -150 102 -246s-34 -178 -102 -246s-149.667 -102 -245 -102zM412 36c82 0 152.167 29.333 210.5 88s87.5 129 87.5 211
s-29.167 152.333 -87.5 211s-128.5 88 -210.5 88c-82.667 0 -153.334 -29.333 -212.001 -88s-88 -129 -88 -211s29.333 -152.333 88 -211s129.334 -88 212.001 -88zM303 200v-60h136c24 0 44.167 6.33301 60.5 19s26.833 29.667 31.5 51c24 105.333 37 165 39 179
c4 26.667 2.66699 48.667 -4 66c-10 26 -28.5 46.833 -55.5 62.5s-58.5 23.5 -94.5 23.5c-46 0 -84.333 -12 -115 -36s-46 -55.333 -46 -94c0 -37.333 13.333 -67.5 40 -90.5s60.667 -34.5 102 -34.5c40.667 0 74 10 100 30h2l-21 -89c-2.66699 -18 -14.667 -27 -36 -27
h-139zM515 411c0 -21.333 -9.33301 -38.666 -28 -51.999s-42.667 -20 -72 -20c-30 0 -54.167 6.66699 -72.5 20s-27.5 30.666 -27.5 51.999s9.5 38.833 28.5 52.5s43.5 20.5 73.5 20.5c29.333 0 53 -6.66699 71 -20s27 -31 27 -53z" />
    <glyph glyph-name="uni24EA" unicode="&#x24ea;" horiz-adv-x="823" 
d="M412 -13c-96 0 -178.167 34 -246.5 102s-102.5 150 -102.5 246s34.167 178 102.5 246s150.5 102 246.5 102c95.333 0 177 -34 245 -102s102 -150 102 -246s-34 -178 -102 -246s-149.667 -102 -245 -102zM412 36c82 0 152.167 29.333 210.5 88s87.5 129 87.5 211
s-29.167 152.333 -87.5 211s-128.5 88 -210.5 88c-82.667 0 -153.334 -29.333 -212.001 -88s-88 -129 -88 -211s29.333 -152.333 88 -211s129.334 -88 212.001 -88zM251 384v-98c0 -44.667 15.5 -81.667 46.5 -111s69.167 -44 114.5 -44c44.667 0 82.667 14.667 114 44
s47 66.333 47 111v98c0 44.667 -15.5 81.667 -46.5 111s-69.167 44 -114.5 44s-83.5 -14.667 -114.5 -44s-46.5 -66.333 -46.5 -111zM311 286v98c0 28 9.5 51 28.5 69s42.833 27 71.5 27s52.667 -9 72 -27s29 -41 29 -69v-98c0 -28 -9.66699 -51 -29 -69
s-43.333 -27 -72 -27s-52.5 9 -71.5 27s-28.5 41 -28.5 69z" />
    <glyph glyph-name="uni24FF" unicode="&#x24ff;" horiz-adv-x="823" 
d="M412 -13c-96 0 -178.167 34 -246.5 102s-102.5 150 -102.5 246s34.167 178 102.5 246s150.5 102 246.5 102c95.333 0 177 -34 245 -102s102 -150 102 -246s-34 -178 -102 -246s-149.667 -102 -245 -102zM251 384v-98c0 -44.667 15.5 -81.667 46.5 -111
s69.167 -44 114.5 -44c44.667 0 82.667 14.667 114 44s47 66.333 47 111v98c0 44.667 -15.5 81.667 -46.5 111s-69.167 44 -114.5 44s-83.5 -14.667 -114.5 -44s-46.5 -66.333 -46.5 -111zM311 286v98c0 28 9.5 51 28.5 69s42.833 27 71.5 27s52.667 -9 72 -27
s29 -41 29 -69v-98c0 -28 -9.66699 -51 -29 -69s-43.333 -27 -72 -27s-52.5 9 -71.5 27s-28.5 41 -28.5 69z" />
    <glyph glyph-name="uni2776" unicode="&#x2776;" horiz-adv-x="823" 
d="M412 -13c-96 0 -178.167 34 -246.5 102s-102.5 150 -102.5 246s34.167 178 102.5 246s150.5 102 246.5 102c95.333 0 177 -34 245 -102s102 -150 102 -246s-34 -178 -102 -246s-149.667 -102 -245 -102zM308 532v-60h104v-334h60v394h-164z" />
    <glyph glyph-name="uni2777" unicode="&#x2777;" horiz-adv-x="823" 
d="M412 -13c-96 0 -178.167 34 -246.5 102s-102.5 150 -102.5 246s34.167 178 102.5 246s150.5 102 246.5 102c95.333 0 177 -34 245 -102s102 -150 102 -246s-34 -178 -102 -246s-149.667 -102 -245 -102zM274 186v-48h285v60h-193l147 145c28 26.667 42 55.334 42 86.001
c0 29.333 -10.833 53.833 -32.5 73.5s-49.5 29.5 -83.5 29.5h-160v-60h159c15.333 0 28.5 -4.16699 39.5 -12.5s16.5 -18.833 16.5 -31.5c0 -16.667 -6.33301 -31.334 -19 -44.001z" />
    <glyph glyph-name="uni2778" unicode="&#x2778;" horiz-adv-x="823" 
d="M412 -13c-96 0 -178.167 34 -246.5 102s-102.5 150 -102.5 246s34.167 178 102.5 246s150.5 102 246.5 102c95.333 0 177 -34 245 -102s102 -150 102 -246s-34 -178 -102 -246s-149.667 -102 -245 -102zM274 198v-60h169c34.667 0 64 11.5 88 34.5s36 50.833 36 83.5
c0 32 -11.833 58.5 -35.5 79.5s-52.167 31.5 -85.5 31.5h-12l115 120v45h-275v-60h192l-114 -117v-40h88c18 0 33.667 -5.83301 47 -17.5s20 -25.167 20 -40.5c0 -16 -6.66699 -29.833 -20 -41.5s-29 -17.5 -47 -17.5h-166z" />
    <glyph glyph-name="uni2779" unicode="&#x2779;" horiz-adv-x="823" 
d="M412 -13c-96 0 -178.167 34 -246.5 102s-102.5 150 -102.5 246s34.167 178 102.5 246s150.5 102 246.5 102c95.333 0 177 -34 245 -102s102 -150 102 -246s-34 -178 -102 -246s-149.667 -102 -245 -102zM224 282v-44h217v-100h61v100h61v56h-61v238h-85zM441 294h-138
l138 181v-181z" />
    <glyph glyph-name="uni277A" unicode="&#x277a;" horiz-adv-x="823" 
d="M412 -13c-96 0 -178.167 34 -246.5 102s-102.5 150 -102.5 246s34.167 178 102.5 246s150.5 102 246.5 102c95.333 0 177 -34 245 -102s102 -150 102 -246s-34 -178 -102 -246s-149.667 -102 -245 -102zM303 532l-24 -215.999h161c19.333 0 35.333 -6 48 -18
s19 -25.667 19 -41c0 -16 -6.33301 -29.833 -19 -41.5s-28.667 -17.5 -48 -17.5h-157v-60h158c37.333 0 68 11.667 92 35s36 51.666 36 84.999c0 31.333 -12 58.333 -36 81s-54.667 34 -92 34h-101l11 99h188v60h-236z" />
    <glyph glyph-name="uni277B" unicode="&#x277b;" horiz-adv-x="823" 
d="M412 -13c-96 0 -178.167 34 -246.5 102s-102.5 150 -102.5 246s34.167 178 102.5 246s150.5 102 246.5 102c95.333 0 177 -34 245 -102s102 -150 102 -246s-34 -178 -102 -246s-149.667 -102 -245 -102zM522 472v60h-136c-24 0 -44.167 -6.33301 -60.5 -19
s-26.833 -29.667 -31.5 -51c-24 -105.333 -37 -165 -39 -179c-4 -26.667 -2.66699 -48.667 4 -66c10 -26 28.5 -46.833 55.5 -62.5s58.5 -23.5 94.5 -23.5c46 0 84.333 12 115 36s46 55.333 46 94c0 37.333 -13.333 67.5 -40 90.5s-60.667 34.5 -102 34.5
c-40.667 0 -74 -10 -100 -30h-2l21 89c3.33301 18 15.333 27 36 27h139zM310 261c0 21.333 9.33301 38.666 28 51.999s42.667 20 72 20c30 0 54.167 -6.66699 72.5 -20s27.5 -30.666 27.5 -51.999s-9.5 -38.833 -28.5 -52.5s-43.5 -20.5 -73.5 -20.5
c-29.333 0 -53 6.66699 -71 20s-27 31 -27 53z" />
    <glyph glyph-name="uni277C" unicode="&#x277c;" horiz-adv-x="823" 
d="M412 -13c-96 0 -178.167 34 -246.5 102s-102.5 150 -102.5 246s34.167 178 102.5 246s150.5 102 246.5 102c95.333 0 177 -34 245 -102s102 -150 102 -246s-34 -178 -102 -246s-149.667 -102 -245 -102zM272 532v-60h215l-166 -334h65l170 349v45h-284z" />
    <glyph glyph-name="uni277D" unicode="&#x277d;" horiz-adv-x="823" 
d="M412 -13c-96 0 -178.167 34 -246.5 102s-102.5 150 -102.5 246s34.167 178 102.5 246s150.5 102 246.5 102c95.333 0 177 -34 245 -102s102 -150 102 -246s-34 -178 -102 -246s-149.667 -102 -245 -102zM250 249c0 -35.333 15.5 -63.833 46.5 -85.5
s69.167 -32.5 114.5 -32.5c46 0 84.5 10.667 115.5 32s46.5 50 46.5 86c0 44 -25 75.667 -75 95c43.333 18.667 65 47.667 65 87c0 33.333 -14.667 59.833 -44 79.5s-65.333 29.5 -108 29.5c-43.333 0 -79.333 -10 -108 -30s-43 -46.333 -43 -79c0 -40 21.667 -69 65 -87
c-50 -19.333 -75 -51 -75 -95zM320 427c0 17.333 8.83301 31.166 26.5 41.499s39.167 15.5 64.5 15.5c26.667 0 48.667 -5.16699 66 -15.5s26 -24.166 26 -41.499s-8.83301 -31 -26.5 -41s-39.5 -15 -65.5 -15c-26.667 0 -48.5 5 -65.5 15s-25.5 23.667 -25.5 41zM310 252
c0 19.333 9.66504 34.833 28.998 46.5s43.333 17.5 72 17.5s52.834 -5.83301 72.501 -17.5s29.5 -27.167 29.5 -46.5s-9.66699 -35 -29 -47s-43.666 -18 -72.999 -18c-28.667 0 -52.667 6.16699 -72 18.5s-29 27.833 -29 46.5z" />
    <glyph glyph-name="uni277E" unicode="&#x277e;" horiz-adv-x="823" 
d="M412 -13c-96 0 -178.167 34 -246.5 102s-102.5 150 -102.5 246s34.167 178 102.5 246s150.5 102 246.5 102c95.333 0 177 -34 245 -102s102 -150 102 -246s-34 -178 -102 -246s-149.667 -102 -245 -102zM303 200v-60h136c24 0 44.167 6.33301 60.5 19
s26.833 29.667 31.5 51c24 105.333 37 165 39 179c4 26.667 2.66699 48.667 -4 66c-10 26 -28.5 46.833 -55.5 62.5s-58.5 23.5 -94.5 23.5c-46 0 -84.333 -12 -115 -36s-46 -55.333 -46 -94c0 -37.333 13.333 -67.5 40 -90.5s60.667 -34.5 102 -34.5c40.667 0 74 10 100 30
h2l-21 -89c-2.66699 -18 -14.667 -27 -36 -27h-139zM515 411c0 -21.333 -9.33301 -38.666 -28 -51.999s-42.667 -20 -72 -20c-30 0 -54.167 6.66699 -72.5 20s-27.5 30.666 -27.5 51.999s9.5 38.833 28.5 52.5s43.5 20.5 73.5 20.5c29.333 0 53 -6.66699 71 -20
s27 -31 27 -53z" />
    <glyph glyph-name=".null" horiz-adv-x="0" 
 />
    <glyph glyph-name="nonmarkingreturn" horiz-adv-x="333" 
 />
    <glyph glyph-name="I.alt" horiz-adv-x="517" 
d="M466 670v-75h-169v-520h169v-75h-415v75h170v520h-170v75h415z" />
    <glyph glyph-name="Iacute.alt" horiz-adv-x="517" 
d="M278 832h85l-98 -112h-82zM466 670v-75h-169v-520h169v-75h-415v75h170v520h-170v75h415z" />
    <glyph glyph-name="Icircumflex.alt" horiz-adv-x="517" 
d="M324 720l-66 73l-66 -73h-82l105 112h87l104 -112h-82zM466 670v-75h-169v-520h169v-75h-415v75h170v520h-170v75h415z" />
    <glyph glyph-name="Idieresis.alt" horiz-adv-x="517" 
d="M134 832h73v-112h-73v112zM311 832h73v-112h-73v112zM466 670v-75h-169v-520h169v-75h-415v75h170v520h-170v75h415z" />
    <glyph glyph-name="Idotaccent.alt" horiz-adv-x="517" 
d="M221 832h75v-112h-75v112zM466 670v-75h-169v-520h169v-75h-415v75h170v520h-170v75h415z" />
    <glyph glyph-name="Igrave.alt" horiz-adv-x="517" 
d="M240 832l95 -112h-82l-97 112h84zM466 670v-75h-169v-520h169v-75h-415v75h170v520h-170v75h415z" />
    <glyph glyph-name="Imacron.alt" horiz-adv-x="517" 
d="M119 786h280v-66h-280v66zM466 670v-75h-169v-520h169v-75h-415v75h170v520h-170v75h415z" />
    <glyph glyph-name="Iogonek.alt" horiz-adv-x="517" 
d="M466 670l-0.000976562 -75h-169v-520h169v-75h-168l-79 -106c-5.33301 -6.66699 -6.16602 -13.5 -2.49902 -20.5s9.83398 -10.5 18.501 -10.5h63v-63h-85c-32.667 0 -55.334 12.833 -68.001 38.5s-9 51.167 11 76.5l65 85h-170v75h170v520h-170v75h415z" />
    <glyph glyph-name="K.alt" horiz-adv-x="716" 
d="M668 0h-96l-237 307h-159v-307h-77v670h77v-288h156l235 288h93l-264 -321z" />
    <glyph glyph-name="uni0136.alt" horiz-adv-x="716" 
d="M660 670l-264 -321l272 -349h-96l-237 307h-159v-307h-77v670h77v-288h156l235 288h93zM336 -200h-82l95 142h84z" />
    <glyph glyph-name="R.alt" horiz-adv-x="738" 
d="M676 0l-89.9961 0.00195312l-157 268h-253v-268h-77v670h339c42 0 78.833 -8.33301 110.5 -25s55.667 -37.834 72 -63.501s26.666 -54.167 30.999 -85.5s2.16602 -61.333 -6.50098 -90s-24.834 -54.834 -48.501 -78.501s-52.834 -40.5 -87.501 -50.5zM436.004 595.002
h-260v-253h260c44.667 0 79.5 13.167 104.5 39.5s37.5 55.333 37.5 87s-12.667 60.667 -38 87s-60 39.5 -104 39.5z" />
    <glyph glyph-name="Racute.alt" horiz-adv-x="738" 
d="M376 832h85l-98 -112h-82zM676 0l-89.9961 0.00195312l-157 268h-253v-268h-77v670h339c42 0 78.833 -8.33301 110.5 -25s55.667 -37.834 72 -63.501s26.666 -54.167 30.999 -85.5s2.16602 -61.333 -6.50098 -90s-24.834 -54.834 -48.501 -78.501
s-52.834 -40.5 -87.501 -50.5zM436.004 595.002h-260v-253h260c44.667 0 79.5 13.167 104.5 39.5s37.5 55.333 37.5 87s-12.667 60.667 -38 87s-60 39.5 -104 39.5z" />
    <glyph glyph-name="Rcaron.alt" horiz-adv-x="738" 
d="M315 720l-105 112h83l66 -73l65 73h83l-105 -112h-87zM676 0l-89.9961 0.00195312l-157 268h-253v-268h-77v670h339c42 0 78.833 -8.33301 110.5 -25s55.667 -37.834 72 -63.501s26.666 -54.167 30.999 -85.5s2.16602 -61.333 -6.50098 -90
s-24.834 -54.834 -48.501 -78.501s-52.834 -40.5 -87.501 -50.5zM436.004 595.002h-260v-253h260c44.667 0 79.5 13.167 104.5 39.5s37.5 55.333 37.5 87s-12.667 60.667 -38 87s-60 39.5 -104 39.5z" />
    <glyph glyph-name="uni0156.alt" horiz-adv-x="738" 
d="M509 277l167.004 -276.998h-90l-157 268h-253v-268h-77v670h339c42 0 78.833 -8.33301 110.5 -25s55.667 -37.834 72 -63.501s26.666 -54.167 30.999 -85.5s2.16602 -61.333 -6.50098 -90s-24.834 -54.834 -48.501 -78.501s-52.834 -40.5 -87.501 -50.5zM436.004 595.002
h-260v-253h260c44.667 0 79.5 13.167 104.5 39.5s37.5 55.333 37.5 87s-12.667 60.667 -38 87s-60 39.5 -104 39.5zM343.004 -199.998h-82l95 142h84z" />
    <glyph glyph-name="i.loclTRK" horiz-adv-x="234" 
d="M79 720h75v-142h-75v142zM79 493h75v-493h-75v493z" />
    <glyph glyph-name="k.alt" horiz-adv-x="552" 
d="M532 0h-94l-181 220h-103v-220h-75v723h75v-433h111l174 203h88l-199 -239z" />
    <glyph glyph-name="uni0137.alt" horiz-adv-x="552" 
d="M527 493l-199 -239l204 -254h-94l-181 220h-103v-220h-75v723h75v-433h111l174 203h88zM268 -200h-82l95 142h84z" />
    <glyph glyph-name="k.alt1" horiz-adv-x="578" 
d="M362 421l181 -420.999h-84l-177 421c-38.667 -2 -69.667 -15.833 -93 -41.5s-35 -60.834 -35 -105.501v-274h-75v720h75v-303h4c23.333 50.667 69 76 137 76h236v-72h-169z" />
    <glyph glyph-name="uni0137.alt1" horiz-adv-x="578" 
d="M531 421l-169 0.000976562l181 -421h-84l-177 421c-38.667 -2 -69.667 -15.833 -93 -41.5s-35 -60.834 -35 -105.501v-274h-75v720h75v-303h4c23.333 50.667 69 76 137 76h236v-72zM278 -199.999h-82l95 142h84z" />
    <glyph glyph-name="S_T" horiz-adv-x="1171" 
d="M58 500c0 45.333 16.168 84.9961 48.501 118.996s76.166 51 131.499 51h897v-75h-250v-595h-77v595h-566c-30.667 0 -55.167 -9.16699 -73.5 -27.5s-27.5 -40.166 -27.5 -65.499c0 -20.667 6.5 -39.5 19.5 -56.5s31.5 -28.5 55.5 -34.5l250 -62
c45.333 -11.333 80 -33.166 104 -65.499s36 -67.5 36 -105.5c0 -48 -16.667 -89.667 -50 -125s-79 -53 -137 -53h-339v75h336c32.667 0 58.667 10.167 78 30.5s29 43.833 29 70.5c0 21.333 -7 41.333 -21 60s-33.667 31.334 -59 38.001l-251 62
c-43.333 10.667 -76.5 31.334 -99.5 62.001s-34.5 64.667 -34.5 102z" />
    <glyph glyph-name="T_T" horiz-adv-x="1141" 
d="M1098 670v-75h-249v-595h-77v595h-404v-595h-76v595h-249v75h1055z" />
    <glyph glyph-name="f_t" horiz-adv-x="852" 
d="M811 493v-71.999h-235v-293c0 -36.667 18.333 -55 55 -55h180v-73h-193c-37.333 0 -66.166 10 -86.499 30s-30.5 48.667 -30.5 86v305h-309v-421h-75v421h-90v72h90v110c0 35.333 10.667 63.666 32 84.999s49.666 32 84.999 32h176v-72h-163
c-36.667 0 -55 -18.333 -55 -55v-100h309v177h75v-177h235z" />
    <glyph glyph-name="j_j" horiz-adv-x="467" 
d="M79 720h75v-142h-75v142zM313 720h75v-142h-75v142zM79 493h74.999v-578c0 -37.333 -10.167 -65.833 -30.5 -85.5s-49.166 -29.5 -86.499 -29.5h-112v74h99c36.667 0 55 18 55 54v565zM312.999 493h75v-693h-75v693z" />
    <glyph glyph-name="r_t" horiz-adv-x="816" 
d="M776 493v-72h-235v-293c0 -36.667 18.333 -55 55 -55h180v-73h-193c-38 0 -67 10 -87 30s-30 48.667 -30 86v305h-143c-52 0 -93.167 -16 -123.5 -48s-45.5 -77 -45.5 -135v-238h-75v493h73v-98h3c28 65.333 85 98 171 98h140v177h75v-177h235z" />
    <glyph glyph-name="t_t" horiz-adv-x="852" 
d="M811 493l-0.000976562 -72h-235v-293c0 -36.667 18.333 -55 55 -55h180v-73h-193c-37.333 0 -66.166 10 -86.499 30s-30.5 48.667 -30.5 86v305h-309v-293c0 -36.667 18.333 -55 55 -55h176v-73h-189c-38 0 -67 10 -87 30s-30 48.667 -30 86v305h-90v72h90v177h75v-177
h309v177h75v-177h235z" />
    <glyph glyph-name="uni0416.alt" horiz-adv-x="1034" 
d="M994 0h-94l-194 307h-150v-307h-77v307h-151l-194 -307h-94l226 349l-218 321h91l191 -288h149v288h77v-288h148l191 288h91l-218 -321z" />
    <glyph glyph-name="uni041A.alt" horiz-adv-x="698" 
d="M668 0h-97l-236 307h-159v-307h-77v670h77v-288h156l237 288h91l-264 -321z" />
    <glyph glyph-name="uni0424.alt" horiz-adv-x="881" 
d="M478 670h54.001c83.333 0 152.833 -26 208.5 -78s83.5 -117.333 83.5 -196c0 -80 -27.667 -145.833 -83 -197.5s-125 -77.5 -209 -77.5h-54v-121h-76v121h-54c-84 0 -153.5 25.833 -208.5 77.5s-82.5 117.5 -82.5 197.5c0 78.667 27.667 144 83 196
s124.666 78 207.999 78h54v50h76v-50zM348.001 193h54v404h-54c-61.333 0 -112.5 -19 -153.5 -57s-61.5 -86 -61.5 -144c0 -59.333 20.333 -108 61 -146s92 -57 154 -57zM478.001 193h54c62 0 113.333 19 154 57s61 86.667 61 146c0 58 -20.5 106 -61.5 144
s-92.167 57 -153.5 57h-54v-404z" />
    <glyph glyph-name="uni0406.alt" horiz-adv-x="517" 
d="M466 670v-75h-169v-520h169v-75h-415v75h170v520h-170v75h415z" />
    <glyph glyph-name="uni0407.alt" horiz-adv-x="517" 
d="M130 832h73v-112h-73v112zM307 832h73v-112h-73v112zM466 670v-75h-169v-520h169v-75h-415v75h170v520h-170v75h415z" />
    <glyph glyph-name="uni042E.alt" horiz-adv-x="1022" 
d="M636 683c98 0 176.334 -33.5 235.001 -100.5s88 -149.5 88 -247.5c0 -98.667 -29.333 -181.167 -88 -247.5s-137 -99.5 -235 -99.5c-94 0 -169.833 30.667 -227.5 92s-88.834 138.333 -93.501 231h-139v-311h-77v671h77v-286h141c10 86.667 43.333 158 100 214
s129.667 84 219 84zM636.001 62c75.333 0 135 26.167 179 78.5s66 117.166 66 194.499s-22 142.166 -66 194.499s-103.667 78.5 -179 78.5c-74.667 0 -134.167 -26.167 -178.5 -78.5s-66.5 -117.166 -66.5 -194.499s22 -142.166 66 -194.499s103.667 -78.5 179 -78.5z" />
    <glyph glyph-name="uni042F.alt" horiz-adv-x="748" 
d="M648 670l0.00195312 -670.001h-76v268h-254l-157 -268h-89l167 277c-34.667 9.33301 -63.834 25.833 -87.501 49.5s-39.834 50 -48.501 79s-11 59.167 -7 90.5s14.167 59.833 30.5 85.5s40.5 46.834 72.5 63.501s68.667 25 110 25h339zM311.002 341.999h261v253h-260
c-35.333 0 -65.166 -8.66699 -89.499 -26s-39.5 -38.5 -45.5 -63.5s-6.16699 -49.833 -0.5 -74.5s20.667 -45.667 45 -63s54.166 -26 89.499 -26z" />
    <glyph glyph-name="uni0436.alt" horiz-adv-x="800" 
d="M775 0h-97l-166 220h-75v-220h-75v220h-74l-166 -220h-98l194 254l-188 239h91l159 -203h82v203h75v-203h82l159 203h92l-188 -239z" />
    <glyph glyph-name="uni043A.alt" horiz-adv-x="556" 
d="M532 0h-94l-179 220h-105v-220h-75v493h75v-203h112l172 203h89l-199 -239z" />
    <glyph glyph-name="uni0444.alt" horiz-adv-x="735" 
d="M405 494h29.001c74.667 0 136.167 -23.667 184.5 -71s72.5 -106.333 72.5 -177s-24.167 -129.5 -72.5 -176.5s-109.833 -70.5 -184.5 -70.5h-29v-199h-75v199h-30c-74.667 0 -135.834 23.5 -183.501 70.5s-71.5 105.833 -71.5 176.5s24 129.667 72 177s109 71 183 71h30
v176h75v-176zM300.001 70l30 -0.000976562v353h-30c-53.333 0 -96.666 -16.667 -129.999 -50s-50 -75.666 -50 -126.999s16.667 -93.5 50 -126.5s76.666 -49.5 129.999 -49.5zM405.001 69.999l29 0.000976562c54 0 97.833 16.5 131.5 49.5s50.5 75.167 50.5 126.5
s-17 93.666 -51 126.999s-77.667 50 -131 50h-29v-353z" />
    <glyph glyph-name="uni044F.alt" horiz-adv-x="598" 
d="M519 493l0.000976562 -492.998h-75v183h-197l-109 -183h-89l120 193c-30.667 11.333 -54.834 29.666 -72.501 54.999s-26.5 54.666 -26.5 87.999c0 44.667 15.333 82 46 112s68.667 45 114 45h289zM230.001 255.002l214 0.000976562v166h-214
c-24.667 0 -45 -7.83301 -61 -23.5s-24 -35.834 -24 -60.501c0 -24 8.16699 -43.667 24.5 -59s36.5 -23 60.5 -23z" />
    <glyph glyph-name="uni043A.alt1" horiz-adv-x="578" 
d="M363 418l180 -418.001h-84l-175 415c-40.667 -7.33301 -72.5 -26.666 -95.5 -57.999s-34.5 -72 -34.5 -122v-235h-75v493h73v-98h3c28 65.333 85 98 171 98h205v-75h-168z" />
    <glyph glyph-name="uni04070407" horiz-adv-x="550" 
d="M26 832h73v-112h-73v112zM239 832h73v-112h-73v112zM451 832h73v-112h-73v112zM99 0v670h77v-670h-77zM374 0v670h77v-670h-77z" />
    <glyph glyph-name="uni04570457" horiz-adv-x="470" 
d="M6 720h73v-142h-73v142zM198 720h73v-142h-73v142zM392 720h73v-142h-73v142zM79 493h75v-493h-75v493zM316 493h75v-493h-75v493z" />
    <glyph glyph-name="zero.osf" horiz-adv-x="694" 
d="M348 -13c-84.667 0 -154.001 27.5 -208.001 82.5s-81 122.833 -81 203.5s27 148.667 81 204s123.333 83 208 83c84 0 153 -27.667 207 -83s81 -123.333 81 -204s-27.167 -148.5 -81.5 -203.5s-123.166 -82.5 -206.499 -82.5zM347.999 60c62 0 113 20.5 153 61.5
s60 91.5 60 151.5c0 59.333 -20 109.833 -60 151.5s-91 62.5 -153 62.5c-62.667 0 -114 -20.667 -154 -62s-60 -92 -60 -152s20 -110.5 60 -151.5s91.333 -61.5 154 -61.5z" />
    <glyph glyph-name="one.osf" horiz-adv-x="413" 
d="M41 546h277v-546h-75v474h-202v72z" />
    <glyph glyph-name="two.osf" horiz-adv-x="577" 
d="M422 281l-249 -209.001h351v-72h-473v56l331 280c30.667 25.333 46 51 46 77c0 18 -6.5 32.667 -19.5 44s-29.833 17 -50.5 17h-299v73h301c42 0 76.333 -12.167 103 -36.5s40 -55.166 40 -92.499c0 -45.333 -27 -91 -81 -137z" />
    <glyph glyph-name="three.osf" horiz-adv-x="577" 
d="M270 276l47.999 -0.00195312c58 0 106.5 -19.5 145.5 -58.5s58.5 -86.5 58.5 -142.5c0 -57.333 -19.667 -105.666 -59 -144.999s-87.666 -59 -144.999 -59h-277v73h274c36.667 0 67.834 12.833 93.501 38.5s38.5 56.834 38.5 93.501c0 36 -12.833 66.833 -38.5 92.5
s-56.834 38.5 -93.501 38.5h-153v53l220 214h-341v73h449v-56z" />
    <glyph glyph-name="four.osf" horiz-adv-x="699" 
d="M496 125h159v-72h-159v-184h-75v184h-378v55l349 439h104v-422zM421 474l-277 -349h277v349z" />
    <glyph glyph-name="five.osf" horiz-adv-x="589" 
d="M139 278h193.999c58.667 0 107.334 -19.5 146.001 -58.5s58 -86.833 58 -143.5c0 -58 -19.5 -106.667 -58.5 -146s-87.5 -59 -145.5 -59h-272v73h269c38 0 69.5 12.833 94.5 38.5s37.5 57.167 37.5 94.5c0 36.667 -12.5 67.667 -37.5 93s-56.5 38 -94.5 38h-269l36 339
h384v-73h-322z" />
    <glyph glyph-name="six.osf" horiz-adv-x="642" 
d="M373 450c65.333 -4.66699 117.332 -28 155.999 -70s58 -94.667 58 -158c0 -68.667 -24.5 -124.834 -73.5 -168.501s-111.167 -65.5 -186.5 -65.5c-78.667 0 -142.167 21.5 -190.5 64.5s-72.5 98.833 -72.5 167.5c0 18.667 1.66699 34 5 46l60 294
c14.667 73.333 63.334 110 146.001 110h227v-72h-226c-42.667 0 -68 -19.333 -76 -58l-32 -149h1c23.333 20.667 53.333 36.334 90 47.001s74.667 14.667 114 12zM326.999 62c54 0 97.999 14.833 131.999 44.5s51 68.167 51 115.5s-17.167 85.5 -51.5 114.5
s-78.166 43.5 -131.499 43.5c-56 0 -101.167 -14.333 -135.5 -43s-51.5 -67.667 -51.5 -117c0 -48 16.5 -86.333 49.5 -115s78.833 -43 137.5 -43z" />
    <glyph glyph-name="seven.osf" horiz-adv-x="559" 
d="M41 474v73h474v-56l-311 -620h-82l307 603h-388z" />
    <glyph glyph-name="eight.osf" horiz-adv-x="655" 
d="M458 354v-2.99902c42 -12 75.167 -32.5 99.5 -61.5s36.5 -63.5 36.5 -103.5c0 -60 -25.5 -108 -76.5 -144s-114.5 -54 -190.5 -54c-75.333 0 -138.333 18.167 -189 54.5s-76 84.166 -76 143.499c0 39.333 12 73.5 36 102.5s56.667 49.833 98 62.5v3
c-36 12 -64.5 31 -85.5 57s-31.5 56.333 -31.5 91c0 55.333 23.5 99.333 70.5 132s106.167 49 177.5 49s130.833 -16.167 178.5 -48.5s71.5 -76.5 71.5 -132.5c0 -35.333 -10.667 -66 -32 -92s-50.333 -44.667 -87 -56zM156 498.001c0 -34 16 -60.667 48 -80
s73 -29.333 123 -30c50 0 91.333 9.83301 124 29.5s49 46.5 49 80.5c0 34.667 -16.167 61.834 -48.5 81.501s-73.833 29.5 -124.5 29.5c-50 0 -91 -9.83301 -123 -29.5s-48 -46.834 -48 -81.501zM327 62.001c55.333 0 100.833 11.333 136.5 34s53.5 53.667 53.5 93
c0 38.667 -18 69.167 -54 91.5s-81.333 33.5 -136 33.5c-54 0 -98.833 -11.167 -134.5 -33.5s-53.5 -52.833 -53.5 -91.5s18 -69.5 54 -92.5s80.667 -34.5 134 -34.5z" />
    <glyph glyph-name="nine.osf" horiz-adv-x="640" 
d="M315 560c78.667 0 142.168 -21.5 190.501 -64.5s72.5 -98.833 72.5 -167.5c0 -15.333 -1.66699 -30.666 -5 -45.999l-62 -299c-14.667 -73.333 -63.667 -110 -147 -110h-233v72h233c42 0 67.333 19.333 76 58l34 153h-1c-23.333 -20.667 -53.5 -36.334 -90.5 -47.001
s-75.167 -14.334 -114.5 -11.001c-64.667 4.66699 -116.334 28 -155.001 70s-58 94.667 -58 158c0 68.667 24.5 124.834 73.5 168.501s111.167 65.5 186.5 65.5zM315.001 168c56 0 101.167 14.332 135.5 42.999s51.5 67.667 51.5 117c0 47.333 -16.667 85.333 -50 114
s-79 43 -137 43c-54 0 -98.167 -14.667 -132.5 -44s-51.5 -67.666 -51.5 -114.999s17.167 -85.5 51.5 -114.5s78.5 -43.5 132.5 -43.5z" />
    <glyph glyph-name="zero.osf.tnum" 
d="M326 -13c-85.333 0 -155 27.5 -209 82.5s-81 122.833 -81 203.5s27.167 148.667 81.5 204s123.833 83 208.5 83c83.333 0 152 -27.667 206 -83s81 -123.333 81 -204s-27 -148.5 -81 -203.5s-122.667 -82.5 -206 -82.5zM326 60c61.333 0 112 20.5 152 61.5
s60 91.5 60 151.5c0 59.333 -20 109.833 -60 151.5s-90.667 62.5 -152 62.5c-63.333 0 -114.833 -20.667 -154.5 -62s-59.5 -92 -59.5 -152s19.833 -110.5 59.5 -151.5s91.167 -61.5 154.5 -61.5z" />
    <glyph glyph-name="one.osf.tnum" 
d="M417 72h155v-72h-494v72h264v402h-215v72h290v-474z" />
    <glyph glyph-name="two.osf.tnum" 
d="M461 281l-250 -209.001h351v-72h-473v56l332 280c30.667 26 46 51.667 46 77c0 18 -6.5 32.667 -19.5 44s-29.833 17 -50.5 17h-300v73h301c42 0 76.5 -12.167 103.5 -36.5s40.5 -55.166 40.5 -92.499c0 -45.333 -27 -91 -81 -137z" />
    <glyph glyph-name="three.osf.tnum" 
d="M317 276l47.999 -0.000976562c58 0 106.5 -19.333 145.5 -58s58.5 -86.334 58.5 -143.001c0 -57.333 -19.667 -105.666 -59 -144.999s-87.666 -59 -144.999 -59h-276v73h274c36.667 0 67.667 12.833 93 38.5s38 56.834 38 93.501c0 36 -12.667 66.833 -38 92.5
s-56.333 38.5 -93 38.5h-153v53l220 214h-341v73h449v-56z" />
    <glyph glyph-name="four.osf.tnum" 
d="M497 125h132v-72h-132v-184h-75v184h-378v55l349 439h104v-422zM422 474l-278 -349h278v349z" />
    <glyph glyph-name="five.osf.tnum" 
d="M177 278h193.999c58.667 0 107.334 -19.5 146.001 -58.5s58 -86.833 58 -143.5c0 -58 -19.5 -106.667 -58.5 -146s-87.5 -59 -145.5 -59h-272v73h269c38 0 69.5 12.833 94.5 38.5s37.5 57.167 37.5 94.5c0 36.667 -12.5 67.667 -37.5 93s-56.5 38 -94.5 38h-269l36 339
h384v-73h-322z" />
    <glyph glyph-name="six.osf.tnum" 
d="M375 450c64.667 -4.66699 116.332 -27.999 154.999 -69.999s58 -94.667 58 -158c0 -68.667 -24.5 -124.834 -73.5 -168.501s-111.167 -65.5 -186.5 -65.5c-78.667 0 -142.167 21.5 -190.5 64.5s-72.5 98.833 -72.5 167.5c0 15.333 1.66699 30.666 5 45.999l60 294
c14.667 73.333 63.334 110 146.001 110h227v-72h-226c-42 0 -67.333 -19.333 -76 -58l-32 -149h1c23.333 20.667 53.333 36.334 90 47.001s75 14.667 115 12zM327.998 62.001c54 0 98.167 14.833 132.5 44.5s51.5 68.167 51.5 115.5s-17.167 85.5 -51.5 114.5
s-78.5 43.5 -132.5 43.5c-56 0 -101.167 -14.333 -135.5 -43s-51.5 -67.667 -51.5 -117c0 -48 16.667 -86.333 50 -115s79 -43 137 -43z" />
    <glyph glyph-name="seven.osf.tnum" 
d="M81 474v73h473v-56l-311 -620h-82l308 603h-388z" />
    <glyph glyph-name="eight.osf.tnum" 
d="M456 354l0.000976562 -2.99902c42 -12 75 -32.5 99 -61.5s36 -63.5 36 -103.5c0 -60 -25.333 -108 -76 -144s-114 -54 -190 -54c-75.333 0 -138.5 18.167 -189.5 54.5s-76.5 84.166 -76.5 143.499c0 40 12 74.5 36 103.5s57 49.5 99 61.5v3c-36.667 12 -65.5 31 -86.5 57
s-31.5 56.333 -31.5 91c0 55.333 23.5 99.333 70.5 132s106.5 49 178.5 49c71.333 0 130.666 -16.167 177.999 -48.5s71 -76.5 71 -132.5c0 -35.333 -10.5 -66 -31.5 -92s-49.833 -44.667 -86.5 -56zM153.001 498.001c0 -34 16.167 -60.667 48.5 -80s73.5 -29.333 123.5 -30
c49.333 0 90.333 9.83301 123 29.5s49 46.5 49 80.5c0 34.667 -16 61.834 -48 81.501s-73.333 29.5 -124 29.5s-92 -9.83301 -124 -29.5s-48 -46.834 -48 -81.501zM325.001 62.001c54.667 0 99.835 11.5 135.502 34.5s53.5 53.833 53.5 92.5s-17.833 69.167 -53.5 91.5
s-80.834 33.5 -135.501 33.5s-99.834 -11.167 -135.501 -33.5s-53.5 -52.833 -53.5 -91.5s18 -69.5 54 -92.5s81 -34.5 135 -34.5z" />
    <glyph glyph-name="nine.osf.tnum" 
d="M322 560c78.667 0 142.168 -21.5 190.501 -64.5s72.5 -98.833 72.5 -167.5c0 -15.333 -1.66699 -30.666 -5 -45.999l-62 -299c-14.667 -73.333 -63.667 -110 -147 -110h-233v72h233c42 0 67.333 19.333 76 58l34 153h-1c-23.333 -20.667 -53.5 -36.334 -90.5 -47.001
s-75.167 -14.334 -114.5 -11.001c-64.667 4.66699 -116.334 28 -155.001 70s-58 94.667 -58 158c0 68.667 24.5 124.834 73.5 168.501s111.167 65.5 186.5 65.5zM322.001 168c56 0 101.167 14.332 135.5 42.999s51.5 67.667 51.5 117c0 47.333 -16.667 85.333 -50 114
s-79 43 -137 43c-54 0 -98.167 -14.667 -132.5 -44s-51.5 -67.666 -51.5 -114.999s17.167 -85.5 51.5 -114.5s78.5 -43.5 132.5 -43.5z" />
    <glyph glyph-name="zero.tnum" 
d="M68 245l0.000976562 180.001c0 73.333 24.333 134.666 73 183.999s109.667 74 183 74s134.666 -24.833 183.999 -74.5s74 -111.167 74 -184.5v-179c0 -73.333 -24.667 -134.666 -74 -183.999s-110.333 -74 -183 -74c-73.333 0 -134.5 24.667 -183.5 74
s-73.5 110.666 -73.5 183.999zM145.001 425.001v-180.001c0 -52 17 -95.5 51 -130.5s77 -52.5 129 -52.5s95 17.333 129 52s51 78.334 51 131.001v179c0 53.333 -17 97.5 -51 132.5s-77.333 52.5 -130 52.5c-52 0 -94.833 -17.5 -128.5 -52.5s-50.5 -78.833 -50.5 -131.5z
" />
    <glyph glyph-name="one.tnum" 
d="M406 670v-595h153v-75h-467v75h238v520h-187v75h263z" />
    <glyph glyph-name="two.tnum" 
d="M481 365l-271 -290h342v-75h-455v58l331 356c25.333 27.333 38 57 38 89c0 27.333 -9.83301 49.5 -29.5 66.5s-45.5 25.5 -77.5 25.5h-252v75h254c53.333 0 97 -15.333 131 -46s51 -70 51 -118c0 -50.667 -20.667 -97.667 -62 -141z" />
    <glyph glyph-name="three.tnum" 
d="M329 384l38.001 0.000976562c55.333 0 101.833 -18.167 139.5 -54.5s56.5 -81.5 56.5 -135.5s-18.833 -99.833 -56.5 -137.5s-84.167 -56.5 -139.5 -56.5h-273v75h270c33.333 0 61.666 11.5 84.999 34.5s35 51.167 35 84.5s-11.5 61.666 -34.5 84.999s-51.5 35 -85.5 35
h-143v55l203 226h-330v75h437v-57z" />
    <glyph glyph-name="four.tnum" 
d="M499 245h100v-71h-100v-174h-76v174h-370v54l343 442h103v-425zM423 590l-267 -345h267v345z" />
    <glyph glyph-name="five.tnum" 
d="M184 391h183.999c61.333 0 110 -19 146 -57s54 -84 54 -138c0 -53.333 -18.167 -99.333 -54.5 -138s-84.833 -58 -145.5 -58h-259v75h257c36.667 0 66.167 11.667 88.5 35s33.833 52 34.5 86c0 33.333 -11.167 62 -33.5 86s-52.166 36 -89.499 36h-262l40 352h374v-75
h-311z" />
    <glyph glyph-name="six.tnum" 
d="M71 207c0 17.333 1.99902 34 5.99902 50l67 306c14 71.333 62 107 144 107h220v-75h-219c-41.333 0 -65.666 -18 -72.999 -54l-39 -168h3c46 35.333 99.667 53 161 53c74 0 133.333 -19.667 178 -59s67 -92 67 -158s-24 -119.333 -72 -160s-109.333 -61 -184 -61
c-78 0 -140.667 20 -188 60s-71 93 -71 159zM146.999 207c0 -45.333 15.999 -80.835 47.999 -106.502s77 -38.5 135 -38.5c54 0 97.333 13.333 130 40s49 62.334 49 107.001s-16.5 80 -49.5 106s-76.167 39 -129.5 39c-55.333 0 -99.666 -13.167 -132.999 -39.5
s-50 -62.166 -50 -107.499z" />
    <glyph glyph-name="seven.tnum" 
d="M92 595v75h460v-58l-283 -612h-84l277 595h-370z" />
    <glyph glyph-name="eight.tnum" 
d="M62 186c0 38.667 11.335 72.502 34.002 101.502s54.667 50.167 96 63.5v2c-36 13.333 -63.833 33.166 -83.5 59.499s-29.5 56.5 -29.5 90.5c0 56 23.167 100 69.5 132s105.166 48 176.499 48s130.166 -16 176.499 -48s69.5 -76 69.5 -132c0 -34.667 -10 -65 -30 -91
s-48 -45.667 -84 -59v-2c41.333 -13.333 73.5 -34.5 96.5 -63.5s34.5 -62.833 34.5 -101.5c0 -60.667 -25 -108.834 -75 -144.501s-112.667 -53.5 -188 -53.5c-74.667 0 -137.167 18 -187.5 54s-75.5 84 -75.5 144zM156.002 498.002c0 -34 15.833 -60.667 47.5 -80
s72.167 -29.333 121.5 -30c49.333 0 89.833 9.66699 121.5 29s47.5 46.333 47.5 81c0 35.333 -15.667 62.666 -47 81.999s-72 29 -122 29s-90.667 -9.66699 -122 -29s-47 -46.666 -47 -81.999zM139.002 189.002c0 -39.333 17.501 -70.333 52.501 -93s79.5 -34 133.5 -34
s98.5 11.333 133.5 34s52.5 53.667 52.5 93s-17.5 70 -52.5 92s-79.5 33 -133.5 33c-54.667 0 -99.334 -11 -134.001 -33s-52 -52.667 -52 -92z" />
    <glyph glyph-name="nine.tnum" 
d="M579 463c0 -18 -2.00098 -34.334 -6.00098 -49.001l-66 -307c-15.333 -71.333 -63.666 -107 -144.999 -107h-219v75h218c41.333 0 66 18.333 74 55l38 167h-3c-46 -35.333 -99.667 -53 -161 -53c-73.333 -0.666992 -132.5 18.833 -177.5 58.5s-67.5 92.5 -67.5 158.5
c0 66.667 24 120.334 72 161.001s109.333 61 184 61c78 0 140.667 -20.167 188 -60.5s71 -93.5 71 -159.5zM502.999 462.999c0 45.333 -16 80.833 -48 106.5s-77 38.5 -135 38.5c-54 0 -97.333 -13.167 -130 -39.5s-49 -62.166 -49 -107.499c0 -44.667 16.5 -80 49.5 -106
s76.5 -39 130.5 -39c54.667 0 98.667 13.167 132 39.5s50 62.166 50 107.499z" />
    <glyph glyph-name="zero.dnom" horiz-adv-x="406" 
d="M42 149v98c0 44.667 15.5 81.667 46.5 111s69.167 44 114.5 44s83.5 -14.667 114.5 -44s46.5 -66.333 46.5 -111v-98c0 -44.667 -15.667 -81.667 -47 -111s-69.333 -44 -114 -44c-45.333 0 -83.5 14.667 -114.5 44s-46.5 66.333 -46.5 111zM102 247v-98
c0 -28 9.66699 -51 29 -69s43.333 -27 72 -27s52.667 9 72 27s29 41 29 69v98c0 28 -9.66699 51 -29 69s-43.333 27 -72 27s-52.667 -9 -72 -27s-29 -41 -29 -69z" />
    <glyph glyph-name="one.dnom" horiz-adv-x="241" 
d="M177 394v-394h-60v334h-105v60h165z" />
    <glyph glyph-name="two.dnom" horiz-adv-x="345" 
d="M264 205l-148 -145h194v-60h-285v48l201 198c12.667 12.667 19 27.334 19 44.001c0 12.667 -5.5 23.167 -16.5 31.5s-24.167 12.5 -39.5 12.5h-159v60h160c34 0 61.833 -9.83301 83.5 -29.5s32.5 -44.167 32.5 -73.5c0 -30.667 -14 -59.334 -42 -86.001z" />
    <glyph glyph-name="three.dnom" horiz-adv-x="352" 
d="M188 229h12c32.667 0 61 -10.5 85 -31.5s36 -47.5 36 -79.5c0 -32.667 -12.167 -60.5 -36.5 -83.5s-53.5 -34.5 -87.5 -34.5h-169v60h166c18 0 33.667 5.83301 47 17.5s20 25.5 20 41.5c0 15.333 -6.66699 28.833 -20 40.5s-29 17.5 -47 17.5h-88v40l112 117h-190v60h275
v-45z" />
    <glyph glyph-name="four.dnom" horiz-adv-x="376" 
d="M294 156h61v-57h-61v-99h-61v99h-217v45l193 250h85v-238zM233 338l-136 -182h136v182z" />
    <glyph glyph-name="five.dnom" horiz-adv-x="366" 
d="M108 234l101 -0.00195312c37.333 0 67.833 -11.167 91.5 -33.5s35.5 -49.166 35.5 -80.499c0 -33.333 -11.833 -61.666 -35.5 -84.999s-54.167 -35 -91.5 -35h-159v60h157c19.333 0 35.5 5.83301 48.5 17.5s19.5 25.5 19.5 41.5c0 15.333 -6.5 29 -19.5 41
s-29.167 18 -48.5 18h-160l24 216h235v-60h-187z" />
    <glyph glyph-name="six.dnom" horiz-adv-x="379" 
d="M169 394l136 -0.00195312v-59h-138c-20.667 0 -32.667 -9 -36 -27l-21 -90h2c26.667 20.667 59.667 31 99 31c41.333 0 75.333 -11.667 102 -35s40 -53.666 40 -90.999c0 -38.667 -15.333 -70 -46 -94s-68.667 -36 -114 -36c-36.667 0 -68.5 7.83301 -95.5 23.5
s-45.5 36.834 -55.5 63.501c-6.66699 18 -8 40 -4 66c2 12 15 71.333 39 178c4.66699 21.333 15.167 38.333 31.5 51s36.5 19 60.5 19zM94 122.998c0 -22 8.99902 -39.5 26.999 -52.5s41.667 -19.5 71 -19.5c30 0 54.333 6.66699 73 20s28 31 28 53
c0 20.667 -9.16699 37.667 -27.5 51s-42.166 20 -71.499 20c-30 0 -54.167 -6.5 -72.5 -19.5s-27.5 -30.5 -27.5 -52.5z" />
    <glyph glyph-name="seven.dnom" horiz-adv-x="314" 
d="M13 334v60h284v-45l-170 -349h-65l167 334h-216z" />
    <glyph glyph-name="eight.dnom" horiz-adv-x="398" 
d="M287 206c48.667 -19.333 73 -51 73 -95c0 -36 -15.333 -64.667 -46 -86s-69 -32 -115 -32s-84.5 10.833 -115.5 32.5s-46.5 50.167 -46.5 85.5c0 44 24.667 75.667 74 95c-42.667 19.333 -64 48.333 -64 87c0 33.333 14.5 60 43.5 80s65.167 30 108.5 30
c42.667 0 78.667 -10 108 -30s44 -46.667 44 -80c0 -38.667 -21.333 -67.667 -64 -87zM199 346c-25.333 0 -46.833 -5.16699 -64.5 -15.5s-26.5 -24.166 -26.5 -41.499s8.66699 -31 26 -41s39 -15 65 -15s47.833 5.16699 65.5 15.5s26.5 23.833 26.5 40.5
c0 17.333 -8.66699 31.166 -26 41.499s-39.333 15.5 -66 15.5zM199 49c28.667 0 52.834 6 72.501 18s29.5 27.667 29.5 47s-9.83301 35 -29.5 47s-43.834 18 -72.501 18s-52.667 -6 -72 -18s-29 -27.667 -29 -47c0 -18.667 9.66699 -34.167 29 -46.5s43.333 -18.5 72 -18.5z
" />
    <glyph glyph-name="nine.dnom" horiz-adv-x="379" 
d="M210 0h-136v60h138c20.667 0 33 9 37 27l20 89h-2c-26 -20 -59 -30 -99 -30c-41.333 0 -75.333 11.5 -102 34.5s-40 53.167 -40 90.5c0 38.667 15.333 70 46 94s69 36 115 36c36 0 67.5 -7.83301 94.5 -23.5s45.5 -36.5 55.5 -62.5c6.66699 -17.333 8 -39.333 4 -66
c-2 -14 -15 -73.667 -39 -179c-4.66699 -21.333 -15.167 -38.333 -31.5 -51s-36.5 -19 -60.5 -19zM286 271c0 22 -9 39.667 -27 53s-41.667 20 -71 20c-30 0 -54.5 -6.83301 -73.5 -20.5s-28.5 -31.167 -28.5 -52.5s9.16699 -38.666 27.5 -51.999s42.5 -20 72.5 -20
c29.333 0 53.333 6.66699 72 20s28 30.666 28 51.999z" />
    <glyph glyph-name="zero.numr" horiz-adv-x="406" 
d="M42 426v98c0 44.667 15.667 81.834 47 111.501s69.333 44.5 114 44.5s82.667 -14.833 114 -44.5s47 -66.834 47 -111.501v-98c0 -44.667 -15.667 -81.834 -47 -111.501s-69.333 -44.5 -114 -44.5s-82.667 14.833 -114 44.5s-47 66.834 -47 111.501zM102 524v-98
c0 -28 9.66699 -51 29 -69s43.333 -27 72 -27s52.667 9 72 27s29 41 29 69v98c0 28 -9.66699 51 -29 69s-43.333 27 -72 27s-52.667 -9 -72 -27s-29 -41 -29 -69z" />
    <glyph glyph-name="one.numr" horiz-adv-x="241" 
d="M177 670v-394h-60v334h-105v60h165z" />
    <glyph glyph-name="two.numr" horiz-adv-x="345" 
d="M264 481l-148 -145h194v-60h-285v48l201 198c12.667 12.667 19 27.334 19 44.001c0 12.667 -5.5 23.167 -16.5 31.5s-24.167 12.5 -39.5 12.5h-159v60h160c34 0 61.833 -9.83301 83.5 -29.5s32.5 -44.167 32.5 -73.5c0 -30.667 -14 -59.334 -42 -86.001z" />
    <glyph glyph-name="three.numr" horiz-adv-x="352" 
d="M188 505h12c32.667 0 61 -10.5 85 -31.5s36 -47.5 36 -79.5c0 -32.667 -12.167 -60.5 -36.5 -83.5s-53.5 -34.5 -87.5 -34.5h-169v60h166c18 0 33.667 6 47 18s20 25.667 20 41s-6.66699 28.833 -20 40.5s-29 17.5 -47 17.5h-88v40l112 117h-190v60h275v-45z" />
    <glyph glyph-name="four.numr" horiz-adv-x="376" 
d="M294 432h61v-57h-61v-99h-61v99h-217v45l193 250h85v-238zM233 614l-136 -182h136v182z" />
    <glyph glyph-name="five.numr" horiz-adv-x="366" 
d="M108 511l101 -0.000976562c37.333 0 67.833 -11.333 91.5 -34s35.5 -49.667 35.5 -81c0 -33.333 -11.833 -61.666 -35.5 -84.999s-54.167 -35 -91.5 -35h-159v60h157c19.333 0 35.5 5.83301 48.5 17.5s19.5 25.5 19.5 41.5c0 15.333 -6.5 29 -19.5 41
s-29.167 18 -48.5 18h-160l24 216h235v-60h-187z" />
    <glyph glyph-name="six.numr" horiz-adv-x="382" 
d="M168 670h140.002v-60h-138c-20.667 0 -33 -9 -37 -27l-20 -89h2c26 20 59 30 99 30c41.333 0 75.333 -11.5 102 -34.5s40 -53.167 40 -90.5c0 -38.667 -15.333 -70 -46 -94s-69 -36 -115 -36c-36 0 -67.667 7.83301 -95 23.5s-46 36.5 -56 62.5
c-6.66699 20.667 -8.33398 42.667 -5.00098 66c5.33301 33.333 17.666 93 36.999 179c5.33301 21.333 16 38.333 32 51s36 19 60 19zM96.002 399c0 -22 9 -39.667 27 -53s41.667 -20 71 -20c30 0 54.5 6.83301 73.5 20.5s28.5 31.167 28.5 52.5
s-9.16699 38.666 -27.5 51.999s-42.5 20 -72.5 20c-29.333 0 -53.333 -6.66699 -72 -20s-28 -30.666 -28 -51.999z" />
    <glyph glyph-name="seven.numr" horiz-adv-x="314" 
d="M13 610v60h284v-45l-170 -349h-65l167 334h-216z" />
    <glyph glyph-name="eight.numr" horiz-adv-x="398" 
d="M287 483c48.667 -19.333 73 -51 73 -95c0 -36 -15.333 -64.667 -46 -86s-69 -32 -115 -32s-84.5 10.833 -115.5 32.5s-46.5 50.167 -46.5 85.5c0 44 24.667 75.667 74 95c-42.667 19.333 -64 48.333 -64 87c0 33.333 14.5 60 43.5 80s65.167 30 108.5 30
c42.667 0 78.667 -10 108 -30s44 -46.667 44 -80c0 -38.667 -21.333 -67.667 -64 -87zM199 623c-25.333 0 -46.833 -5.16699 -64.5 -15.5s-26.5 -24.166 -26.5 -41.499s8.66699 -31 26 -41s39 -15 65 -15s47.833 5.16699 65.5 15.5s26.5 23.833 26.5 40.5
c0 17.333 -8.66699 31.166 -26 41.499s-39.333 15.5 -66 15.5zM199 326c28.667 0 52.834 6 72.501 18s29.5 27.667 29.5 47s-9.83301 35 -29.5 47s-43.834 18 -72.501 18s-52.667 -6 -72 -18s-29 -27.667 -29 -47c0 -18.667 9.66699 -34.167 29 -46.5s43.333 -18.5 72 -18.5
z" />
    <glyph glyph-name="nine.numr" horiz-adv-x="382" 
d="M214 279l-140.001 0.00195312v59h135c22.667 0 36 9 40 27l20 90h-2c-26.667 -20.667 -59.667 -31 -99 -31c-41.333 0 -75.333 11.667 -102 35s-40 53.666 -40 90.999c0 38.667 15.333 70 46 94s69 36 115 36c36.667 0 68.667 -7.83301 96 -23.5
s45.666 -36.834 54.999 -63.501c6.66699 -19.333 8.33398 -41.333 5.00098 -66c-5.33301 -32.667 -17.666 -92 -36.999 -178c-5.33301 -21.333 -16 -38.333 -32 -51s-36 -19 -60 -19zM285.999 550.002c0 22 -9 39.5 -27 52.5s-41.667 19.5 -71 19.5
c-30 0 -54.5 -6.66699 -73.5 -20s-28.5 -31 -28.5 -53c0 -20.667 9.16699 -37.667 27.5 -51s42.5 -20 72.5 -20c29.333 0 53.333 6.5 72 19.5s28 30.5 28 52.5z" />
    </font>
</defs>
</svg>
